<svg version="1.2" baseProfile="tiny-ps" xmlns="http://www.w3.org/2000/svg" viewBox="0 0 2246 996" width="188" height="83">
	<title>Bradesco_prime_CMYK_WHITE-ai</title>
	<style>
		tspan { white-space:pre }
		.s0 { fill: #ffffff } 
	</style>
	<g id="Layer 1">
	</g>
	<g id="PROPORǘAO E REGRAS">
		<g id="&lt;Group&gt;">
			<g id="&lt;Group&gt;">
				<path id="&lt;Compound Path&gt;" fill-rule="evenodd" class="s0" d="m687.41 717.77c12.12-4.04 30.15-8.08 47.38-8.08c38.23 0 63.81 22.62 63.81 65.69c0 42.81-26.38 69.73-65.15 69.73c-8.35 0-16.42-0.81-23.69-2.42v42.27c0 4.31-1.62 7.27-4.31 9.69c-4.85 4.58-11.84 7.81-18.04 10.23v-187.11zm88.58 57.61c0-30.15-15.08-47.65-42-47.65c-7 0-15.35 1.08-24.23 3.5v93.15c5.65 1.62 13.73 2.69 22.88 2.69c25.58 0 43.35-17.23 43.35-51.69z" />
				<path id="&lt;Compound Path&gt;" class="s0" d="m824.71 843.5v-131.65c2.69-0.54 6.19-1.08 9.69-1.08c2.96 0 6.73 0.27 9.42 1.08c1.08 5.65 1.88 12.12 2.15 18.31c9.15-12.65 21.27-19.38 35.54-19.38c3.5 0 7 0.54 10.23 1.08c0.54 2.69 0.81 5.65 0.81 8.35c0 2.96-0.27 6.46-1.08 9.69c-2.69-0.81-6.73-0.81-10.23-0.81c-19.12 0-34.19 16.15-34.19 40.11v74.31c-2.96 0.54-7.54 1.08-11.58 1.08c-4.04 0-7.81-0.54-10.77-1.08z" />
				<path id="&lt;Compound Path&gt;" class="s0" d="m911.94 688.69c-0.27-3.5-0.54-7.81-0.54-11.31c0-3.5 0.27-7.81 0.54-11.04c3.23-0.81 7.81-0.81 12.12-0.81c4.31 0 8.62 0 11.58 0.81c0.27 3.23 0.54 7.54 0.54 11.04c0 3.5-0.27 7.81-0.54 11.31c-2.96 0.54-7.81 0.81-12.11 0.81c-4.31 0-8.62-0.27-11.58-0.81zm0.54 154.8v-131.65c2.96-0.54 7.54-1.08 11.58-1.08c4.04 0 7.81 0.54 10.77 1.08v131.65c-2.96 0.54-7.54 1.08-11.58 1.08c-4.04 0-7.81-0.54-10.77-1.08z" />
				<path id="&lt;Compound Path&gt;" class="s0" d="m1155.85 770v73.5c-2.96 0.54-7.54 1.08-11.58 1.08c-4.04 0-7.81-0.54-10.77-1.08v-72.69c0-30.15-12.65-43.08-37.42-43.08c-10.5 0-21 2.15-31.23 6.46c5.38 9.42 8.08 21.27 8.08 35.81v73.5c-2.96 0.54-7.54 1.08-11.58 1.08c-4.04 0-7.81-0.54-10.77-1.08v-73.23c0-29.35-11.04-42.54-35.54-42.54c-11.31 0-19.11 1.35-26.65 3.5v112.27c-2.96 0.54-7.54 1.08-11.58 1.08c-4.04 0-7.81-0.54-10.77-1.08v-126c15.62-4.58 32.58-7.81 50.35-7.81c14.81 0 26.92 3.5 36.35 10.5c13.46-6.46 29.35-10.5 44.69-10.5c35.81 0 58.42 20.46 58.42 60.31z" />
				<path id="&lt;Compound Path&gt;" fill-rule="evenodd" class="s0" d="m1289.11 782.38h-86.96c1.35 28 16.15 45.23 43.08 45.23c13.46 0 25.31-2.69 36.88-6.46c0.54 2.69 0.81 5.65 0.81 8.62c0 2.96-0.27 5.92-0.81 8.62c-9.15 4.04-23.96 7-38.5 7c-39.85 0-63-25.85-63-67.31c0-40.92 22.35-68.38 57.61-68.38c30.69 0 51.69 22.35 51.69 58.15c0 3.77-0.27 11.31-0.81 14.54zm-20.19-16.69c0-22.61-11.04-38.77-30.96-38.77c-18.85 0-33.65 14.54-35.54 38.77h66.5z" />
			</g>
			<g id="&lt;Group&gt;">
				<g id="&lt;Group&gt;">
					<path id="&lt;Compound Path&gt;" fill-rule="evenodd" class="s0" d="m1172.6 466.58v108.51c-23.46 7.12-49.02 11.31-72.48 11.31c-49.86 0-84.21-16.34-84.21-64.52c0-42.74 38.13-58.66 82.54-58.66c6.7 0 16.34 0.84 24.3 1.68v-2.09c0-22.21-12.99-33.1-39.8-33.1c-13.83 0-25.98 0.42-47.76 5.45c-2.93-12.15-3.35-29.33 0-41.06c17.6-4.19 35.61-6.7 56.14-6.28c53.21 1.26 81.28 26.81 81.28 78.77zm-309.62 18.43c0 59.91-38.96 101.39-106.84 101.39c-26.81 0-54.89-5.03-68.71-10.89v-229.6c0-7.96 2.1-13.41 8.8-18.85c12.99-10.47 28.49-18.02 43.15-23.46v93.01c9.22-4.61 23.88-7.96 38.97-7.96c56.98 0 84.63 36.87 84.63 96.36zm469.67-157.95c12.99-10.47 28.49-18.02 43.15-23.46v271.08c-23.88 7.96-50.7 11.73-77.93 11.73c-59.49 0-97.62-34.78-97.62-97.62c0-61.59 38.96-100.14 96.36-100.14c8.38 0 18.02 0.42 27.23 2.93v-45.67c0-7.96 2.09-13.41 8.8-18.85zm761.28 160.47c0 59.91-32.68 98.88-91.34 98.88c-56.56 0-90.92-38.13-90.92-98.88c0-59.91 32.68-99.72 90.92-99.72c58.66 0 91.34 39.38 91.34 99.72zm-517.44-11.31c0 6.28-0.42 21.79-2.09 26.4h-118.15c4.19 30.59 24.3 41.48 53.21 41.48c18.02 0 34.36-3.35 53.63-8.8c2.93 12.15 2.93 28.07 0 40.22c-14.66 7.12-37.71 10.89-59.08 10.89c-62.43 0-98.88-35.19-98.88-98.04c0-62.85 34.36-100.55 90.5-100.55c49.02 0 80.86 31.84 80.86 88.4zm-566.46-84.21c2.51 12.15 2.1 29.75-0.84 41.9c-4.61-0.84-12.57-0.84-17.18-0.84c-25.98 0-45.25 19.69-45.25 56.56v92.59c-5.45 1.26-17.18 2.09-25.98 2.09c-9.22 0-19.69-0.42-25.98-2.09v-189.8c4.61-1.26 13.83-2.09 20.95-2.09c7.54 0 16.34 0.42 21.37 2.09c2.93 8.8 4.61 15.92 5.87 24.72c13.41-17.18 27.65-26.81 52.37-26.81c4.19 0 11.73 0.84 14.66 1.68zm1030.68 95.53c0-33.52-8.38-57.82-38.13-57.82c-28.91 0-37.71 25.14-37.71 57.82c0 33.52 8.8 56.98 37.71 56.98c28.49 0 38.13-21.79 38.13-56.98zm-150.41 49.86c4.61 14.66 12.57 27.23 19.69 36.45c-15.92 8.8-35.61 12.57-56.98 12.57c-58.66 0-92.59-38.55-92.59-99.3c0-58.66 33.1-99.3 90.5-99.3c25.98 0 41.9 4.61 58.24 12.99c-8.8 11.31-15.08 24.72-18.44 36.45c-11.73-4.61-20.53-6.7-33.1-6.7c-29.75 0-43.57 22.21-43.57 56.56c0 36.03 17.18 56.56 43.15 56.56c12.15 0 18.43-0.42 33.1-6.28zm-151.67-9.64c0 37.71-31.84 58.66-71.64 58.66c-24.72 0-48.18-2.93-65.36-12.15c-3.35-12.57-3.35-28.49 0-40.64c20.11 7.12 36.03 11.31 56.98 11.31c12.57 0 27.65-2.51 27.65-17.6c0-10.06-4.61-13.83-20.11-20.11l-16.34-6.7c-35.19-14.25-47.76-28.91-47.76-58.24c0-32.68 30.59-54.47 70.81-54.47c20.53 0 43.99 3.35 56.56 10.06c2.51 12.15 2.51 25.14 0 38.96c-20.11-6.28-34.77-7.96-49.02-7.96c-14.25 0-25.14 2.51-25.14 14.66c0 7.96 7.12 12.15 19.27 17.18l20.95 8.8c29.75 12.57 43.15 27.23 43.15 58.24zm-210.33-63.27c-0.84-20.95-10.06-36.87-33.52-36.87c-20.95 0-34.78 13.83-38.55 36.87h72.06zm-405.57 79.19v-43.99c-5.03-0.42-14.24-1.26-22.21-1.26c-23.88 0-36.87 6.7-36.87 23.46c0 16.76 12.99 23.88 36.87 23.88c6.28 0 19.27-1.26 22.21-2.09zm201.11-110.61c-6.28-1.68-12.57-2.93-22.62-2.93c-33.94 0-47.34 22.21-47.34 58.66c0 32.68 13.41 55.3 47.76 55.3c7.12 0 13.41-0.42 22.21-2.93v-108.1zm-514.5 50.7c0-33.94-13.83-51.95-39.8-51.95c-12.99 0-23.04 2.09-30.17 5.87v104.33c5.87 2.09 14.25 2.09 19.69 2.09c33.94 0 50.28-24.72 50.28-60.33z" />
					<g id="&lt;Group&gt;">
						<path id="&lt;Path&gt;" class="s0" d="m605.12 361.26c0 47.99-55.79 87.69-129.48 111.86c-5.26 1.73-9.83 0.35-11.23-3.8c-1.4-4.49-0.35-7.6 9.83-12.08c42.11-18.64 77.55-46.61 77.55-74.57c0-55.24-107.73-97.36-235.45-97.36c-19.65 0-37.55 1.04-54.04 2.42c-8.07 18.3-12.28 38.67-12.28 59.73c0 41.77 17.55 83.9 49.13 112.21c4.21 3.8 4.56 7.25 1.75 11.05c-2.81 3.8-7.02 3.8-11.93 0.69c-49.83-31.42-82.11-88.73-80.71-149.15c0-9.32 1.05-18.3 2.81-26.93c-16.49 3.45-32.28 7.25-47.72 11.74c-4.91 1.38-8.42 0-10.18-3.8c-1.75-4.14 0-7.6 4.91-10.36c17.9-10.01 38.25-18.3 60.35-25.2c24.21-65.6 87.72-112.9 162.47-114.28c57.2-1.04 105.62 24.86 138.61 63.18c3.86 4.49 4.21 7.94 0.7 11.39c-3.51 3.45-7.02 3.11-11.58-0.69c-25.26-21.06-62.81-35.22-100.36-35.22c-50.88 0-96.5 23.82-125.27 60.76c28.42-4.83 57.2-7.25 83.51-7.25c133.34 0 238.61 50.41 238.61 115.66z" />
						<g id="&lt;Group&gt;">
							<path id="&lt;Path&gt;" class="s0" d="m427.5 437.71v139.79c0 3.76-3.05 6.8-6.8 6.8h-40.45v-129.71l37.82-21.76c4.26-2.43 9.44-0.48 9.44 4.88z" />
							<path id="&lt;Path&gt;" class="s0" d="m369.59 584.29h-25.95c-2.42 0-4.38-1.96-4.38-4.38v-96.67c0-3.6 1.69-6.06 4.43-7.62l25.9-14.91v123.57z" />
						</g>
					</g>
				</g>
			</g>
		</g>
	</g>
</svg>