<svg xmlns="http://www.w3.org/2000/svg" width="97.5" height="34.8" viewBox="0 0 97.5 34.8">
  <title>logosAtivo 24</title>
  <g>
    <g>
      <path d="M32.2,31.6H27.8c.1,1.4.8,2.3,2.2,2.3a11.3,11.3,0,0,0,1.8-.3c0,.1.1.2.1.4s-.1.3-.1.4a4.9,4.9,0,0,1-1.9.4c-2,0-3.2-1.3-3.2-3.4S27.8,28,29.6,28s2.6,1.1,2.6,2.9Zm-1-.8c0-1.2-.6-2-1.6-2a1.9,1.9,0,0,0-1.8,2Z" fill="#ffffff"/>
      <path d="M38.7,34.7H37.4l-1.7-3.2-1.6,3.2H32.8l2-3.5L33,28.1h1.2l1.5,2.8,1.6-2.8h1.2l-1.8,3.1Z" fill="#ffffff"/>
      <path d="M39.3,31.4c0-2.1,1.2-3.4,3-3.4a3.5,3.5,0,0,1,1.6.3v.4a4.3,4.3,0,0,0-.1.5,3.2,3.2,0,0,0-1.4-.3c-1.4,0-2,.9-2,2.4s.6,2.6,2,2.6a5.7,5.7,0,0,0,1.5-.3c0,.1.1.3.1.4s-.1.3-.1.5a4.3,4.3,0,0,1-1.7.3C40.4,34.8,39.3,33.5,39.3,31.4Z" fill="#ffffff"/>
      <path d="M45.2,34.7V26a.6.6,0,0,1,.2-.5l.9-.5v9.7H45.2Z" fill="#ffffff"/>
      <path d="M47.8,31.8V28.1H49v3.6c0,1.5.6,2.2,1.9,2.2l1.4-.2V28.1h1.1v6.3a10.9,10.9,0,0,1-2.6.4A2.7,2.7,0,0,1,47.8,31.8Z" fill="#ffffff"/>
      <path d="M54.6,34.4v-.9a5.8,5.8,0,0,0,1.9.4c.7,0,1.4-.3,1.4-1s-.3-.8-1.1-1.1l-.5-.3c-1.2-.5-1.6-1-1.6-1.8S55.8,28,57,28a4.3,4.3,0,0,1,1.7.3c0,.1.1.2.1.4s-.1.3-.1.4l-1.6-.2c-.6,0-1.3.2-1.3.8s.4.7,1,1l.7.3A2,2,0,0,1,59,32.9c0,1.2-1,1.9-2.3,1.9A5.6,5.6,0,0,1,54.6,34.4Z" fill="#ffffff"/>
      <path d="M60.2,26.9V25.8h1.2v1.1H60.2Zm0,7.8V28.1h1.2v6.6H60.2Z" fill="#ffffff"/>
      <path d="M64.9,34.7l-2.6-6.6h1.2l1.9,5.1,1.9-5.1h1.2l-2.7,6.6h-.9Z" fill="#ffffff"/>
      <path d="M74.6,31.6H70.2c.1,1.4.8,2.3,2.2,2.3a9.7,9.7,0,0,0,1.8-.3c.1.1.1.2.1.4a.6.6,0,0,1-.1.4,4.9,4.9,0,0,1-1.9.4c-2,0-3.2-1.3-3.2-3.4S70.3,28,72,28s2.6,1.1,2.6,2.9Zm-1-.8c0-1.2-.6-2-1.6-2a1.9,1.9,0,0,0-1.8,2Z" fill="#ffffff"/>
    </g>
    <g>
      <path d="M47.6,19.7c-1.2,0-1.8-.3-1.8-1.2s.6-1.2,1.8-1.2h1.2v2.2H47.6m-17.1-.1h-1V14.3A3.1,3.1,0,0,1,31,14c1.3,0,2,.9,2,2.6s-.8,3-2.5,3m28.4-.1H57.7c-1.7,0-2.4-1.1-2.4-2.7s.7-3,2.4-3l1.2.2Zm34.1.2c-1.5,0-1.9-1.2-1.9-2.9s.4-2.9,1.9-2.9,1.9,1.2,1.9,2.9-.5,2.9-1.9,2.9M65.5,15.6a1.9,1.9,0,0,1,1.9-1.8,1.6,1.6,0,0,1,1.7,1.8ZM42.4,11.9a3.1,3.1,0,0,0-2.7,1.4,3.1,3.1,0,0,0-.3-1.3H37.3v9.5l1.3.2,1.3-.2V16.9c0-1.9,1-2.8,2.3-2.8H43a5,5,0,0,0,.1-2.1h-.7M93,11.8c-3,0-4.6,2-4.6,5s1.7,5,4.6,5,4.5-2,4.5-5-1.6-5-4.5-5m-7.3,7.8c-1.3,0-2.2-1-2.2-2.8s.7-2.9,2.2-2.9a2.9,2.9,0,0,1,1.6.4,5.8,5.8,0,0,1,1-1.9,6.7,6.7,0,0,0-3-.6c-2.8,0-4.5,2-4.5,5s1.7,5,4.6,5a5.4,5.4,0,0,0,2.9-.7,9.6,9.6,0,0,1-1-1.8,3.2,3.2,0,0,1-1.6.3m-8.2-3.7-1-.5c-.6-.2-1-.4-1-.8s.6-.8,1.3-.8a8,8,0,0,1,2.4.4,3.1,3.1,0,0,0,0-1.9,5.9,5.9,0,0,0-2.8-.5c-2,0-3.6,1.1-3.6,2.7s.7,2.2,2.4,2.9l.9.4c.7.3,1,.5,1,1s-.8.9-1.4.9a7.2,7.2,0,0,1-2.9-.6,3.4,3.4,0,0,0,0,2,7,7,0,0,0,3.3.7c2,0,3.6-1.1,3.6-3s-.7-2.3-2.2-2.9m-10-4.1c-2.8,0-4.6,1.9-4.6,5s1.9,5,5,5a7,7,0,0,0,3-.6,6.7,6.7,0,0,0,0-2,8.8,8.8,0,0,1-2.7.4c-1.5,0-2.5-.5-2.7-2.1h5.9a5.1,5.1,0,0,0,.2-1.3c0-2.8-1.6-4.4-4.1-4.4m-20.3,0a11.4,11.4,0,0,0-2.8.3,3.7,3.7,0,0,0,0,2.1,7.5,7.5,0,0,1,2.4-.3c1.3,0,2,.5,2,1.6v.2H47.5c-2.2,0-4.1.8-4.1,2.9s1.7,3.3,4.2,3.3a15.9,15.9,0,0,0,3.7-.6V15.7c0-2.6-1.5-3.9-4.1-3.9M58.9,9.7V12a3.6,3.6,0,0,0-1.4-.2,4.7,4.7,0,0,0-4.9,5.1c0,3.1,2,4.9,5,4.9a12.7,12.7,0,0,0,3.9-.6V7.5a9.4,9.4,0,0,0-2.2,1.2,1.3,1.3,0,0,0-.4,1M31.4,11.8a5.3,5.3,0,0,0-1.9.4V7.5a11.9,11.9,0,0,0-2.2,1.2,1.3,1.3,0,0,0-.4,1V21.2a9.9,9.9,0,0,0,3.4.6c3.4,0,5.4-2.1,5.4-5.1s-1.4-4.9-4.3-4.9" fill="#ffffff"/>
      <g>
        <path d="M10.8,4.6A29.8,29.8,0,0,0,6.6,5a7.8,7.8,0,0,1,6.3-3.1,8.7,8.7,0,0,1,5,1.8.4.4,0,0,0,.6,0c.2-.1.1-.3-.1-.5A8.6,8.6,0,0,0,11.5,0,8.9,8.9,0,0,0,3.3,5.7,20.8,20.8,0,0,0,.3,7c-.3.1-.4.3-.3.5a.4.4,0,0,0,.5.2l2.4-.6c0,.5-.1.9-.1,1.4A8.8,8.8,0,0,0,6.9,16a.5.5,0,0,0,.6-.1c.1-.1.1-.3-.1-.5A7.7,7.7,0,0,1,4.9,9.8a8.1,8.1,0,0,1,.6-3.1H8.2c6.4,0,11.9,2.1,11.9,4.9s-1.8,2.8-3.9,3.8c-.5.2-.6.3-.5.6s.3.3.5.2c3.7-1.2,6.5-3.2,6.5-5.7S17.5,4.6,10.8,4.6" fill="#ffffff"/>
        <g>
          <path d="M13.3,14l-1.9,1.1v6.6h2.1c.2,0,.3-.2.3-.4v-7C13.8,14,13.6,13.9,13.3,14Z" fill="#ffffff"/>
          <path d="M10.9,15.4l-1.3.8a.5.5,0,0,0-.2.4v4.8c0,.2.1.3.2.3h1.3Z" fill="#ffffff"/>
        </g>
      </g>
    </g>
  </g>
</svg>
