<svg width="313" height="280" viewBox="0 0 313 280" fill="none" xmlns="http://www.w3.org/2000/svg">
<g clip-path="url(#clip0_55_8987)">
<path d="M128.461 227.558C113.904 227.558 101.584 222.576 91.8429 212.75C86.6523 207.371 82.3771 201.179 79.1869 194.419C75.3471 186.296 72.4457 177.761 70.5389 168.981C68.6479 160.681 67.7529 155.225 67.5479 150.752C67.3189 145.76 67.9899 141.883 69.6619 138.552C71.2949 135.295 73.9939 132.359 78.1549 129.31C83.2467 125.795 88.5657 122.622 94.0769 119.81C107.577 112.559 121.603 105.798 135.168 99.259C158.755 87.889 183.145 76.133 205.584 61.406C215.937 54.609 225.244 51.167 233.248 51.167C241.011 51.167 247.531 54.39 252.628 60.746C257.643 67 261.257 76.277 263.369 88.319C264.625 95.3536 265.336 102.475 265.495 109.619C265.635 116.214 265.176 122.807 264.125 129.319C263.117 135.493 261.488 141.549 259.265 147.396C257.061 153.144 254.265 158.648 250.922 163.817C247.484 169.108 243.532 174.046 239.122 178.559C234.432 183.342 229.332 187.704 223.88 191.596C217.948 195.823 211.712 199.604 205.222 202.909C198.068 206.548 190.697 209.747 183.153 212.488C181.253 213.188 179.284 213.809 177.382 214.412C174.285 215.33 171.242 216.424 168.27 217.689C161.516 220.775 154.5 223.251 147.305 225.089C141.146 226.668 134.819 227.497 128.461 227.558ZM233.248 52.167C225.443 52.167 216.32 55.557 206.134 62.242C196.042 68.866 184.69 75.46 171.429 82.402C159.61 88.585 147.406 94.467 135.603 100.157C122.047 106.691 108.029 113.448 94.5509 120.689C80.8149 128.068 73.7199 132.689 70.5559 139C67.1919 145.707 68.2979 154.634 71.5149 168.76C80.1259 206.572 99.8149 226.56 128.461 226.56C140.161 226.56 153.418 223.27 167.861 216.78C170.868 215.499 173.947 214.391 177.081 213.462C178.972 212.862 180.927 212.242 182.81 211.552C245.884 188.446 272.658 147.043 262.388 88.491C260.305 76.616 256.76 67.491 251.851 61.371C246.942 55.251 240.692 52.167 233.248 52.167Z" fill="#272258" fill-opacity="0.32"/>
<path d="M59.0382 180.074C52.2572 150.297 55.6092 145.803 82.3252 131.451C119.279 111.601 158.489 96.2453 193.87 73.0243C224.795 52.7243 244.553 63.4843 250.889 99.6053C261.189 158.331 234.233 200.055 170.989 223.223C166.043 225.034 160.853 226.289 156.073 228.438C105.489 251.167 71.3662 234.206 59.0382 180.074Z" fill="#272258" fill-opacity="0.12"/>
<path d="M72.5278 44.9622L81.9848 122.416C82.1577 123.377 82.1394 124.363 81.9312 125.318C81.723 126.272 81.3289 127.176 80.7714 127.978C80.2139 128.78 79.5039 129.464 78.6819 129.991C77.8599 130.519 76.9421 130.879 75.9808 131.052C75.0196 131.225 74.0337 131.207 73.0794 130.999C72.1252 130.79 71.2213 130.396 70.4194 129.839C69.6174 129.281 68.9332 128.571 68.4056 127.749C67.8781 126.927 67.5177 126.009 67.3448 125.048C67.3268 124.948 67.3118 124.84 67.2978 124.735L47.8398 46.8672C47.4623 45.2961 47.4004 43.6658 47.6578 42.0706C47.9152 40.4755 48.4868 38.9473 49.3394 37.5747C50.1919 36.2022 51.3085 35.0125 52.6244 34.0748C53.9402 33.1371 55.4292 32.47 57.0048 32.1122C57.2338 32.0582 57.4628 32.0122 57.6938 31.9682C60.7341 31.2537 63.9335 31.7661 66.5985 33.3945C69.2635 35.0228 71.1794 37.6359 71.9308 40.6672C72.0437 41.1421 72.1259 41.6238 72.1768 42.1092" fill="#CC092F"/>
<path d="M67.1019 155.267C66.5283 151.703 67.3883 148.057 69.4938 145.125C71.5994 142.193 74.7795 140.213 78.3399 139.618C81.7333 138.836 85.2979 139.424 88.2611 141.253C91.2243 143.082 93.3472 146.005 94.1699 149.389C94.1989 149.518 94.2269 149.647 94.2529 149.776C94.8261 153.34 93.9661 156.986 91.8605 159.917C89.755 162.849 86.575 164.829 83.0148 165.425C79.6103 166.208 76.0342 165.618 73.0618 163.782C70.0894 161.947 67.9602 159.014 67.1358 155.619C67.1098 155.508 67.0859 155.397 67.0629 155.285" fill="#CC092F"/>
<path d="M121.947 237.723L198.894 238.312C201.012 238.338 203.056 237.529 204.583 236.06C206.11 234.592 206.999 232.582 207.057 230.464L208.122 80.7751C208.106 78.6583 207.258 76.6327 205.761 75.1359C204.264 73.6391 202.239 72.7911 200.122 72.7751L123.174 72.1861C121.055 72.1609 119.012 72.9698 117.485 74.4381C115.958 75.9064 115.07 77.9164 115.012 80.0341L113.949 229.724C113.945 230.776 114.149 231.818 114.549 232.79C114.949 233.762 115.538 234.646 116.282 235.389C117.025 236.133 117.909 236.722 118.881 237.123C119.853 237.523 120.895 237.727 121.947 237.723Z" fill="#CFCFCD"/>
<path d="M137.573 104.657L168.79 104.857C169.152 104.868 169.504 104.736 169.771 104.49C170.037 104.244 170.196 103.904 170.215 103.542L170.187 101.923C170.191 101.56 170.054 101.21 169.803 100.949C169.552 100.687 169.208 100.534 168.846 100.523L137.63 100.323C137.268 100.312 136.916 100.444 136.649 100.69C136.383 100.936 136.223 101.276 136.205 101.638L136.232 103.257C136.244 103.614 136.387 103.955 136.635 104.213C136.882 104.472 137.216 104.629 137.573 104.657Z" fill="#212049" stroke="#212049" stroke-width="0.107" stroke-miterlimit="10"/>
<path d="M157.519 230.249C160.185 230.249 162.346 228.13 162.346 225.516C162.346 222.902 160.185 220.783 157.519 220.783C154.853 220.783 152.692 222.902 152.692 225.516C152.692 228.13 154.853 230.249 157.519 230.249Z" fill="#212049" stroke="#212049" stroke-width="0.643" stroke-miterlimit="10"/>
<path d="M125.607 212.267L179.733 212.667C180.596 212.669 181.425 212.33 182.039 211.724C182.653 211.117 183.002 210.292 183.01 209.429L183.753 113.64C183.738 112.777 183.383 111.955 182.765 111.353C182.147 110.751 181.316 110.418 180.453 110.427L126.419 110.051C125.556 110.048 124.727 110.387 124.113 110.994C123.499 111.601 123.15 112.426 123.142 113.289L122.489 209.097C122.471 209.513 122.539 209.929 122.688 210.319C122.838 210.708 123.066 211.063 123.358 211.36C123.651 211.657 124.002 211.891 124.388 212.047C124.775 212.203 125.19 212.278 125.607 212.267Z" stroke="#212049" stroke-width="0.557" stroke-miterlimit="10"/>
<path d="M107.674 247.743L184.621 248.332C186.739 248.357 188.783 247.548 190.31 246.08C191.837 244.612 192.726 242.602 192.784 240.484L193.847 90.7946C193.831 88.6779 192.983 86.6525 191.486 85.1557C189.989 83.6589 187.964 82.8109 185.847 82.7946L108.899 82.2056C106.781 82.1807 104.738 82.9897 103.21 84.4579C101.683 85.9262 100.795 87.936 100.737 90.0536L99.6739 239.744C99.6697 240.795 99.8737 241.837 100.274 242.81C100.675 243.782 101.264 244.666 102.008 245.41C102.751 246.153 103.635 246.742 104.607 247.143C105.58 247.543 106.622 247.747 107.674 247.743Z" stroke="#212049" stroke-width="0.74" stroke-miterlimit="10"/>
<g opacity="0.434">
<g opacity="0.96">
<mask id="mask0_55_8987" style="mask-type:luminance" maskUnits="userSpaceOnUse" x="133" y="142" width="42" height="41">
<path d="M174.437 142.386H133.644V182.174H174.437V142.386Z" fill="white"/>
</mask>
<g mask="url(#mask0_55_8987)">
<path d="M166.773 148.904C165.884 148.404 164.945 147.997 163.973 147.689L163.256 147.47C163.017 147.405 162.778 147.354 162.539 147.295C162.061 147.164 161.584 147.095 161.109 146.995C159.275 146.698 157.413 146.612 155.559 146.737C153.814 146.842 152.088 147.145 150.412 147.642C148.8 148.1 147.254 148.765 145.812 149.62C144.375 150.45 143.068 151.488 141.934 152.7C140.776 153.972 139.786 155.388 138.99 156.914C138.77 157.304 138.572 157.707 138.399 158.121L138.125 158.746C138.026 158.954 137.94 159.168 137.867 159.387L137.393 160.711C137.261 161.175 137.137 161.645 136.993 162.105C136.5 164.11 136.15 166.147 135.944 168.202V168.234C135.878 168.818 135.374 169.012 134.819 168.666C134.585 168.51 134.387 168.308 134.235 168.072C134.084 167.836 133.982 167.571 133.938 167.294C133.601 164.841 133.557 162.357 133.808 159.894C133.88 159.317 133.969 158.749 134.05 158.174L134.422 156.54C134.692 155.505 135.044 154.493 135.474 153.514C136.262 151.696 137.352 150.025 138.696 148.57C139.962 147.197 141.434 146.03 143.059 145.111C144.69 144.203 146.433 143.515 148.244 143.064C150.141 142.609 152.085 142.381 154.036 142.386C156.161 142.392 158.277 142.66 160.336 143.186C161.479 143.478 162.598 143.858 163.682 144.322C164.915 144.846 166.089 145.502 167.182 146.277C167.526 146.522 167.8 146.852 167.977 147.235C168.155 147.618 168.229 148.041 168.193 148.462C168.063 149.12 167.463 149.31 166.816 148.93L166.773 148.904Z" fill="#222346"/>
<path d="M168.226 149.621L166.292 143.488C166.241 143.33 166.25 143.158 166.317 143.006C166.384 142.854 166.505 142.732 166.657 142.663C166.726 142.625 166.803 142.604 166.882 142.599C166.961 142.594 167.039 142.606 167.113 142.635C167.187 142.663 167.253 142.707 167.308 142.764C167.363 142.821 167.405 142.888 167.431 142.963L170.091 148.687C170.192 148.951 170.189 149.244 170.082 149.505C169.975 149.767 169.771 149.978 169.514 150.095C169.401 150.165 169.274 150.209 169.142 150.222C169.011 150.236 168.877 150.219 168.753 150.173C168.629 150.127 168.516 150.054 168.425 149.958C168.333 149.862 168.265 149.746 168.225 149.62" fill="#222346"/>
<path d="M168.774 150.332L163.193 149.326C163.126 149.319 163.061 149.297 163.003 149.262C162.946 149.227 162.897 149.18 162.86 149.123C162.824 149.066 162.801 149.002 162.792 148.935C162.784 148.868 162.791 148.8 162.813 148.737C162.856 148.594 162.948 148.472 163.072 148.39C163.196 148.309 163.345 148.274 163.493 148.292L169.219 148.612C169.334 148.616 169.446 148.647 169.546 148.702C169.647 148.757 169.733 148.835 169.798 148.929C169.863 149.024 169.905 149.132 169.921 149.246C169.937 149.359 169.927 149.475 169.89 149.584C169.83 149.825 169.682 150.035 169.476 150.173C169.269 150.312 169.02 150.368 168.774 150.332Z" fill="#222346"/>
<path d="M141.809 176.071C142.715 176.539 143.667 176.912 144.65 177.186L145.374 177.379C145.615 177.435 145.856 177.479 146.097 177.528C146.58 177.643 147.058 177.693 147.537 177.774C149.379 178.005 151.242 178.026 153.089 177.835C154.828 177.668 156.543 177.304 158.2 176.748C159.795 176.233 161.317 175.514 162.728 174.608C164.134 173.727 165.403 172.644 166.494 171.393C167.607 170.081 168.547 168.63 169.289 167.077C169.496 166.679 169.679 166.269 169.837 165.849L170.089 165.215C170.18 165.003 170.259 164.786 170.324 164.565L170.75 163.225C170.866 162.757 170.973 162.283 171.098 161.817C171.52 159.797 171.799 157.75 171.933 155.691V155.659C171.978 155.073 172.474 154.859 173.042 155.187C173.281 155.334 173.486 155.529 173.646 155.76C173.806 155.99 173.917 156.251 173.971 156.526C174.395 158.965 174.527 161.445 174.364 163.915C174.312 164.494 174.243 165.065 174.183 165.642L173.87 167.288C173.636 168.332 173.321 169.356 172.926 170.35C172.202 172.195 171.172 173.904 169.879 175.406C168.662 176.823 167.233 178.042 165.641 179.018C164.045 179.983 162.328 180.732 160.536 181.247C158.655 181.77 156.719 182.067 154.768 182.131C152.643 182.201 150.517 182.008 148.44 181.556C147.287 181.305 146.155 180.966 145.055 180.54C143.805 180.06 142.61 179.446 141.492 178.71C141.14 178.478 140.855 178.158 140.664 177.782C140.474 177.406 140.385 176.986 140.406 176.565C140.513 175.902 141.106 175.691 141.766 176.048L141.809 176.071Z" fill="#222346"/>
<path d="M140.377 175.05L141.688 181.35C141.723 181.512 141.696 181.682 141.614 181.827C141.532 181.971 141.399 182.08 141.242 182.134C141.169 182.164 141.091 182.178 141.012 182.175C140.933 182.172 140.856 182.152 140.786 182.116C140.715 182.081 140.653 182.03 140.604 181.969C140.556 181.907 140.521 181.835 140.502 181.759L138.43 175.794C138.354 175.52 138.387 175.229 138.52 174.978C138.652 174.728 138.876 174.538 139.145 174.448C139.264 174.39 139.394 174.359 139.526 174.359C139.659 174.359 139.789 174.39 139.908 174.448C140.027 174.506 140.131 174.59 140.212 174.694C140.293 174.799 140.35 174.92 140.377 175.05Z" fill="#222346"/>
<path d="M139.904 174.287L145.361 175.848C145.427 175.862 145.489 175.89 145.542 175.93C145.595 175.971 145.639 176.023 145.669 176.083C145.7 176.143 145.716 176.209 145.718 176.276C145.719 176.344 145.705 176.41 145.677 176.471C145.62 176.609 145.516 176.722 145.384 176.79C145.252 176.859 145.1 176.879 144.955 176.846L139.289 175.954C139.175 175.938 139.067 175.896 138.973 175.831C138.878 175.766 138.8 175.68 138.745 175.58C138.689 175.48 138.658 175.368 138.653 175.253C138.649 175.139 138.671 175.025 138.718 174.92C138.802 174.686 138.969 174.492 139.189 174.375C139.408 174.258 139.663 174.226 139.904 174.287Z" fill="#222346"/>
</g>
</g>
<g opacity="0.96">
<mask id="mask1_55_8987" style="mask-type:luminance" maskUnits="userSpaceOnUse" x="132" y="140" width="42" height="41">
<path d="M173.791 140.692H132.998V180.48H173.791V140.692Z" fill="white"/>
</mask>
<g mask="url(#mask1_55_8987)">
<path d="M166.127 147.21C165.238 146.711 164.299 146.304 163.327 145.995L162.61 145.776C162.371 145.711 162.132 145.66 161.893 145.601C161.415 145.47 160.938 145.401 160.463 145.301C158.629 145.005 156.767 144.918 154.913 145.043C153.168 145.148 151.442 145.452 149.766 145.948C148.154 146.407 146.608 147.072 145.166 147.926C143.729 148.757 142.422 149.795 141.288 151.006C140.13 152.279 139.14 153.695 138.344 155.22C138.124 155.611 137.926 156.014 137.753 156.427L137.479 157.052C137.38 157.261 137.294 157.475 137.221 157.693L136.747 159.017C136.615 159.481 136.491 159.951 136.347 160.411C135.854 162.417 135.504 164.454 135.298 166.508V166.54C135.232 167.124 134.728 167.318 134.173 166.972C133.939 166.817 133.741 166.615 133.589 166.378C133.438 166.142 133.336 165.878 133.292 165.6C132.955 163.148 132.911 160.664 133.162 158.2C133.234 157.623 133.323 157.055 133.404 156.48L133.776 154.846C134.046 153.812 134.398 152.8 134.828 151.82C135.616 150.003 136.705 148.331 138.05 146.876C139.316 145.504 140.788 144.337 142.413 143.417C144.044 142.51 145.787 141.822 147.598 141.37C149.495 140.915 151.439 140.688 153.39 140.692C155.515 140.698 157.631 140.967 159.69 141.492C160.833 141.784 161.952 142.164 163.036 142.628C164.269 143.153 165.443 143.808 166.536 144.583C166.88 144.828 167.154 145.159 167.331 145.542C167.509 145.925 167.583 146.348 167.547 146.768C167.417 147.426 166.817 147.616 166.17 147.236L166.127 147.21Z" fill="#DDDCDB"/>
<path d="M167.58 147.927L165.646 141.795C165.595 141.636 165.604 141.465 165.672 141.313C165.739 141.161 165.86 141.039 166.011 140.971C166.081 140.933 166.157 140.911 166.236 140.906C166.315 140.901 166.394 140.914 166.467 140.942C166.541 140.971 166.607 141.015 166.662 141.071C166.717 141.128 166.759 141.196 166.785 141.271L169.445 146.995C169.546 147.258 169.543 147.551 169.435 147.812C169.328 148.074 169.125 148.284 168.868 148.402C168.756 148.472 168.628 148.515 168.497 148.529C168.365 148.542 168.231 148.525 168.107 148.48C167.982 148.434 167.87 148.36 167.779 148.264C167.687 148.168 167.619 148.052 167.579 147.926" fill="#DDDCDB"/>
<path d="M168.128 148.638L162.547 147.632C162.48 147.625 162.415 147.604 162.358 147.569C162.3 147.533 162.252 147.486 162.215 147.429C162.179 147.373 162.156 147.308 162.147 147.242C162.139 147.175 162.146 147.107 162.168 147.043C162.211 146.901 162.302 146.779 162.427 146.697C162.551 146.616 162.7 146.581 162.847 146.598L168.573 146.918C168.688 146.922 168.8 146.953 168.9 147.008C169.001 147.063 169.088 147.141 169.153 147.236C169.218 147.33 169.26 147.438 169.276 147.552C169.292 147.666 169.282 147.781 169.245 147.89C169.185 148.131 169.037 148.342 168.831 148.48C168.624 148.618 168.374 148.675 168.128 148.638Z" fill="#DDDCDB"/>
<path d="M141.164 174.378C142.071 174.845 143.023 175.219 144.005 175.493L144.729 175.686C144.97 175.742 145.211 175.786 145.452 175.835C145.935 175.95 146.413 176 146.892 176.081C148.734 176.312 150.597 176.332 152.444 176.142C154.183 175.975 155.898 175.61 157.555 175.055C159.15 174.54 160.672 173.82 162.083 172.915C163.489 172.034 164.758 170.95 165.849 169.7C166.962 168.387 167.902 166.937 168.644 165.384C168.851 164.986 169.034 164.576 169.192 164.156L169.444 163.522C169.535 163.31 169.614 163.093 169.679 162.872L170.105 161.532C170.221 161.064 170.328 160.59 170.453 160.124C170.875 158.104 171.155 156.057 171.289 153.998V153.966C171.334 153.38 171.83 153.166 172.398 153.494C172.637 153.641 172.842 153.836 173.002 154.066C173.162 154.297 173.273 154.558 173.327 154.833C173.751 157.271 173.883 159.752 173.72 162.222C173.668 162.801 173.599 163.372 173.539 163.949L173.226 165.595C172.993 166.639 172.677 167.663 172.282 168.657C171.558 170.502 170.528 172.211 169.235 173.713C168.019 175.13 166.589 176.348 164.997 177.325C163.401 178.289 161.684 179.039 159.892 179.554C158.011 180.077 156.075 180.373 154.124 180.438C151.999 180.508 149.874 180.315 147.796 179.863C146.643 179.612 145.511 179.272 144.411 178.847C143.161 178.366 141.967 177.753 140.848 177.017C140.496 176.785 140.211 176.465 140.02 176.088C139.829 175.712 139.74 175.293 139.761 174.872C139.868 174.209 140.461 173.998 141.121 174.355L141.164 174.378Z" fill="#DDDCDB"/>
<path d="M139.731 173.356L141.042 179.656C141.077 179.819 141.05 179.989 140.968 180.133C140.886 180.278 140.753 180.387 140.596 180.44C140.523 180.471 140.445 180.485 140.366 180.482C140.287 180.479 140.21 180.459 140.14 180.423C140.069 180.387 140.007 180.337 139.958 180.275C139.91 180.214 139.875 180.142 139.856 180.065L137.784 174.1C137.708 173.827 137.741 173.535 137.874 173.285C138.006 173.035 138.23 172.845 138.499 172.754C138.618 172.696 138.748 172.666 138.88 172.666C139.013 172.666 139.143 172.696 139.262 172.754C139.381 172.812 139.485 172.897 139.566 173.001C139.647 173.105 139.704 173.227 139.731 173.356Z" fill="#DDDCDB"/>
<path d="M139.259 172.594L144.716 174.155C144.782 174.168 144.843 174.197 144.897 174.237C144.95 174.278 144.993 174.33 145.024 174.39C145.054 174.45 145.071 174.516 145.072 174.583C145.073 174.65 145.06 174.717 145.032 174.778C144.975 174.915 144.871 175.028 144.739 175.096C144.607 175.164 144.455 175.184 144.31 175.152L138.643 174.261C138.529 174.245 138.421 174.203 138.327 174.138C138.232 174.073 138.154 173.987 138.099 173.887C138.044 173.786 138.012 173.674 138.008 173.56C138.003 173.445 138.026 173.331 138.073 173.227C138.157 172.993 138.324 172.798 138.544 172.681C138.763 172.564 139.018 172.533 139.259 172.594Z" fill="#DDDCDB"/>
</g>
</g>
<path d="M137.367 154.197C138.163 152.672 139.153 151.255 140.311 149.983C141.445 148.772 142.752 147.734 144.189 146.904C145.631 146.049 147.177 145.384 148.789 144.926C150.465 144.429 152.191 144.125 153.936 144.02C155.79 143.895 157.652 143.981 159.486 144.278C159.961 144.378 160.438 144.444 160.916 144.578C161.155 144.638 161.394 144.689 161.633 144.753L162.35 144.972C162.985 145.183 163.609 145.429 164.218 145.707L161.872 145.576C161.724 145.558 161.575 145.593 161.451 145.674C161.326 145.755 161.235 145.878 161.192 146.02C161.17 146.084 161.163 146.151 161.171 146.218C161.179 146.285 161.202 146.349 161.238 146.405C161.274 146.462 161.322 146.51 161.38 146.545C161.437 146.58 161.501 146.602 161.568 146.609L167.152 147.615C167.316 147.644 167.484 147.629 167.64 147.571C167.796 147.513 167.934 147.415 168.04 147.287C168.255 147.152 168.416 146.945 168.494 146.704C168.572 146.462 168.564 146.201 168.469 145.965L165.809 140.241C165.783 140.167 165.741 140.099 165.686 140.042C165.631 139.985 165.565 139.941 165.491 139.913C165.418 139.884 165.339 139.872 165.26 139.877C165.181 139.882 165.104 139.904 165.035 139.941C164.883 140.01 164.762 140.132 164.695 140.284C164.628 140.436 164.619 140.608 164.67 140.766L165.546 143.544C164.458 142.773 163.291 142.12 162.064 141.598C160.981 141.135 159.863 140.756 158.722 140.465C156.663 139.94 154.547 139.671 152.422 139.665C150.469 139.66 148.522 139.888 146.622 140.344C144.811 140.795 143.068 141.483 141.438 142.391C139.812 143.31 138.34 144.477 137.074 145.85C135.729 147.305 134.639 148.977 133.85 150.795C133.42 151.774 133.068 152.786 132.797 153.821L132.422 155.456C132.341 156.031 132.251 156.598 132.18 157.176C131.929 159.639 131.972 162.123 132.31 164.576C132.354 164.853 132.456 165.118 132.607 165.354C132.759 165.59 132.958 165.792 133.191 165.948C133.747 166.294 134.251 166.1 134.316 165.516V165.484C134.522 163.431 134.872 161.396 135.364 159.392C135.506 158.931 135.63 158.461 135.764 157.997L136.238 156.673C136.311 156.455 136.397 156.24 136.496 156.032L136.771 155.407C136.946 154.992 137.145 154.588 137.367 154.197Z" stroke="#202445" stroke-width="0.75" stroke-linecap="round" stroke-linejoin="round"/>
<path d="M172.355 153.807C172.301 153.531 172.19 153.27 172.03 153.04C171.87 152.809 171.665 152.614 171.426 152.467C170.855 152.141 170.355 152.352 170.314 152.939V152.971C170.181 155.03 169.903 157.077 169.483 159.097C169.358 159.562 169.251 160.037 169.135 160.504L168.709 161.844C168.644 162.065 168.565 162.282 168.473 162.494L168.221 163.128C168.063 163.548 167.88 163.958 167.673 164.356C166.931 165.908 165.993 167.359 164.88 168.672C163.789 169.922 162.52 171.006 161.114 171.888C159.703 172.793 158.181 173.513 156.586 174.028C154.928 174.583 153.212 174.948 151.472 175.114C149.623 175.305 147.759 175.285 145.915 175.054C145.436 174.973 144.957 174.923 144.475 174.808C144.235 174.757 143.993 174.715 143.753 174.658L143.029 174.465C142.362 174.269 141.707 174.035 141.067 173.765L143.332 174.121C143.477 174.153 143.629 174.134 143.761 174.065C143.893 173.997 143.997 173.884 144.054 173.747C144.082 173.686 144.096 173.619 144.094 173.552C144.093 173.485 144.077 173.419 144.046 173.359C144.016 173.299 143.972 173.247 143.919 173.206C143.866 173.165 143.804 173.137 143.738 173.124L138.282 171.567C138.122 171.522 137.952 171.521 137.791 171.562C137.63 171.604 137.483 171.688 137.365 171.805C137.139 171.918 136.959 172.107 136.858 172.339C136.756 172.571 136.738 172.83 136.808 173.074L138.881 179.035C138.9 179.111 138.935 179.183 138.984 179.245C139.033 179.307 139.095 179.357 139.165 179.393C139.235 179.429 139.313 179.449 139.392 179.452C139.47 179.454 139.549 179.44 139.622 179.41C139.779 179.357 139.912 179.247 139.994 179.103C140.076 178.958 140.102 178.788 140.067 178.626L139.441 175.614C139.569 175.757 139.714 175.884 139.873 175.992C140.992 176.727 142.186 177.341 143.436 177.822C144.536 178.247 145.668 178.587 146.821 178.838C148.898 179.29 151.024 179.483 153.149 179.413C155.1 179.349 157.036 179.052 158.917 178.53C160.709 178.014 162.426 177.264 164.022 176.3C165.612 175.323 167.04 174.104 168.255 172.688C169.548 171.186 170.578 169.476 171.302 167.631C171.697 166.637 172.013 165.613 172.246 164.569L172.559 162.923C172.62 162.346 172.689 161.775 172.74 161.195C172.905 158.726 172.776 156.245 172.355 153.807Z" stroke="#202445" stroke-width="0.75" stroke-linecap="round" stroke-linejoin="round"/>
</g>
</g>
<defs>
<clipPath id="clip0_55_8987">
<rect width="312" height="280" fill="white" transform="translate(0.5)"/>
</clipPath>
</defs>
</svg>
