<svg width="230" height="190" viewBox="0 0 230 190" fill="none" xmlns="http://www.w3.org/2000/svg">
<path d="M97.1727 178.531C89.4448 178.635 81.7996 176.929 74.8485 173.55C58.5305 165.45 47.2119 147.709 41.2069 120.815C34.5339 90.9332 38.1827 86.4903 63.9447 72.3783C76.9827 65.2353 90.5307 58.5783 103.634 52.1333C126.413 40.9333 149.967 29.3572 171.634 14.8532C185.934 5.28423 197.995 2.49823 207.489 6.57223C217.519 10.8722 224.243 22.5812 227.473 41.3642C237.485 99.5752 211.416 140.726 149.99 163.674C148.152 164.361 146.254 164.974 144.418 165.574C141.425 166.479 138.486 167.557 135.618 168.802C121.468 175.282 108.613 178.531 97.1727 178.531ZM42.1825 120.597C48.1185 147.182 59.2588 164.697 75.2938 172.654C91.0648 180.482 111.222 178.878 135.203 167.887C138.107 166.626 141.081 165.534 144.112 164.617C145.938 164.027 147.825 163.417 149.642 162.737C210.553 139.981 236.408 99.2032 226.49 41.5372C223.32 23.1092 216.795 11.6552 207.097 7.49423C197.934 3.56223 186.19 6.31922 172.197 15.6872C150.473 30.2282 126.887 41.8223 104.079 53.0343C90.9865 59.4703 77.4486 66.1263 64.4296 73.2583C38.8676 87.2583 35.6299 91.2152 42.1879 120.6L42.1825 120.597Z" fill="#272258" fill-opacity="0.32"/>
<path d="M30.113 131.741C23.564 102.413 26.8012 97.9858 52.6042 83.8508C88.2932 64.2988 126.162 49.1748 160.333 26.3028C190.2 6.31283 209.282 16.9029 215.401 52.4839C225.35 110.325 199.315 151.421 138.236 174.24C133.459 176.025 128.447 177.261 123.83 179.377C74.9778 201.767 42.022 185.058 30.113 131.741Z" fill="#272258" fill-opacity="0.12"/>
<path d="M90.5317 25.933C90.53 23.7555 90.0082 21.6101 89.0098 19.675C87.1686 18.5532 85.0746 17.9131 82.9209 17.814C85.0935 17.9729 87.2658 17.5033 89.1787 16.4611C90.3745 14.6543 91.0205 12.5396 91.0386 10.373C90.9966 12.5771 91.5839 14.7475 92.731 16.63C93.745 17.645 96.6208 18.322 98.8188 18.491C96.6462 18.3321 94.474 18.8018 92.561 19.844C91.4121 21.6844 90.7164 23.7713 90.5317 25.933Z" fill="#FFD543"/>
<path d="M61.3208 146.674C61.3847 145.325 61.0927 143.984 60.4746 142.784C59.3284 142.139 58.0622 141.736 56.7539 141.6C58.0497 141.683 59.3416 141.389 60.4746 140.755C61.2176 139.654 61.6287 138.362 61.6587 137.034C61.5715 138.406 61.9274 139.769 62.6738 140.924C63.7908 141.613 65.0829 141.965 66.395 141.939C65.0468 141.875 63.7053 142.167 62.5049 142.784C61.7833 143.958 61.3755 145.297 61.3208 146.674Z" fill="#FFD543"/>
<path d="M25.3286 13.8369L36.6006 90.5119C36.9782 92.4373 36.5757 94.4339 35.4815 96.0625C34.3873 97.6912 32.6909 98.8186 30.7657 99.1969C28.8619 99.5718 26.8873 99.1803 25.2705 98.1076C23.6537 97.0349 22.5255 95.3677 22.1309 93.4679C22.1099 93.3679 22.0917 93.2619 22.0767 93.1579L0.86576 16.3089C0.452245 14.7589 0.350819 13.1422 0.56742 11.5526C0.784021 9.96312 1.31431 8.43244 2.12748 7.04959C2.94065 5.66674 4.02045 4.45933 5.30424 3.49735C6.58802 2.53536 8.05044 1.83801 9.60599 1.44589C9.83099 1.38689 10.0577 1.3329 10.2867 1.2869C13.2889 0.507177 16.4773 0.940903 19.1621 2.49423C21.847 4.04756 23.8124 6.59562 24.6328 9.58695C24.7559 10.0559 24.8485 10.5322 24.9107 11.013" fill="#CC092F"/>
<path d="M22.624 123.478C21.9668 119.955 22.7313 116.314 24.751 113.353C26.7706 110.393 29.8807 108.352 33.4009 107.678C36.7527 106.824 40.3058 107.324 43.2915 109.071C46.2772 110.817 48.4554 113.669 49.354 117.009C49.387 117.136 49.4168 117.263 49.4458 117.391C50.103 120.914 49.3379 124.555 47.3183 127.515C45.2987 130.476 42.1891 132.517 38.6689 133.191C35.3065 134.046 31.7423 133.543 28.748 131.79C25.7537 130.038 23.5701 127.177 22.6689 123.827C22.6409 123.717 22.6142 123.607 22.5888 123.497" fill="#CC092F"/>
<path d="M128.12 154.318C128.183 152.97 127.892 151.628 127.275 150.428C126.129 149.783 124.862 149.38 123.554 149.244C124.85 149.326 126.142 149.033 127.275 148.399C128.017 147.297 128.428 146.006 128.459 144.678C128.372 146.05 128.727 147.413 129.473 148.568C130.59 149.257 131.882 149.609 133.194 149.582C131.846 149.519 130.504 149.811 129.304 150.428C128.583 151.602 128.175 152.941 128.12 154.318Z" fill="#FFD543"/>
<path d="M145.322 131.338C145.386 129.99 145.094 128.648 144.476 127.448C143.329 126.803 142.063 126.4 140.755 126.264C142.051 126.347 143.343 126.053 144.476 125.419C145.219 124.318 145.63 123.026 145.66 121.698C145.572 123.07 145.928 124.434 146.675 125.588C147.792 126.277 149.084 126.63 150.396 126.603C149.048 126.54 147.706 126.831 146.506 127.448C145.784 128.622 145.376 129.961 145.322 131.338Z" fill="#FFD543"/>
<path d="M78.7668 79.0669C77.7469 82.3939 77.4 85.8907 77.7463 89.3533C78.0926 92.8159 79.1252 96.1748 80.7839 99.2339C82.4425 102.293 84.6942 104.991 87.4069 107.171C90.1197 109.35 93.2395 110.967 96.5842 111.928C110.725 116.087 125.855 108.328 130.097 94.4569C131.103 91.1297 131.439 87.636 131.087 84.1779C130.734 80.7198 129.699 77.3659 128.043 74.3101C126.386 71.2543 124.14 68.5574 121.434 66.375C118.729 64.1927 115.617 62.5683 112.28 61.5959H112.139C105.397 59.5174 98.1063 60.1873 91.8557 63.4596C85.605 66.732 80.9002 72.3418 78.7668 79.0669ZM120.34 82.1169C120.914 84.1616 121.076 86.3001 120.817 88.408C120.557 90.5159 119.882 92.5512 118.829 94.3959C117.777 96.2406 116.369 97.8578 114.686 99.1537C113.004 100.45 111.08 101.398 109.028 101.945C104.876 103.15 100.415 102.659 96.6237 100.58C92.8329 98.5 90.0215 95.0017 88.8068 90.852C88.7734 90.6183 88.7259 90.3869 88.6647 90.159C87.7328 86.1094 88.3859 81.8567 90.4894 78.273C92.593 74.6893 95.9881 72.0463 99.9782 70.8859C104.112 69.6835 108.553 70.1592 112.338 72.2098C116.123 74.2603 118.948 77.7205 120.199 81.8399C120.279 81.911 120.33 82.01 120.34 82.1169Z" fill="#36DC62"/>
<path d="M151.873 101.529C152.297 100.142 152.722 98.6171 153.146 97.0921C153.338 96.2379 153.248 95.3447 152.891 94.5453C152.535 93.746 151.93 93.0831 151.166 92.6551L148.338 91.1301C147.695 90.7727 147.159 90.2499 146.786 89.6159C146.413 88.9819 146.217 88.2597 146.217 87.5241V85.7241C146.187 84.9829 146.371 84.2488 146.747 83.6096C147.123 82.9703 147.676 82.4528 148.338 82.1191L151.166 80.594C151.939 80.1763 152.552 79.5147 152.91 78.7122C153.268 77.9098 153.352 77.0114 153.146 76.157C153.024 75.402 152.834 74.6594 152.58 73.938C152.297 73.245 152.156 72.413 151.873 71.72C151.59 70.899 151.055 70.1886 150.344 69.6905C149.633 69.1923 148.782 68.9321 147.914 68.9471H144.803C144.062 68.9526 143.332 68.7634 142.687 68.3984C142.041 68.0333 141.503 67.5053 141.126 66.867C140.88 66.3089 140.546 65.7941 140.137 65.3421C139.722 64.7278 139.5 64.0034 139.5 63.262C139.5 62.5207 139.722 61.7963 140.137 61.1821L141.692 58.548C142.158 57.7935 142.355 56.9039 142.252 56.0232C142.149 55.1425 141.753 54.3222 141.126 53.695C140.113 52.5623 139.027 51.4971 137.874 50.506C137.236 49.9059 136.415 49.5384 135.542 49.4629C134.67 49.3875 133.797 49.6083 133.066 50.09L130.38 51.7541C129.748 52.1614 129.011 52.378 128.259 52.378C127.507 52.378 126.77 52.1614 126.138 51.7541C125.6 51.4624 125.081 51.138 124.582 50.783C123.921 50.4496 123.368 49.9329 122.992 49.2946C122.616 48.6563 122.432 47.9233 122.461 47.183V44.1331C122.466 43.2687 122.194 42.4254 121.685 41.7266C121.176 41.0279 120.457 40.5104 119.633 40.2501C118.219 39.8341 116.664 39.418 115.108 39.002C114.245 38.8099 113.344 38.8942 112.532 39.2427C111.72 39.5913 111.038 40.1864 110.583 40.944L109.028 43.7171C108.651 44.3552 108.113 44.883 107.467 45.2479C106.822 45.6127 106.092 45.8017 105.351 45.7961H103.372C102.625 45.8312 101.884 45.6546 101.234 45.2868C100.583 44.919 100.05 44.3749 99.695 43.7171L98.1399 40.944C97.7155 40.1916 97.0596 39.5961 96.2697 39.2463C95.4799 38.8964 94.5985 38.8107 93.7561 39.002C92.9423 39.1215 92.1398 39.3072 91.3562 39.5571C90.5082 39.8341 89.801 39.9731 89.094 40.2501C88.2696 40.5103 87.5501 41.0277 87.0412 41.7265C86.5323 42.4253 86.2606 43.2687 86.2658 44.1331V47.183C86.2648 47.9176 86.0679 48.6385 85.695 49.2714C85.3222 49.9043 84.7873 50.4262 84.1452 50.783C83.5786 51.0227 83.0534 51.3505 82.5891 51.7541C81.9566 52.1614 81.2202 52.378 80.468 52.378C79.7157 52.378 78.9793 52.1614 78.3469 51.7541L75.6599 50.09C74.9179 49.641 74.0527 49.4394 73.1887 49.5142C72.3247 49.589 71.507 49.9363 70.8532 50.506C69.7006 51.4971 68.6135 52.5623 67.5998 53.695C66.9965 54.3357 66.6161 55.1539 66.5144 56.028C66.4126 56.9022 66.5949 57.7858 67.0349 58.548L68.59 61.1821C69.0049 61.7964 69.2263 62.5207 69.2263 63.262C69.2263 64.0033 69.0049 64.7277 68.59 65.3421C68.307 65.8961 67.8828 66.451 67.5998 67.006C67.2226 67.644 66.6848 68.1717 66.0398 68.5366C65.3947 68.9014 64.6651 69.0905 63.924 69.085H60.8132C59.9449 69.0703 59.0942 69.3307 58.383 69.829C57.6718 70.3273 57.1368 71.038 56.8542 71.8591C56.4292 73.2451 56.0048 74.7701 55.5808 76.2951C55.3894 77.1493 55.4789 78.0424 55.8357 78.8417C56.1924 79.6411 56.7977 80.3041 57.5612 80.7321L60.3889 82.2581C61.031 82.6149 61.5663 83.1367 61.9392 83.7696C62.3121 84.4025 62.5091 85.1235 62.51 85.8581V87.658C62.539 88.3983 62.3543 89.1314 61.9782 89.7697C61.6022 90.408 61.0505 90.9247 60.3889 91.2581L57.7019 92.783C56.9288 93.2008 56.3158 93.8624 55.9577 94.6648C55.5996 95.4673 55.5165 96.3656 55.7219 97.22C55.844 97.9751 56.0334 98.7177 56.2878 99.439C56.4587 100.197 56.6953 100.94 56.9948 101.657C57.2776 102.478 57.813 103.188 58.5241 103.686C59.2353 104.185 60.0857 104.445 60.9538 104.43H64.0651C64.8117 104.395 65.5528 104.572 66.2033 104.94C66.8539 105.308 67.3872 105.852 67.7419 106.51C68.0239 107.065 68.4491 107.619 68.7321 108.174C69.1464 108.789 69.3679 109.513 69.3679 110.254C69.3679 110.995 69.1464 111.719 68.7321 112.334L67.176 114.968C66.7069 115.697 66.5067 116.566 66.6101 117.427C66.7134 118.287 67.1136 119.085 67.7419 119.682C68.7549 120.815 69.8412 121.88 70.9939 122.871C71.6338 123.46 72.444 123.831 73.3078 123.93C74.1716 124.03 75.0447 123.854 75.802 123.426L78.488 121.762C79.1204 121.355 79.8568 121.138 80.6091 121.138C81.3614 121.138 82.0978 121.355 82.7302 121.762C83.2661 122.137 83.8348 122.462 84.4299 122.733C85.0334 123.053 85.5377 123.532 85.8869 124.119C86.2362 124.706 86.4169 125.377 86.4099 126.06V129.401C86.4045 130.265 86.6763 131.109 87.1853 131.807C87.6942 132.506 88.4136 133.023 89.238 133.283C90.652 133.699 92.2079 134.115 93.7629 134.531C94.6254 134.723 95.5265 134.639 96.3386 134.291C97.1507 133.942 97.8325 133.347 98.2878 132.59L99.843 129.817C100.206 129.176 100.745 128.652 101.397 128.308C102.049 127.964 102.786 127.814 103.52 127.876H105.5C106.241 127.871 106.971 128.06 107.616 128.425C108.261 128.79 108.799 129.318 109.176 129.956L110.732 132.729C111.177 133.496 111.858 134.099 112.673 134.449C113.488 134.799 114.394 134.876 115.256 134.67C116.025 134.551 116.782 134.365 117.519 134.115C118.226 133.838 119.074 133.699 119.781 133.422C120.605 133.162 121.325 132.645 121.834 131.946C122.343 131.248 122.614 130.404 122.609 129.54V126.489C122.58 125.749 122.765 125.016 123.141 124.377C123.517 123.739 124.069 123.222 124.731 122.889C125.296 122.612 125.862 122.196 126.431 121.919C127.063 121.512 127.8 121.295 128.552 121.295C129.304 121.295 130.041 121.512 130.673 121.919L133.219 123.444C133.987 123.89 134.874 124.089 135.759 124.015C136.644 123.941 137.485 123.596 138.168 123.028C139.32 122.037 140.406 120.971 141.42 119.839C142.018 119.224 142.397 118.429 142.499 117.578C142.601 116.726 142.421 115.864 141.986 115.125L140.43 112.49C140.015 111.876 139.794 111.152 139.794 110.411C139.794 109.669 140.015 108.945 140.43 108.331C140.713 107.776 141.137 107.221 141.42 106.667C141.797 106.029 142.335 105.501 142.981 105.136C143.626 104.771 144.356 104.582 145.097 104.587H148.208C149.033 104.441 149.805 104.082 150.447 103.546C151.09 103.01 151.582 102.314 151.873 101.529ZM95.029 116.919C77.919 111.789 68.3029 94.1801 73.5349 77.5411C76.1316 69.4664 81.7948 62.7339 89.3054 58.7924C96.816 54.8509 105.574 54.0155 113.694 56.466C130.804 61.596 140.419 79.205 135.187 95.844C130.097 112.482 112.139 121.911 95.029 116.919Z" fill="#36DC62"/>
<path d="M127.756 158.262C127.3 159.748 127.144 161.31 127.299 162.857C127.453 164.404 127.914 165.904 128.655 167.271C129.396 168.638 130.402 169.843 131.614 170.816C132.825 171.79 134.219 172.512 135.714 172.941C138.733 173.856 141.992 173.552 144.79 172.094C147.588 170.636 149.703 168.14 150.683 165.141C151.132 163.655 151.283 162.094 151.125 160.55C150.968 159.005 150.505 157.507 149.765 156.142C149.025 154.777 148.023 153.572 146.814 152.597C145.606 151.622 144.216 150.897 142.725 150.462H142.662C139.651 149.533 136.395 149.832 133.603 151.293C130.811 152.753 128.709 155.258 127.756 158.262ZM146.325 159.624C146.582 160.537 146.655 161.493 146.539 162.434C146.423 163.376 146.121 164.285 145.651 165.109C145.181 165.933 144.552 166.655 143.8 167.234C143.048 167.813 142.189 168.237 141.273 168.481C139.418 169.019 137.425 168.8 135.731 167.871C134.038 166.942 132.782 165.38 132.24 163.526C132.225 163.422 132.204 163.319 132.177 163.217C131.76 161.408 132.052 159.509 132.991 157.908C133.931 156.307 135.447 155.126 137.23 154.608C139.076 154.07 141.06 154.283 142.751 155.199C144.442 156.115 145.704 157.661 146.262 159.501C146.298 159.532 146.321 159.576 146.325 159.624Z" fill="#36DC62"/>
<path d="M160.413 168.301C160.602 167.681 160.792 167.001 160.981 166.319C161.067 165.937 161.027 165.538 160.868 165.181C160.709 164.824 160.438 164.528 160.097 164.337L158.834 163.655C158.547 163.496 158.307 163.262 158.14 162.979C157.974 162.696 157.886 162.374 157.886 162.045V161.24C157.873 160.909 157.955 160.581 158.123 160.295C158.291 160.009 158.538 159.778 158.834 159.629L160.097 158.948C160.442 158.762 160.717 158.466 160.877 158.108C161.037 157.749 161.073 157.348 160.981 156.966C160.927 156.629 160.843 156.297 160.729 155.975C160.602 155.666 160.539 155.294 160.413 154.984C160.286 154.617 160.047 154.3 159.729 154.078C159.411 153.856 159.032 153.739 158.644 153.746H157.255C156.924 153.748 156.598 153.664 156.309 153.501C156.021 153.337 155.78 153.101 155.612 152.816C155.502 152.567 155.353 152.337 155.17 152.135C154.985 151.861 154.885 151.537 154.885 151.206C154.885 150.875 154.985 150.551 155.17 150.277L155.865 149.1C156.073 148.763 156.161 148.366 156.115 147.973C156.07 147.579 155.892 147.213 155.612 146.933C155.159 146.427 154.674 145.951 154.16 145.508C153.875 145.24 153.508 145.076 153.118 145.043C152.729 145.009 152.339 145.107 152.012 145.322L150.812 146.065C150.529 146.248 150.199 146.345 149.862 146.345C149.525 146.345 149.195 146.248 148.912 146.065C148.67 145.936 148.436 145.791 148.212 145.632C147.916 145.483 147.67 145.252 147.502 144.966C147.334 144.681 147.251 144.353 147.265 144.022V142.659C147.267 142.273 147.146 141.896 146.918 141.584C146.691 141.272 146.369 141.041 146.001 140.925C145.37 140.739 144.675 140.553 143.98 140.367C143.595 140.281 143.192 140.319 142.83 140.474C142.467 140.63 142.163 140.896 141.959 141.234L141.264 142.473C141.095 142.758 140.855 142.994 140.567 143.157C140.279 143.32 139.953 143.404 139.622 143.402H138.737C138.404 143.418 138.072 143.339 137.782 143.174C137.491 143.01 137.253 142.767 137.095 142.473L136.395 141.234C136.206 140.898 135.913 140.632 135.56 140.476C135.207 140.32 134.813 140.281 134.437 140.367C134.073 140.42 133.714 140.503 133.363 140.615C132.984 140.739 132.669 140.801 132.353 140.925C131.985 141.041 131.663 141.272 131.436 141.584C131.208 141.896 131.087 142.273 131.089 142.659V144.022C131.089 144.35 131.001 144.673 130.835 144.956C130.668 145.239 130.429 145.472 130.142 145.632C129.889 145.739 129.655 145.885 129.447 146.065C129.164 146.248 128.834 146.345 128.497 146.345C128.16 146.345 127.83 146.248 127.547 146.065L126.347 145.322C126.015 145.122 125.629 145.032 125.243 145.065C124.857 145.099 124.491 145.254 124.199 145.508C123.685 145.951 123.199 146.427 122.747 146.933C122.477 147.219 122.307 147.584 122.261 147.975C122.216 148.365 122.297 148.76 122.494 149.1L123.194 150.277C123.379 150.551 123.478 150.875 123.478 151.206C123.478 151.537 123.379 151.861 123.194 152.135C123.068 152.383 122.878 152.635 122.752 152.878C122.584 153.163 122.343 153.399 122.055 153.562C121.767 153.725 121.44 153.81 121.109 153.807H119.72C119.332 153.801 118.952 153.917 118.634 154.139C118.317 154.362 118.077 154.679 117.951 155.046C117.762 155.666 117.572 156.346 117.383 157.028C117.297 157.409 117.337 157.808 117.496 158.166C117.656 158.523 117.926 158.819 118.267 159.01L119.53 159.691C119.817 159.851 120.057 160.084 120.223 160.367C120.39 160.651 120.478 160.973 120.478 161.302V162.107C120.492 162.438 120.409 162.766 120.241 163.052C120.073 163.337 119.826 163.568 119.53 163.717L118.33 164.399C117.984 164.586 117.71 164.881 117.55 165.24C117.391 165.598 117.354 165.999 117.446 166.381C117.5 166.718 117.585 167.05 117.699 167.372C117.775 167.711 117.881 168.042 118.014 168.363C118.14 168.73 118.38 169.047 118.697 169.269C119.015 169.492 119.395 169.608 119.783 169.601H121.173C121.506 169.585 121.838 169.665 122.128 169.829C122.419 169.993 122.657 170.236 122.815 170.53C122.941 170.778 123.131 171.03 123.257 171.274C123.442 171.548 123.541 171.872 123.541 172.203C123.541 172.534 123.442 172.858 123.257 173.132L122.557 174.308C122.347 174.634 122.258 175.022 122.304 175.407C122.351 175.791 122.529 176.147 122.81 176.414C123.263 176.92 123.748 177.396 124.263 177.839C124.549 178.102 124.91 178.267 125.296 178.312C125.682 178.356 126.072 178.278 126.41 178.087L127.61 177.343C127.893 177.16 128.223 177.063 128.56 177.063C128.897 177.063 129.227 177.16 129.51 177.343C129.749 177.511 130.002 177.656 130.268 177.777C130.537 177.92 130.763 178.134 130.919 178.396C131.075 178.658 131.156 178.958 131.153 179.263V180.75C131.151 181.136 131.272 181.513 131.499 181.825C131.727 182.137 132.048 182.368 132.416 182.484C133.048 182.67 133.742 182.856 134.437 183.041C134.822 183.127 135.225 183.09 135.588 182.934C135.95 182.778 136.255 182.512 136.458 182.174L137.158 180.936C137.32 180.65 137.561 180.416 137.852 180.262C138.143 180.108 138.472 180.041 138.8 180.068H139.685C140.016 180.066 140.342 180.15 140.63 180.314C140.918 180.477 141.159 180.713 141.327 180.998L142.022 182.236C142.221 182.579 142.525 182.848 142.889 183.005C143.253 183.161 143.658 183.195 144.043 183.103C144.387 183.05 144.725 182.967 145.054 182.856C145.37 182.732 145.749 182.67 146.064 182.546C146.432 182.43 146.754 182.199 146.981 181.887C147.209 181.575 147.33 181.198 147.328 180.812V179.449C147.314 179.118 147.397 178.79 147.565 178.505C147.733 178.219 147.979 177.988 148.275 177.839C148.528 177.715 148.781 177.529 149.033 177.405C149.316 177.222 149.646 177.125 149.983 177.125C150.32 177.125 150.65 177.222 150.933 177.405L152.07 178.087C152.413 178.286 152.809 178.375 153.205 178.342C153.6 178.308 153.976 178.155 154.281 177.901C154.796 177.458 155.281 176.982 155.734 176.476C156.001 176.201 156.17 175.846 156.216 175.466C156.261 175.085 156.181 174.7 155.986 174.37L155.291 173.194C155.106 172.919 155.007 172.596 155.007 172.265C155.007 171.933 155.106 171.61 155.291 171.335C155.418 171.088 155.607 170.84 155.734 170.592C155.903 170.307 156.143 170.071 156.431 169.908C156.719 169.745 157.045 169.661 157.376 169.663H158.766C159.136 169.6 159.483 169.441 159.772 169.202C160.061 168.963 160.282 168.652 160.413 168.301ZM135.021 175.176C133.226 174.668 131.55 173.806 130.091 172.642C128.632 171.479 127.421 170.035 126.527 168.397C125.633 166.759 125.074 164.959 124.884 163.103C124.695 161.247 124.877 159.371 125.421 157.586C126.581 153.979 129.11 150.972 132.465 149.211C135.82 147.45 139.732 147.077 143.359 148.171C145.155 148.679 146.831 149.541 148.289 150.705C149.748 151.869 150.959 153.312 151.853 154.95C152.747 156.588 153.305 158.388 153.495 160.244C153.685 162.1 153.503 163.976 152.959 165.761C151.799 169.368 149.269 172.375 145.914 174.135C142.559 175.895 138.647 176.267 135.02 175.171L135.021 175.176Z" fill="#36DC62"/>
<path d="M227.025 162.471L204.54 142.529C204.431 142.433 204.29 142.384 204.146 142.393C204.002 142.401 203.867 142.467 203.771 142.575L202.607 143.888L196.217 138.226C196.197 138.21 196.183 138.186 196.18 138.16C196.177 138.135 196.184 138.109 196.2 138.088C199.326 134.051 200.8 128.976 200.324 123.892C199.848 118.808 197.457 114.095 193.636 110.709C191.658 108.956 189.355 107.61 186.857 106.748C184.359 105.885 181.715 105.523 179.078 105.683C176.44 105.842 173.859 106.519 171.483 107.675C169.107 108.832 166.983 110.445 165.23 112.423C161.691 116.417 159.883 121.654 160.205 126.981C160.526 132.308 162.951 137.289 166.945 140.829C174.379 147.416 185.802 148.052 192.832 141.507C192.906 141.438 199.342 147.572 199.342 147.572L198.205 148.853C198.109 148.961 198.06 149.103 198.069 149.247C198.077 149.391 198.143 149.526 198.251 149.622L220.736 169.563C220.844 169.659 220.986 169.708 221.13 169.699C221.274 169.69 221.409 169.625 221.505 169.517L227.072 163.24C227.119 163.186 227.156 163.124 227.179 163.056C227.203 162.989 227.212 162.917 227.208 162.846C227.204 162.774 227.185 162.704 227.154 162.64C227.122 162.576 227.079 162.518 227.025 162.471Z" fill="#CECECC"/>
<path opacity="0.15" d="M180.61 144.797C191.146 144.797 199.688 136.531 199.688 126.334C199.688 116.137 191.146 107.871 180.61 107.871C170.073 107.871 161.532 116.137 161.532 126.334C161.532 136.531 170.073 144.797 180.61 144.797Z" fill="#23244E"/>
<path d="M179.399 144.797C189.245 144.797 197.227 136.808 197.227 126.953C197.227 117.098 189.245 109.109 179.399 109.109C169.553 109.109 161.571 117.098 161.571 126.953C161.571 136.808 169.553 144.797 179.399 144.797Z" fill="#CECECC"/>
<path d="M227.808 157.311L205.323 137.37C205.215 137.274 205.073 137.225 204.929 137.234C204.785 137.243 204.65 137.308 204.554 137.416L203.39 138.729L197 133.067C196.98 133.051 196.967 133.027 196.963 133.001C196.96 132.976 196.967 132.95 196.983 132.929C200.109 128.891 201.583 123.817 201.107 118.733C200.631 113.649 198.24 108.936 194.419 105.549C190.424 102.01 185.188 100.202 179.861 100.524C174.534 100.846 169.552 103.27 166.013 107.264C162.475 111.258 160.668 116.493 160.99 121.819C161.311 127.145 163.735 132.125 167.728 135.664C175.162 142.252 186.585 142.888 193.615 136.343C193.689 136.274 200.125 142.408 200.125 142.408L198.988 143.689C198.94 143.742 198.904 143.805 198.881 143.872C198.858 143.94 198.847 144.011 198.852 144.083C198.856 144.154 198.874 144.224 198.905 144.288C198.937 144.352 198.98 144.41 199.034 144.457L221.513 164.401C221.621 164.497 221.763 164.546 221.907 164.537C222.051 164.528 222.186 164.463 222.282 164.355L227.849 158.078C227.944 157.971 227.994 157.83 227.986 157.686C227.979 157.542 227.914 157.408 227.808 157.311Z" stroke="#221F4C" stroke-width="0.243" stroke-miterlimit="10"/>
<path d="M186.665 63.3168C201.313 63.3168 213.189 51.6722 213.189 37.3078C213.189 22.9435 201.313 11.2988 186.665 11.2988C172.016 11.2988 160.141 22.9435 160.141 37.3078C160.141 51.6722 172.016 63.3168 186.665 63.3168Z" fill="#DDDDDD"/>
<path d="M182.164 60.3739C179.679 60.3721 177.207 60.0332 174.813 59.3668C171.435 58.4488 168.271 56.8729 165.503 54.7294C162.736 52.5859 160.418 49.917 158.684 46.8759C156.957 43.8735 155.854 40.5529 155.441 37.1134C155.029 33.674 155.315 30.1866 156.284 26.8609C157.251 23.5111 158.876 20.3875 161.063 17.6724C163.25 14.9572 165.956 12.7049 169.023 11.0469C175.256 7.61905 182.585 6.77489 189.434 8.69595C192.812 9.614 195.976 11.1899 198.744 13.3334C201.512 15.4769 203.829 18.1458 205.563 21.1869C207.291 24.1893 208.394 27.5099 208.806 30.9494C209.218 34.3888 208.932 37.8761 207.963 41.2019C206.996 44.5516 205.371 47.6752 203.184 50.3904C200.997 53.1056 198.291 55.3579 195.224 57.0159C191.223 59.2173 186.731 60.3724 182.164 60.3739ZM182.086 8.33291C177.631 8.33454 173.249 9.46106 169.346 11.6079C166.354 13.2258 163.714 15.4234 161.58 18.0724C159.447 20.7214 157.862 23.7689 156.919 27.0369C155.973 30.2811 155.693 33.683 156.095 37.0382C156.496 40.3935 157.572 43.6329 159.258 46.5619C160.949 49.5287 163.209 52.1324 165.909 54.2235C168.609 56.3147 171.696 57.8523 174.992 58.7479C181.673 60.622 188.824 59.7986 194.905 56.4549C197.897 54.8369 200.536 52.6393 202.67 49.9903C204.803 47.3412 206.388 44.2939 207.332 41.0259C208.278 37.7817 208.558 34.3798 208.156 31.0246C207.754 27.6693 206.678 24.4299 204.992 21.5009C203.301 18.5341 201.041 15.9304 198.341 13.8393C195.641 11.7481 192.554 10.2105 189.259 9.31484C186.923 8.66467 184.51 8.33439 182.086 8.33291Z" fill="#212446"/>
<path d="M177.784 28.3499C178.379 28.0154 179.008 27.7427 179.659 27.5359L180.139 27.3899C180.299 27.3469 180.459 27.3119 180.619 27.2729C180.939 27.1839 181.258 27.1389 181.577 27.0729C182.805 26.8735 184.053 26.8154 185.294 26.9C186.462 26.9698 187.618 27.1731 188.74 27.5059C189.82 27.8129 190.856 28.2583 191.822 28.831C192.785 29.3873 193.661 30.0819 194.422 30.8929C195.198 31.7452 195.86 32.6941 196.394 33.7159C196.543 33.9772 196.677 34.2474 196.794 34.525L196.978 34.9429C197.044 35.0825 197.101 35.2257 197.15 35.3719L197.468 36.259C197.556 36.569 197.64 36.8839 197.734 37.1929C198.063 38.5348 198.297 39.8981 198.434 41.2729V41.2939C198.478 41.6849 198.815 41.8149 199.188 41.5829C199.344 41.4788 199.477 41.3436 199.579 41.1856C199.68 41.0276 199.748 40.8504 199.778 40.665C200.004 39.0227 200.033 37.3591 199.865 35.7099C199.817 35.3239 199.757 34.9429 199.703 34.5579L199.454 33.4639C199.272 32.7708 199.037 32.093 198.749 31.4369C198.221 30.2197 197.491 29.1003 196.59 28.1259C195.742 27.2069 194.756 26.4252 193.668 25.8089C192.577 25.2014 191.41 24.7404 190.198 24.4379C188.927 24.1329 187.624 23.9805 186.317 23.9839C184.893 23.9877 183.475 24.1674 182.095 24.519C181.329 24.7143 180.58 24.9687 179.854 25.28C179.029 25.6312 178.244 26.07 177.513 26.5889C177.282 26.7527 177.099 26.9739 176.98 27.2305C176.861 27.4871 176.812 27.7702 176.836 28.0519C176.924 28.4929 177.325 28.6199 177.758 28.3659L177.784 28.3499Z" fill="#CC092F"/>
<path d="M176.813 28.8298L178.108 24.7229C178.142 24.617 178.136 24.502 178.091 24.4002C178.046 24.2983 177.965 24.2167 177.864 24.1709C177.817 24.1458 177.766 24.1311 177.713 24.1277C177.66 24.1243 177.607 24.1324 177.558 24.1514C177.509 24.1704 177.464 24.1999 177.427 24.2378C177.39 24.2757 177.362 24.321 177.344 24.3709L175.564 28.2039C175.495 28.3807 175.496 28.5772 175.568 28.7528C175.64 28.9285 175.776 29.0698 175.949 29.1478C176.025 29.1948 176.11 29.2241 176.198 29.2332C176.286 29.2422 176.375 29.231 176.459 29.2003C176.542 29.1696 176.617 29.1202 176.678 29.056C176.74 28.9918 176.786 28.9145 176.813 28.8298Z" fill="#CC092F"/>
<path d="M176.443 29.3069L180.183 28.6319C180.227 28.6271 180.27 28.6123 180.309 28.5887C180.347 28.565 180.379 28.5331 180.403 28.4953C180.427 28.4575 180.443 28.4147 180.448 28.3702C180.454 28.3256 180.449 28.2805 180.434 28.238C180.406 28.1421 180.345 28.0593 180.262 28.0043C180.178 27.9494 180.078 27.9258 179.979 27.9379L176.145 28.1519C176.068 28.1549 175.993 28.1757 175.926 28.2127C175.858 28.2497 175.801 28.3019 175.757 28.365C175.714 28.4282 175.685 28.5007 175.675 28.5767C175.664 28.6527 175.671 28.7302 175.696 28.8029C175.736 28.9642 175.834 29.1049 175.973 29.1973C176.111 29.2898 176.278 29.3274 176.443 29.3029" fill="#CC092F"/>
<path d="M194.502 46.5428C193.896 46.8559 193.258 47.1063 192.601 47.2899L192.116 47.4199C191.955 47.4569 191.794 47.4859 191.633 47.5199C191.31 47.5959 190.989 47.6298 190.669 47.6838C189.434 47.839 188.185 47.8528 186.948 47.7248C185.783 47.6132 184.634 47.3689 183.525 46.9968C182.456 46.652 181.436 46.1703 180.491 45.5638C179.55 44.9734 178.7 44.2477 177.969 43.4099C177.225 42.5309 176.596 41.5596 176.099 40.5199C175.961 40.253 175.839 39.9782 175.733 39.6969L175.564 39.2728C175.502 39.1308 175.449 38.9852 175.406 38.8369L175.12 37.9368C175.042 37.6238 174.97 37.3058 174.886 36.9948C174.606 35.6428 174.42 34.2728 174.33 32.8949V32.8739C174.301 32.4809 173.969 32.3398 173.589 32.5578C173.428 32.6566 173.29 32.7875 173.183 32.9425C173.076 33.0974 173.002 33.2729 172.966 33.4578C172.682 35.0909 172.594 36.752 172.703 38.4058C172.737 38.7948 172.783 39.1758 172.824 39.5628L173.034 40.6628C173.19 41.3618 173.402 42.0474 173.667 42.7128C174.151 43.9485 174.841 45.0933 175.708 46.0988C176.522 47.0481 177.479 47.8643 178.546 48.5178C179.614 49.164 180.763 49.666 181.964 50.0108C183.223 50.3612 184.52 50.56 185.826 50.6029C187.25 50.6497 188.673 50.5204 190.065 50.2178C190.837 50.0501 191.594 49.8224 192.33 49.5368C193.167 49.2157 193.968 48.805 194.717 48.3118C194.953 48.1564 195.144 47.9419 195.272 47.6897C195.4 47.4374 195.46 47.1563 195.446 46.8739C195.374 46.4309 194.977 46.2888 194.535 46.5278L194.502 46.5428Z" fill="#CC092F"/>
<path d="M195.46 45.86L194.582 50.0761C194.558 50.1852 194.576 50.2991 194.631 50.396C194.686 50.4929 194.776 50.5659 194.882 50.601C194.931 50.6219 194.984 50.632 195.037 50.6304C195.09 50.6288 195.142 50.6156 195.19 50.5917C195.238 50.5678 195.28 50.5338 195.313 50.4921C195.346 50.4503 195.37 50.4018 195.382 50.35L196.771 46.358C196.821 46.1754 196.8 45.9803 196.711 45.813C196.622 45.6456 196.473 45.5186 196.293 45.458C196.214 45.4188 196.126 45.3981 196.038 45.3977C195.949 45.3973 195.862 45.4172 195.782 45.4558C195.702 45.4944 195.632 45.5507 195.577 45.6204C195.523 45.6901 195.484 45.7714 195.466 45.858" fill="#CC092F"/>
<path d="M195.778 45.349L192.124 46.3941C192.08 46.4034 192.039 46.4224 192.003 46.4498C191.968 46.4771 191.939 46.512 191.919 46.552C191.898 46.5921 191.887 46.6361 191.886 46.681C191.885 46.7258 191.894 46.7702 191.913 46.8111C191.951 46.9031 192.02 46.9787 192.108 47.0246C192.197 47.0705 192.299 47.0838 192.396 47.0621L196.19 46.4621C196.266 46.4517 196.339 46.4236 196.402 46.3802C196.465 46.3367 196.517 46.279 196.554 46.2118C196.591 46.1446 196.612 46.0697 196.615 45.993C196.618 45.9163 196.604 45.84 196.572 45.7701C196.516 45.6131 196.404 45.4827 196.257 45.4042C196.11 45.3258 195.939 45.305 195.778 45.346" fill="#CC092F"/>
<path d="M178.195 147.97C178.083 147.913 177.993 147.823 177.937 147.711C177.881 147.6 177.862 147.473 177.883 147.35C177.913 147.203 178 147.075 178.125 146.992C178.25 146.91 178.402 146.88 178.549 146.91L178.689 146.955C178.836 146.985 178.966 147.071 179.05 147.195C179.135 147.319 179.167 147.471 179.141 147.619C179.115 147.763 179.033 147.891 178.912 147.974C178.791 148.058 178.643 148.09 178.499 148.064H178.481L178.195 147.97ZM181.707 148.655C181.636 148.633 181.57 148.597 181.514 148.549C181.457 148.501 181.41 148.443 181.376 148.377C181.342 148.311 181.321 148.24 181.314 148.166C181.308 148.092 181.316 148.018 181.339 147.947C181.361 147.876 181.397 147.811 181.445 147.754C181.492 147.697 181.551 147.65 181.617 147.616C181.682 147.582 181.754 147.561 181.828 147.555C181.902 147.548 181.976 147.557 182.047 147.579L184.13 147.955C184.279 147.982 184.413 148.065 184.502 148.188C184.591 148.312 184.629 148.464 184.608 148.615C184.578 148.76 184.494 148.889 184.372 148.974C184.25 149.059 184.1 149.094 183.954 149.071L181.854 148.689L181.707 148.655ZM187.178 149.582C187.035 149.537 186.917 149.437 186.848 149.304C186.779 149.171 186.765 149.017 186.809 148.874C186.855 148.731 186.955 148.613 187.088 148.544C187.221 148.475 187.375 148.462 187.517 148.507L189.607 148.789C189.753 148.802 189.887 148.873 189.981 148.985C190.075 149.098 190.12 149.243 190.107 149.389V149.411C190.095 149.554 190.027 149.687 189.917 149.78C189.807 149.872 189.665 149.918 189.522 149.906H189.49C188.803 149.83 188.09 149.734 187.365 149.624L187.178 149.582ZM192.704 150.148C192.601 150.101 192.516 150.024 192.458 149.927C192.4 149.831 192.372 149.719 192.378 149.607C192.386 149.461 192.452 149.323 192.561 149.226C192.671 149.128 192.814 149.078 192.961 149.086H192.98C193.688 149.132 194.395 149.178 195.074 149.204C195.148 149.204 195.221 149.219 195.289 149.248C195.358 149.276 195.42 149.318 195.472 149.37C195.524 149.423 195.566 149.485 195.594 149.554C195.622 149.622 195.636 149.696 195.636 149.77V149.784C195.628 149.932 195.563 150.072 195.454 150.172C195.344 150.273 195.199 150.326 195.051 150.321C194.359 150.303 193.637 150.264 192.919 150.214C192.842 150.218 192.764 150.209 192.69 150.189L192.704 150.148ZM198.226 150.275C198.135 150.228 198.058 150.158 198.002 150.072C197.947 149.986 197.914 149.886 197.909 149.784C197.902 149.637 197.955 149.494 198.054 149.386C198.153 149.278 198.291 149.214 198.438 149.208H198.446C199.152 149.183 199.846 149.144 200.521 149.084C200.672 149.068 200.823 149.113 200.942 149.208C201.06 149.303 201.136 149.441 201.154 149.592C201.161 149.665 201.153 149.738 201.132 149.808C201.111 149.878 201.076 149.942 201.03 149.999C200.983 150.055 200.926 150.102 200.862 150.136C200.797 150.17 200.726 150.191 200.654 150.198H200.637C199.942 150.262 199.229 150.309 198.501 150.327C198.404 150.348 198.303 150.344 198.208 150.317L198.226 150.275ZM203.726 149.649C203.646 149.611 203.576 149.555 203.522 149.484C203.468 149.413 203.432 149.331 203.417 149.243C203.401 149.174 203.4 149.102 203.412 149.032C203.424 148.962 203.45 148.895 203.488 148.835C203.526 148.775 203.576 148.723 203.634 148.682C203.692 148.641 203.758 148.612 203.828 148.597L203.861 148.591C204.54 148.463 205.227 148.313 205.874 148.139C206.02 148.1 206.175 148.121 206.306 148.196C206.436 148.271 206.533 148.394 206.574 148.539C206.615 148.68 206.598 148.831 206.527 148.96C206.457 149.088 206.338 149.184 206.198 149.225L206.177 149.23C205.506 149.408 204.794 149.562 204.089 149.694C203.968 149.757 203.828 149.772 203.697 149.735L203.726 149.649ZM209 148.135C208.878 148.073 208.78 147.971 208.724 147.846C208.666 147.711 208.664 147.559 208.718 147.423C208.772 147.286 208.878 147.177 209.013 147.119L209.027 147.113C209.666 146.854 210.3 146.57 210.906 146.264C211.038 146.195 211.193 146.181 211.336 146.225C211.479 146.27 211.598 146.369 211.668 146.502C211.738 146.627 211.755 146.775 211.716 146.913C211.677 147.052 211.585 147.169 211.46 147.239L211.429 147.255C210.795 147.575 210.143 147.878 209.469 148.138C209.396 148.188 209.314 148.22 209.227 148.234C209.141 148.248 209.053 148.242 208.969 148.217L209 148.135ZM213.821 145.542C213.735 145.503 213.661 145.442 213.605 145.367C213.562 145.307 213.53 145.238 213.514 145.166C213.497 145.094 213.495 145.019 213.507 144.946C213.519 144.873 213.546 144.803 213.585 144.74C213.624 144.677 213.675 144.623 213.736 144.58C214.283 144.197 214.829 143.742 215.315 143.328C215.431 143.231 215.58 143.182 215.731 143.192C215.882 143.203 216.024 143.271 216.126 143.383C216.176 143.438 216.214 143.503 216.238 143.573C216.263 143.644 216.273 143.718 216.269 143.793C216.265 143.867 216.245 143.94 216.213 144.007C216.18 144.074 216.134 144.134 216.079 144.183C215.533 144.637 214.965 145.083 214.386 145.493C214.313 145.566 214.222 145.617 214.123 145.642C214.023 145.667 213.919 145.664 213.821 145.634V145.542ZM217.856 141.883C217.811 141.875 217.768 141.861 217.726 141.842C217.67 141.795 217.623 141.736 217.588 141.671C217.554 141.605 217.532 141.534 217.526 141.46C217.519 141.386 217.527 141.312 217.549 141.241C217.571 141.17 217.607 141.105 217.655 141.048L217.661 141.04C218.093 140.54 218.523 140 218.911 139.448C219.002 139.328 219.137 139.248 219.286 139.225C219.434 139.201 219.587 139.236 219.711 139.321C219.833 139.409 219.915 139.54 219.941 139.688C219.967 139.836 219.935 139.988 219.85 140.112C219.431 140.689 218.994 141.249 218.527 141.788C218.456 141.905 218.344 141.993 218.214 142.034C218.083 142.075 217.942 142.067 217.817 142.012L217.856 141.883ZM220.921 137.397C220.789 137.326 220.689 137.207 220.644 137.065C220.599 136.922 220.611 136.768 220.678 136.634C220.775 136.405 220.888 136.184 221.017 135.972C221.211 135.583 221.395 135.192 221.567 134.796C221.608 134.732 221.662 134.677 221.725 134.634C221.787 134.591 221.858 134.561 221.932 134.546C222.006 134.53 222.083 134.53 222.158 134.544C222.232 134.558 222.303 134.587 222.367 134.629C222.466 134.694 222.543 134.788 222.587 134.898C222.631 135.008 222.639 135.129 222.612 135.245C222.454 135.673 222.26 136.086 222.031 136.481C221.935 136.718 221.819 136.946 221.684 137.164C221.66 137.234 221.623 137.299 221.574 137.354C221.524 137.41 221.465 137.455 221.398 137.487C221.331 137.52 221.259 137.539 221.185 137.543C221.111 137.547 221.037 137.537 220.967 137.513C220.943 137.504 220.92 137.494 220.897 137.483L220.921 137.397ZM222.969 132.352C222.847 132.296 222.749 132.199 222.694 132.077C222.639 131.955 222.63 131.817 222.669 131.689C222.893 131.044 223.063 130.381 223.178 129.708C223.238 129.568 223.352 129.457 223.494 129.401C223.636 129.345 223.794 129.347 223.934 129.408C224.041 129.454 224.132 129.532 224.194 129.631C224.256 129.73 224.286 129.845 224.281 129.962C224.135 130.65 223.963 131.341 223.759 132.022C223.736 132.093 223.7 132.158 223.653 132.215C223.605 132.272 223.547 132.318 223.481 132.353C223.415 132.387 223.343 132.408 223.269 132.414C223.196 132.42 223.121 132.412 223.051 132.39L222.969 132.352ZM153.469 92.5948C153.331 92.5362 153.222 92.4253 153.165 92.2864C153.109 92.1475 153.111 91.9919 153.169 91.8539C153.198 91.7855 153.24 91.7235 153.293 91.6714C153.346 91.6193 153.408 91.5782 153.477 91.5503C153.546 91.5224 153.62 91.5084 153.694 91.509C153.768 91.5096 153.841 91.5248 153.91 91.5538C154.198 91.6627 154.493 91.7559 154.792 91.8329C155.148 91.9592 155.517 92.048 155.891 92.0979C156.038 92.1308 156.166 92.2193 156.247 92.3448C156.329 92.4704 156.358 92.6229 156.329 92.7699C156.3 92.9135 156.215 93.0394 156.093 93.1202C155.97 93.2011 155.821 93.2301 155.678 93.2009H155.662C155.286 93.0819 154.889 93.0279 154.506 92.9299C154.123 92.8319 153.849 92.7219 153.548 92.6299L153.469 92.5948ZM150.654 90.7568C150.564 90.7138 150.486 90.6488 150.429 90.5679C150.224 90.2709 150.06 89.9481 149.94 89.6079C149.792 89.157 149.737 88.6806 149.78 88.2079C149.796 88.0595 149.87 87.9234 149.986 87.8297C150.102 87.736 150.251 87.6922 150.4 87.7079C150.549 87.726 150.686 87.8009 150.781 87.9171C150.877 88.0333 150.924 88.1819 150.912 88.3319C150.885 88.6487 150.926 88.9676 151.031 89.2678C151.102 89.507 151.215 89.7316 151.366 89.9309C151.45 90.0538 151.483 90.2053 151.456 90.3522C151.43 90.4991 151.346 90.6294 151.224 90.7148C151.147 90.7676 151.06 90.8006 150.968 90.8105C150.876 90.8205 150.782 90.8071 150.697 90.7719L150.654 90.7568ZM223.992 127.101C223.886 127.052 223.798 126.972 223.741 126.871C223.684 126.77 223.66 126.653 223.673 126.538C223.734 125.859 223.788 125.166 223.802 124.484C223.806 124.337 223.868 124.198 223.975 124.098C224.081 123.997 224.223 123.942 224.37 123.946H224.386C224.536 123.956 224.677 124.023 224.781 124.132C224.884 124.242 224.943 124.386 224.945 124.537C224.924 125.237 224.874 125.959 224.806 126.659C224.789 126.807 224.715 126.943 224.599 127.037C224.483 127.131 224.334 127.175 224.186 127.159C224.119 127.151 224.052 127.131 223.992 127.101ZM158.906 93.6649C158.803 93.6151 158.718 93.536 158.661 93.4377C158.604 93.3395 158.577 93.2265 158.584 93.1129C158.596 92.9639 158.667 92.8258 158.781 92.729C158.895 92.6322 159.043 92.5848 159.192 92.5969C159.871 92.6589 160.571 92.6909 161.256 92.6969C161.407 92.6994 161.552 92.7605 161.659 92.8673C161.766 92.9741 161.829 93.1185 161.832 93.2699C161.829 93.4181 161.768 93.5593 161.662 93.663C161.557 93.7666 161.414 93.8244 161.266 93.8239C160.545 93.8239 159.813 93.7779 159.109 93.7239C159.039 93.7148 158.97 93.6949 158.906 93.6649ZM164.422 93.5889C164.337 93.5477 164.264 93.4856 164.209 93.4082C164.155 93.3308 164.121 93.2408 164.112 93.1469C164.092 93.0046 164.13 92.8605 164.217 92.746C164.303 92.6315 164.431 92.556 164.574 92.5359H164.603C165.28 92.4549 165.974 92.3548 166.65 92.2358C166.797 92.2094 166.948 92.2412 167.072 92.3245C167.196 92.4077 167.283 92.5359 167.314 92.6819C167.329 92.7514 167.331 92.8232 167.319 92.8933C167.306 92.9634 167.28 93.0304 167.242 93.0905C167.204 93.1505 167.154 93.2025 167.096 93.2434C167.038 93.2843 166.972 93.3134 166.903 93.3289L166.87 93.3348C166.17 93.4668 165.445 93.5709 164.747 93.6459C164.636 93.6662 164.52 93.646 164.422 93.5889ZM151.812 85.9749C151.745 85.9382 151.684 85.8909 151.632 85.8348C151.583 85.7807 151.546 85.7176 151.522 85.649C151.498 85.5805 151.488 85.5077 151.492 85.4352C151.496 85.3626 151.514 85.2916 151.545 85.2262C151.577 85.1608 151.621 85.1021 151.676 85.0538L151.695 85.0378C152.268 84.5477 152.9 84.1319 153.578 83.7999C153.713 83.7329 153.87 83.7209 154.015 83.7666C154.159 83.8123 154.28 83.912 154.353 84.0449C154.422 84.1745 154.436 84.326 154.393 84.4662C154.35 84.6064 154.253 84.7239 154.124 84.7928L154.114 84.7979C153.526 85.0836 152.973 85.437 152.467 85.8508C152.384 85.9366 152.277 85.9948 152.16 86.017C152.042 86.0392 151.92 86.0244 151.812 85.9749ZM224.012 121.64C223.924 121.596 223.849 121.529 223.794 121.448C223.739 121.366 223.706 121.272 223.698 121.174C223.641 120.493 223.549 119.813 223.442 119.14C223.417 118.998 223.45 118.853 223.532 118.735C223.615 118.618 223.74 118.538 223.882 118.513L223.914 118.508C224.063 118.487 224.214 118.524 224.336 118.611C224.458 118.698 224.542 118.829 224.571 118.976C224.682 119.676 224.771 120.39 224.835 121.096C224.845 121.244 224.795 121.391 224.698 121.503C224.6 121.616 224.462 121.685 224.314 121.696C224.211 121.699 224.107 121.68 224.012 121.64ZM169.819 92.4929C169.748 92.4606 169.685 92.4133 169.635 92.3545C169.584 92.2956 169.546 92.2265 169.525 92.1519C169.502 92.0827 169.493 92.0098 169.498 91.9371C169.503 91.8645 169.523 91.7936 169.556 91.7285C169.588 91.6635 169.634 91.6056 169.689 91.5581C169.744 91.5106 169.809 91.4745 169.878 91.4519H169.889C170.543 91.2569 171.203 91.0398 171.849 90.7938C171.99 90.7414 172.146 90.7464 172.284 90.8077C172.422 90.869 172.53 90.9817 172.586 91.1218C172.64 91.258 172.639 91.4104 172.581 91.5454C172.523 91.6804 172.415 91.787 172.279 91.8419L172.261 91.8479C171.601 92.1009 170.927 92.3249 170.234 92.5319C170.097 92.569 169.951 92.5552 169.824 92.4929H169.819ZM156.779 83.7719C156.706 83.735 156.642 83.6835 156.59 83.6205C156.539 83.5575 156.501 83.4844 156.479 83.4059C156.44 83.2645 156.458 83.1133 156.53 82.9855C156.602 82.8576 156.721 82.7635 156.863 82.7239L156.887 82.7179C157.566 82.5539 158.274 82.4109 158.996 82.2969C159.144 82.2717 159.296 82.3056 159.419 82.3912C159.543 82.4769 159.627 82.6074 159.656 82.7549C159.669 82.8261 159.669 82.8994 159.654 82.9705C159.64 83.0415 159.611 83.109 159.57 83.1691C159.529 83.2291 159.478 83.2805 159.417 83.3203C159.356 83.3601 159.288 83.3874 159.217 83.4009H159.202C158.502 83.5109 157.832 83.6539 157.178 83.8129C157.043 83.8391 156.904 83.8238 156.778 83.7689L156.779 83.7719ZM223.006 116.256C222.935 116.219 222.871 116.169 222.82 116.108C222.768 116.047 222.729 115.976 222.705 115.9C222.521 115.249 222.306 114.589 222.074 113.936C222.027 113.795 222.037 113.641 222.101 113.507C222.166 113.373 222.28 113.269 222.42 113.217C222.564 113.172 222.72 113.184 222.855 113.251C222.99 113.318 223.095 113.435 223.146 113.577C223.4 114.242 223.619 114.92 223.805 115.608C223.845 115.749 223.829 115.9 223.759 116.029C223.688 116.157 223.569 116.253 223.429 116.294L223.408 116.3C223.274 116.337 223.131 116.321 223.008 116.256H223.006ZM174.912 90.4609C174.803 90.4099 174.714 90.3231 174.66 90.2148C174.59 90.0893 174.572 89.9412 174.611 89.8029C174.65 89.6645 174.742 89.5474 174.868 89.4769L174.898 89.4609C175.507 89.1449 176.12 88.8178 176.703 88.4708C176.839 88.407 176.995 88.3968 177.138 88.4421C177.282 88.4875 177.403 88.5852 177.478 88.7158C177.548 88.8412 177.565 88.9893 177.526 89.1274C177.487 89.2656 177.395 89.3826 177.27 89.4529L177.24 89.4689C176.628 89.8309 175.998 90.1758 175.364 90.4968C175.29 90.5226 175.212 90.5327 175.134 90.5265C175.057 90.5203 174.981 90.498 174.912 90.4609ZM111.948 59.1879C111.881 59.15 111.821 59.1028 111.767 59.0479C111.719 58.9937 111.682 58.9306 111.658 58.8621C111.634 58.7935 111.623 58.7208 111.627 58.6482C111.631 58.5756 111.65 58.5047 111.682 58.4392C111.713 58.3738 111.758 58.3152 111.812 58.2668L111.83 58.2509C112.362 57.8039 112.903 57.4068 113.438 56.9128C113.558 56.821 113.709 56.7801 113.858 56.7988C114.008 56.8175 114.144 56.8945 114.238 57.0129C114.33 57.127 114.372 57.2729 114.357 57.4186C114.341 57.5643 114.269 57.6978 114.155 57.7899L114.142 57.7988C113.606 58.2208 113.06 58.6399 112.543 59.1049C112.46 59.172 112.36 59.2153 112.254 59.2301C112.149 59.2449 112.041 59.2306 111.943 59.1888L111.948 59.1879ZM162.247 82.9939C162.1 82.9642 161.97 82.8772 161.887 82.752C161.803 82.6268 161.773 82.4736 161.802 82.3259C161.831 82.1782 161.918 82.0482 162.043 81.9646C162.169 81.881 162.322 81.8505 162.47 81.8799C163.158 81.8379 163.883 81.8299 164.618 81.8259C164.768 81.8279 164.912 81.8872 165.019 81.9919C165.127 82.0967 165.191 82.2388 165.197 82.3889C165.194 82.5386 165.133 82.6815 165.027 82.787C164.92 82.8925 164.778 82.9523 164.628 82.9539C163.918 82.9539 163.215 82.9678 162.552 83.0068C162.452 83.0317 162.347 83.0273 162.25 82.9939H162.247ZM221.071 111.085C220.953 111.03 220.858 110.938 220.8 110.822C220.508 110.209 220.185 109.585 219.858 108.973C219.789 108.843 219.775 108.692 219.817 108.552C219.86 108.412 219.957 108.294 220.086 108.225L220.096 108.22C220.231 108.153 220.388 108.141 220.533 108.187C220.677 108.232 220.798 108.332 220.87 108.465C221.215 109.095 221.547 109.732 221.853 110.374C221.922 110.504 221.936 110.655 221.893 110.795C221.85 110.935 221.753 111.053 221.624 111.122L221.614 111.127C221.528 111.169 221.432 111.187 221.336 111.179C221.241 111.172 221.149 111.139 221.071 111.085ZM167.787 83.0309C167.685 82.9834 167.599 82.9065 167.541 82.8101C167.483 82.7137 167.456 82.6022 167.462 82.4899C167.467 82.3463 167.528 82.2105 167.633 82.1124C167.738 82.0144 167.878 81.9621 168.022 81.9669H168.064C168.739 82.0039 169.432 82.0568 170.19 82.1318C170.264 82.1378 170.336 82.1582 170.402 82.192C170.468 82.2258 170.526 82.2723 170.574 82.3287C170.622 82.3852 170.659 82.4506 170.682 82.5211C170.704 82.5917 170.713 82.666 170.707 82.7399V82.7449C170.698 82.8883 170.633 83.0223 170.525 83.1177C170.418 83.2131 170.277 83.2621 170.134 83.2539H170.097L168.007 83.0889C167.929 83.0981 167.851 83.0895 167.778 83.0638L167.787 83.0309ZM179.587 87.5599C179.507 87.5209 179.436 87.4661 179.378 87.3989C179.332 87.3405 179.299 87.2736 179.279 87.2021C179.26 87.1307 179.254 87.0561 179.264 86.9827C179.273 86.9092 179.297 86.8382 179.333 86.7739C179.37 86.7096 179.419 86.6532 179.478 86.6079C180.021 86.1999 180.561 85.7669 181.068 85.3239C181.185 85.2291 181.334 85.183 181.485 85.1953C181.635 85.2076 181.775 85.2773 181.876 85.3899C181.973 85.5016 182.022 85.6469 182.013 85.7944C182.003 85.942 181.937 86.08 181.827 86.1788C181.291 86.6368 180.726 87.0849 180.162 87.5109C180.08 87.5791 179.98 87.6231 179.874 87.6379C179.768 87.6528 179.661 87.6379 179.563 87.5948L179.587 87.5599ZM116.327 55.9089C116.245 55.8609 116.173 55.7981 116.114 55.7239C116.029 55.6012 115.996 55.4497 116.022 55.3027C116.049 55.1558 116.132 55.0252 116.255 54.9398C116.843 54.5498 117.437 54.1695 118.037 53.7988C118.172 53.7319 118.329 53.7201 118.473 53.766C118.617 53.8118 118.739 53.9119 118.811 54.0449C118.846 54.1069 118.868 54.1751 118.876 54.2457C118.885 54.3163 118.879 54.3879 118.86 54.4564C118.841 54.5249 118.809 54.5889 118.765 54.6448C118.72 54.7006 118.666 54.7472 118.604 54.7819L118.573 54.7979C117.986 55.1559 117.407 55.5286 116.834 55.9159C116.755 55.9525 116.668 55.9708 116.58 55.9696C116.493 55.9684 116.407 55.9477 116.329 55.9089H116.327ZM218.312 106.341C218.22 106.298 218.142 106.228 218.091 106.141C217.701 105.579 217.268 105.004 216.874 104.454C216.829 104.396 216.797 104.331 216.778 104.26C216.759 104.19 216.754 104.117 216.763 104.045C216.772 103.973 216.796 103.904 216.832 103.841C216.868 103.778 216.916 103.722 216.974 103.678L216.984 103.67C217.105 103.58 217.257 103.541 217.407 103.562C217.557 103.583 217.692 103.663 217.784 103.783C218.218 104.358 218.605 104.93 219.031 105.527C219.114 105.651 219.144 105.802 219.116 105.948C219.087 106.094 219.002 106.223 218.879 106.307C218.795 106.361 218.699 106.393 218.6 106.399C218.501 106.405 218.401 106.385 218.312 106.341ZM173.288 83.6008C173.218 83.5785 173.152 83.5425 173.096 83.4949C173.039 83.4472 172.992 83.3889 172.958 83.3231C172.924 83.2574 172.903 83.1855 172.896 83.1117C172.89 83.0379 172.898 82.9635 172.921 82.8928C172.943 82.8222 172.979 82.7566 173.027 82.6998C173.074 82.6431 173.133 82.5963 173.199 82.5621C173.264 82.528 173.336 82.5071 173.41 82.5007C173.484 82.4943 173.558 82.5025 173.629 82.5249L175.729 82.7999C175.88 82.8189 176.017 82.8971 176.111 83.0175C176.205 83.1378 176.248 83.2905 176.229 83.4419C176.219 83.5139 176.195 83.5834 176.159 83.6464C176.123 83.7093 176.075 83.7644 176.017 83.8086C175.959 83.8528 175.893 83.8852 175.823 83.9039C175.753 83.9227 175.68 83.9274 175.608 83.9178H175.594L173.502 83.6459L173.288 83.6008ZM178.767 84.3889C178.657 84.3368 178.567 84.2497 178.512 84.1412C178.456 84.0328 178.437 83.9089 178.459 83.7888C178.485 83.6417 178.569 83.511 178.691 83.4255C178.814 83.34 178.965 83.3067 179.113 83.3329L181.205 83.7109C181.354 83.7378 181.486 83.8216 181.573 83.9443C181.66 84.0671 181.696 84.2191 181.673 84.3679C181.643 84.5138 181.557 84.6421 181.433 84.7249C181.309 84.8076 181.158 84.8382 181.012 84.8099L178.937 84.4489L178.767 84.3889ZM214.885 102.025C214.821 101.992 214.763 101.949 214.712 101.899C214.247 101.385 213.772 100.867 213.279 100.368C213.175 100.262 213.116 100.12 213.116 99.9719C213.116 99.8237 213.175 99.6815 213.279 99.5759C213.39 99.4743 213.537 99.4196 213.688 99.4233C213.839 99.4271 213.982 99.4888 214.089 99.5958C214.589 100.096 215.089 100.633 215.558 101.161C215.656 101.265 215.71 101.405 215.706 101.548C215.702 101.692 215.641 101.828 215.537 101.927L215.51 101.951C215.426 102.025 215.321 102.072 215.21 102.085C215.099 102.098 214.986 102.077 214.887 102.025H214.885ZM184.216 85.4619C184.073 85.4167 183.954 85.3166 183.886 85.1838C183.817 85.0511 183.803 84.8965 183.849 84.7539C183.871 84.6833 183.907 84.6176 183.954 84.5609C184.002 84.5042 184.061 84.4576 184.126 84.4235C184.192 84.3894 184.264 84.3686 184.338 84.3623C184.412 84.356 184.486 84.3643 184.557 84.3868C185.257 84.5368 185.957 84.7109 186.638 84.8799C186.71 84.8963 186.778 84.9268 186.839 84.9696C186.899 85.0124 186.951 85.0667 186.99 85.1294C187.03 85.1921 187.056 85.2618 187.069 85.3348C187.081 85.4079 187.079 85.4827 187.063 85.5549C187.023 85.7012 186.927 85.8259 186.796 85.9021C186.665 85.9783 186.509 85.9998 186.363 85.9619C185.707 85.7539 185.013 85.6289 184.314 85.4789L184.216 85.4619ZM210.989 98.1039L210.849 98.0599C210.332 97.5999 209.786 97.1549 209.24 96.7109C209.124 96.6212 209.048 96.489 209.029 96.3435C209.01 96.198 209.05 96.0512 209.14 95.9349L209.149 95.9229C209.246 95.8065 209.385 95.7332 209.536 95.719C209.687 95.7048 209.837 95.7508 209.954 95.8469C210.51 96.2949 211.064 96.7538 211.603 97.2208C211.714 97.3183 211.783 97.4556 211.793 97.603C211.804 97.7505 211.756 97.8963 211.661 98.0089C211.571 98.1007 211.453 98.1591 211.326 98.1746C211.198 98.19 211.07 98.1615 210.961 98.0939L210.989 98.1039ZM121.089 53.0709C120.985 53.0177 120.9 52.9329 120.847 52.8289C120.812 52.7648 120.791 52.6946 120.784 52.6223C120.777 52.55 120.784 52.4771 120.806 52.4076C120.827 52.3381 120.861 52.2735 120.908 52.2174C120.954 52.1614 121.01 52.115 121.075 52.0809L121.085 52.0759C121.708 51.7519 122.342 51.4319 122.985 51.1259C123.121 51.0588 123.277 51.0469 123.421 51.0925C123.566 51.1382 123.687 51.2379 123.76 51.3708C123.829 51.5003 123.843 51.6518 123.801 51.7921C123.758 51.9324 123.661 52.0499 123.532 52.1189L123.522 52.1249C122.895 52.4249 122.275 52.7359 121.666 53.0519C121.579 53.1203 121.473 53.1626 121.363 53.1737C121.252 53.1849 121.141 53.1644 121.042 53.1149L121.089 53.0709ZM183.634 83.9509C183.581 83.945 183.53 83.9286 183.484 83.9028C183.373 83.8031 183.306 83.6635 183.297 83.5145C183.289 83.3655 183.34 83.2193 183.44 83.1079C183.903 82.6159 184.352 82.0949 184.78 81.5669C184.885 81.4564 185.029 81.3919 185.182 81.3878C185.334 81.3837 185.482 81.4403 185.593 81.5449C185.691 81.6377 185.753 81.7618 185.768 81.8958C185.784 82.0297 185.752 82.1649 185.679 82.2778C185.234 82.8238 184.768 83.3629 184.279 83.8839C184.192 83.9621 184.082 84.0107 183.966 84.0227C183.849 84.0347 183.732 84.0096 183.631 83.9509H183.634ZM189.58 86.8508C189.511 86.8244 189.448 86.7845 189.394 86.7334C189.34 86.6823 189.297 86.6212 189.266 86.5533C189.236 86.4855 189.22 86.4125 189.218 86.3383C189.216 86.264 189.229 86.1901 189.256 86.1208C189.282 86.0516 189.322 85.9883 189.373 85.9344C189.425 85.8806 189.486 85.8373 189.554 85.8071C189.621 85.777 189.694 85.7605 189.768 85.7585C189.843 85.7566 189.916 85.7693 189.986 85.7959L192.03 86.4429C192.1 86.4652 192.166 86.5012 192.223 86.5488C192.279 86.5965 192.326 86.6548 192.36 86.7206C192.394 86.7863 192.415 86.8582 192.422 86.932C192.428 87.0058 192.42 87.0802 192.398 87.1509C192.376 87.2202 192.341 87.2844 192.294 87.3401C192.247 87.3957 192.19 87.4417 192.125 87.4752C192.061 87.5087 191.991 87.5292 191.918 87.5355C191.846 87.5418 191.773 87.5337 191.704 87.5118L191.683 87.5049L189.583 86.8408L189.58 86.8508ZM206.58 94.6599L206.506 94.6359C205.933 94.2359 205.345 93.8539 204.751 93.4879C204.686 93.448 204.629 93.3956 204.584 93.3337C204.539 93.2719 204.507 93.2017 204.489 93.1274C204.471 93.0531 204.469 92.9761 204.481 92.9006C204.493 92.8252 204.519 92.7529 204.559 92.6879C204.64 92.5565 204.77 92.4627 204.92 92.4269C205.07 92.3911 205.228 92.4162 205.36 92.4968C205.973 92.8808 206.571 93.2709 207.166 93.6729C207.29 93.7562 207.376 93.8856 207.405 94.0323C207.434 94.1791 207.404 94.3315 207.321 94.4559C207.242 94.5736 207.123 94.6588 206.987 94.6963C206.85 94.7337 206.704 94.7209 206.577 94.6599H206.58ZM194.869 88.5839C194.739 88.5253 194.638 88.4193 194.585 88.2878C194.532 88.1564 194.532 88.0097 194.584 87.8779C194.61 87.8087 194.65 87.7453 194.701 87.6915C194.751 87.6377 194.813 87.5945 194.88 87.5643C194.948 87.5341 195.021 87.5176 195.095 87.5156C195.169 87.5137 195.243 87.5263 195.312 87.5529C196.015 87.8229 196.676 88.0912 197.294 88.3579C197.431 88.4101 197.542 88.5146 197.602 88.6484C197.662 88.7823 197.667 88.9346 197.615 89.0719L197.605 89.0958C197.544 89.233 197.432 89.3411 197.293 89.3971C197.154 89.4531 196.999 89.4527 196.86 89.3959C196.224 89.1239 195.574 88.8589 194.917 88.6149L194.869 88.5839ZM201.851 91.7649L200.225 90.9188L199.967 90.8379C199.834 90.7758 199.731 90.6635 199.681 90.5258C199.63 90.388 199.637 90.2359 199.699 90.1029L199.71 90.0809C199.742 90.0158 199.786 89.9574 199.84 89.9094C199.895 89.8614 199.958 89.8246 200.027 89.8011C200.095 89.7776 200.168 89.768 200.24 89.7726C200.313 89.7772 200.383 89.7959 200.449 89.8279L200.463 89.8339L200.742 89.9229C201.296 90.1929 201.842 90.4738 202.382 90.7618C202.448 90.7955 202.506 90.8419 202.555 90.8983C202.603 90.9547 202.639 91.02 202.662 91.0905C202.685 91.1609 202.694 91.2352 202.688 91.3091C202.682 91.3829 202.662 91.4549 202.628 91.5209C202.601 91.59 202.561 91.6531 202.51 91.7067C202.458 91.7602 202.397 91.8032 202.329 91.8331C202.262 91.863 202.189 91.8793 202.115 91.881C202.041 91.8827 201.967 91.8697 201.898 91.8429C201.877 91.8352 201.856 91.8257 201.837 91.8148L201.851 91.7649ZM126.062 50.7509C126.001 50.7235 125.946 50.6842 125.9 50.6353C125.855 50.5863 125.82 50.5286 125.797 50.4658C125.762 50.4038 125.74 50.3355 125.731 50.2649C125.723 50.1943 125.729 50.1227 125.748 50.0542C125.767 49.9857 125.8 49.9218 125.844 49.866C125.888 49.8101 125.943 49.7636 126.005 49.7289L126.036 49.7129C126.685 49.4569 127.381 49.2039 128.005 48.9519C128.148 48.899 128.306 48.9039 128.445 48.9657C128.585 49.0275 128.695 49.1413 128.752 49.2828C128.805 49.4221 128.8 49.5766 128.739 49.7126C128.678 49.8487 128.567 49.9552 128.428 50.0089C127.775 50.2399 127.093 50.4859 126.487 50.7559C126.415 50.7948 126.335 50.8185 126.254 50.8252C126.172 50.8319 126.09 50.8216 126.013 50.7949L126.062 50.7509ZM187.003 79.5958L186.949 79.5789C186.821 79.5018 186.729 79.3774 186.693 79.2328C186.656 79.0882 186.679 78.9351 186.755 78.8069C187.117 78.2239 187.448 77.6299 187.755 77.0289C187.825 76.8969 187.945 76.7976 188.087 76.7521C188.23 76.7065 188.384 76.7183 188.518 76.7849C188.653 76.8541 188.755 76.9733 188.803 77.1169C188.85 77.2606 188.84 77.4171 188.773 77.5529C188.458 78.1749 188.106 78.7969 187.726 79.3989C187.693 79.4651 187.647 79.524 187.591 79.5723C187.535 79.6206 187.47 79.6573 187.399 79.6804C187.329 79.7035 187.254 79.7126 187.181 79.707C187.107 79.7014 187.035 79.6813 186.969 79.6478L186.952 79.6389L187.003 79.5958ZM131.234 48.9209C131.096 48.8512 130.989 48.7333 130.933 48.5898C130.91 48.5207 130.901 48.4477 130.907 48.375C130.912 48.3023 130.931 48.2315 130.964 48.1664C130.997 48.1013 131.043 48.0433 131.098 47.9958C131.153 47.9484 131.217 47.9124 131.287 47.8899H131.298C131.964 47.6746 132.637 47.4932 133.317 47.3458C133.462 47.3055 133.617 47.3236 133.748 47.3964C133.88 47.4691 133.979 47.5906 134.022 47.7349C134.043 47.8043 134.05 47.8771 134.043 47.9493C134.036 48.0215 134.015 48.0916 133.98 48.1556C133.946 48.2196 133.9 48.2762 133.844 48.3223C133.788 48.3683 133.723 48.4028 133.654 48.4238L133.636 48.4288C132.961 48.6178 132.329 48.8199 131.65 48.9839C131.575 49.0102 131.494 49.0203 131.415 49.0135C131.336 49.0068 131.259 48.9834 131.189 48.9448L131.234 48.9209ZM189.351 74.7208C189.227 74.6588 189.129 74.5537 189.076 74.425C189.023 74.2964 189.018 74.1528 189.063 74.0209L189.363 73.0848L189.683 72.0739C189.722 71.9324 189.815 71.812 189.942 71.739C190.069 71.6661 190.22 71.6467 190.362 71.6849H190.374C190.519 71.7213 190.643 71.8137 190.72 71.942C190.797 72.0703 190.82 72.2238 190.784 72.3689L190.443 73.4448L190.137 74.4128C190.111 74.4825 190.073 74.5466 190.023 74.6013C189.973 74.6561 189.913 74.7005 189.846 74.7319C189.779 74.7634 189.706 74.7814 189.632 74.7848C189.558 74.7882 189.484 74.777 189.414 74.7518L189.351 74.7208ZM136.552 47.5059C136.476 47.4702 136.41 47.4186 136.357 47.3547C136.303 47.2909 136.264 47.2162 136.243 47.1359C136.226 47.0652 136.223 46.9919 136.234 46.9202C136.246 46.8484 136.271 46.7796 136.309 46.7177C136.347 46.6557 136.397 46.6018 136.455 46.5591C136.514 46.5164 136.581 46.4858 136.652 46.4689H136.669C137.348 46.3059 138.045 46.1589 138.739 46.0239C138.887 45.9936 139.041 46.0225 139.167 46.1046C139.294 46.1867 139.384 46.3154 139.417 46.4629C139.433 46.5337 139.435 46.6071 139.423 46.6788C139.411 46.7505 139.385 46.819 139.346 46.8806C139.307 46.9422 139.257 46.9955 139.198 47.0376C139.138 47.0797 139.072 47.1097 139.001 47.1259H138.981C138.297 47.2649 137.604 47.4009 136.939 47.5569C136.797 47.6017 136.644 47.5913 136.51 47.5278L136.552 47.5059ZM141.973 46.4989C141.891 46.4579 141.82 46.3988 141.765 46.3259C141.71 46.2531 141.673 46.1685 141.656 46.0789C141.643 46.0075 141.644 45.9343 141.659 45.8634C141.674 45.7925 141.704 45.7253 141.745 45.6656C141.786 45.606 141.839 45.5551 141.9 45.5159C141.961 45.4766 142.029 45.4498 142.1 45.4369H142.121C142.815 45.3369 143.521 45.2309 144.221 45.1449C144.371 45.1267 144.523 45.1676 144.644 45.2589C144.766 45.3503 144.847 45.485 144.871 45.6349C144.881 45.7067 144.877 45.78 144.859 45.8503C144.841 45.9207 144.81 45.9868 144.766 46.0449C144.723 46.1031 144.669 46.1522 144.606 46.1892C144.544 46.2263 144.475 46.2506 144.403 46.2609H144.388C143.688 46.3469 142.988 46.4459 142.308 46.5499C142.181 46.5829 142.047 46.5733 141.926 46.5228L141.973 46.4989ZM190.59 69.4779C190.484 69.4268 190.397 69.3441 190.34 69.2412C190.284 69.1384 190.26 69.0206 190.274 68.9039C190.36 68.2209 190.411 67.5388 190.433 66.8708C190.436 66.7243 190.499 66.5854 190.605 66.4845C190.711 66.3836 190.853 66.3291 191 66.3329H191.016C191.167 66.3434 191.308 66.4101 191.411 66.5195C191.514 66.629 191.573 66.7733 191.575 66.9238C191.543 67.6238 191.493 68.3419 191.401 69.0469C191.382 69.1946 191.305 69.3287 191.187 69.42C191.069 69.5114 190.921 69.5528 190.773 69.5349C190.706 69.5263 190.641 69.5056 190.582 69.4739L190.59 69.4779ZM147.405 45.8639C147.257 45.8358 147.126 45.75 147.041 45.6255C146.957 45.501 146.924 45.3478 146.953 45.1998C146.966 45.1265 146.995 45.0566 147.036 44.9941C147.076 44.9317 147.129 44.8778 147.191 44.8357C147.252 44.7936 147.322 44.7641 147.395 44.7489C147.468 44.7337 147.543 44.7329 147.617 44.7468L149.738 44.5898C149.889 44.5829 150.038 44.635 150.152 44.7351C150.266 44.8353 150.336 44.9756 150.349 45.1268C150.356 45.2751 150.304 45.4203 150.205 45.5308C150.106 45.6412 149.967 45.7081 149.819 45.7169L147.734 45.8729C147.623 45.9067 147.505 45.9021 147.397 45.8599L147.405 45.8639ZM152.922 45.5638C152.83 45.5169 152.753 45.447 152.697 45.3608C152.641 45.2747 152.609 45.1754 152.604 45.0729C152.599 44.9264 152.652 44.7838 152.752 44.6765C152.852 44.5693 152.99 44.5061 153.137 44.5009H153.152C153.852 44.4869 154.572 44.4648 155.282 44.4648C155.432 44.4667 155.576 44.526 155.683 44.6305C155.791 44.735 155.855 44.8768 155.862 45.0269C155.863 45.1764 155.804 45.3202 155.7 45.4269C155.595 45.5335 155.452 45.5942 155.303 45.5958L153.203 45.6279C153.102 45.623 153.004 45.5992 152.912 45.5579L152.922 45.5638ZM190.596 64.0009C190.509 63.9572 190.435 63.8928 190.38 63.8134C190.324 63.7339 190.29 63.642 190.279 63.5459C190.197 62.8689 190.079 62.1929 189.941 61.5459C189.908 61.403 189.934 61.2529 190.012 61.1288C190.09 61.0046 190.214 60.9166 190.357 60.8839L190.377 60.8789C190.525 60.8488 190.679 60.878 190.806 60.9603C190.932 61.0426 191.022 61.1713 191.055 61.3188C191.205 62.0048 191.323 62.7188 191.412 63.4438C191.424 63.5908 191.379 63.737 191.286 63.8512C191.193 63.9654 191.058 64.0385 190.912 64.0549C190.8 64.0645 190.688 64.0437 190.588 63.9949L190.596 64.0009ZM158.468 45.5449C158.371 45.4953 158.29 45.4196 158.233 45.3265C158.177 45.2335 158.148 45.1266 158.149 45.0178C158.149 44.8742 158.206 44.7365 158.308 44.6349C158.409 44.5333 158.547 44.4761 158.691 44.4758H158.723L160.85 44.5579C160.925 44.5599 160.998 44.5767 161.065 44.6069C161.133 44.6372 161.194 44.6805 161.245 44.7344C161.296 44.7882 161.335 44.8515 161.362 44.9208C161.388 44.99 161.401 45.0639 161.399 45.1379V45.1459C161.397 45.2185 161.381 45.2901 161.351 45.3564C161.321 45.4228 161.279 45.4826 161.226 45.5326C161.173 45.5826 161.111 45.6216 161.043 45.6476C160.975 45.6735 160.903 45.6858 160.83 45.6838H160.815L158.715 45.5979C158.63 45.6084 158.543 45.6012 158.461 45.5769L158.468 45.5449ZM189.263 58.7148C189.141 58.6527 189.044 58.5508 188.988 58.4259C188.719 57.7996 188.414 57.1893 188.075 56.5979C188.04 56.5339 188.02 56.4638 188.013 56.3916C188.006 56.3194 188.013 56.2465 188.034 56.1771C188.055 56.1077 188.09 56.0433 188.136 55.9873C188.182 55.9313 188.239 55.8849 188.303 55.8508L188.313 55.8448C188.449 55.7811 188.605 55.771 188.748 55.8165C188.892 55.8621 189.013 55.96 189.088 56.0908C189.45 56.721 189.773 57.3725 190.056 58.0419C190.083 58.1108 190.096 58.1844 190.095 58.2585C190.094 58.3327 190.078 58.4058 190.048 58.4738C190.019 58.5417 189.976 58.6033 189.923 58.6548C189.869 58.7063 189.807 58.7468 189.738 58.7739C189.665 58.8026 189.587 58.8159 189.509 58.813C189.431 58.8101 189.355 58.7909 189.285 58.7568L189.263 58.7148ZM164.03 45.8849C163.93 45.8363 163.847 45.7593 163.791 45.6636C163.735 45.5678 163.708 45.4577 163.715 45.3469C163.719 45.2744 163.737 45.2033 163.768 45.1378C163.8 45.0723 163.844 45.0137 163.898 44.9653C163.952 44.9169 164.015 44.8798 164.084 44.8558C164.152 44.8319 164.225 44.8217 164.298 44.8259H164.317C164.839 44.8609 165.367 44.9098 165.882 44.9658L166.436 45.0109C166.586 45.0263 166.725 45.099 166.823 45.2139C166.921 45.3287 166.971 45.4771 166.963 45.6279C166.949 45.7737 166.878 45.9082 166.766 46.002C166.654 46.0957 166.509 46.141 166.363 46.1279H166.34L165.787 46.0829C165.272 46.0259 164.754 45.9829 164.243 45.9489L164.03 45.8849ZM169.556 46.4509C169.413 46.4057 169.294 46.3057 169.225 46.173C169.156 46.0403 169.143 45.8856 169.188 45.7429C169.21 45.6723 169.246 45.6067 169.294 45.5499C169.341 45.4932 169.399 45.4463 169.465 45.4121C169.531 45.3779 169.603 45.3571 169.677 45.3507C169.75 45.3443 169.825 45.3525 169.896 45.3749C170.619 45.4849 171.338 45.6068 172.007 45.7358C172.155 45.7623 172.287 45.8458 172.374 45.9685C172.462 46.0912 172.497 46.2431 172.474 46.3918C172.475 46.4659 172.463 46.5396 172.436 46.6088C172.409 46.6779 172.369 46.7411 172.318 46.7948C172.267 46.8485 172.206 46.8916 172.139 46.9216C172.071 46.9517 171.998 46.968 171.924 46.9698C171.843 46.972 171.764 46.9568 171.69 46.9249C171.021 46.7959 170.326 46.6709 169.625 46.5679L169.556 46.4509ZM186.323 54.0199C186.257 53.9869 186.199 53.9402 186.153 53.8829C185.697 53.378 185.212 52.9005 184.7 52.4529C184.642 52.4052 184.595 52.3467 184.56 52.2806C184.525 52.2146 184.504 52.1422 184.497 52.0679C184.49 51.9935 184.498 51.9185 184.521 51.8473C184.543 51.7761 184.58 51.71 184.628 51.6528L184.634 51.6459C184.737 51.5371 184.879 51.4721 185.029 51.4645C185.179 51.4568 185.326 51.5071 185.44 51.6049C185.99 52.0855 186.512 52.5984 187.002 53.1409C187.101 53.2514 187.153 53.3967 187.146 53.5452C187.139 53.6937 187.073 53.8334 186.964 53.9338C186.876 54.0277 186.761 54.0905 186.634 54.1123C186.508 54.1342 186.377 54.114 186.264 54.0549L186.323 54.0199ZM174.983 47.5889C174.863 47.5314 174.767 47.4334 174.712 47.3121C174.657 47.1908 174.646 47.054 174.683 46.9259C174.721 46.7846 174.815 46.6644 174.942 46.5917C175.07 46.519 175.22 46.4995 175.362 46.5378H175.372L177.428 47.1888C177.498 47.2111 177.564 47.2471 177.62 47.2948C177.677 47.3425 177.724 47.4009 177.758 47.4667C177.792 47.5324 177.813 47.6043 177.82 47.6781C177.826 47.7519 177.818 47.8262 177.796 47.8969C177.751 48.0394 177.65 48.1581 177.517 48.2269C177.385 48.2958 177.23 48.3091 177.088 48.2639L175.097 47.6339L174.983 47.5889ZM182.044 50.5228C181.468 50.1748 180.862 49.8408 180.226 49.5328C180.091 49.4695 179.987 49.355 179.936 49.2146C179.885 49.0742 179.891 48.9193 179.954 48.7839C180.028 48.6775 180.135 48.5989 180.259 48.5608C180.383 48.5227 180.516 48.5273 180.637 48.5739C181.302 48.9029 181.95 49.2499 182.555 49.6189C182.681 49.6926 182.773 49.8135 182.811 49.9551C182.848 50.0966 182.828 50.2472 182.755 50.3739L182.745 50.3909C182.664 50.513 182.54 50.5991 182.397 50.6312C182.254 50.6633 182.105 50.6388 181.98 50.5629L182.044 50.5228Z" fill="#80C8EF"/>
</svg>
