<svg width="312" height="280" viewBox="0 0 312 280" fill="none" xmlns="http://www.w3.org/2000/svg">
<g clip-path="url(#clip0_1688_55979)">
<mask id="mask0_1688_55979" style="mask-type:luminance" maskUnits="userSpaceOnUse" x="0" y="0" width="312" height="280">
<path d="M312 0H0V280H312V0Z" fill="white"/>
</mask>
<g mask="url(#mask0_1688_55979)">
<mask id="mask1_1688_55979" style="mask-type:luminance" maskUnits="userSpaceOnUse" x="-24" y="0" width="360" height="280">
<path d="M336 0H-24V280H336V0Z" fill="white"/>
</mask>
<g mask="url(#mask1_1688_55979)">
<mask id="mask2_1688_55979" style="mask-type:luminance" maskUnits="userSpaceOnUse" x="16" y="50" width="274" height="192">
<path d="M289.185 50.381H16.2695V241.167H289.185V50.381Z" fill="white"/>
</mask>
<g mask="url(#mask2_1688_55979)">
<mask id="mask3_1688_55979" style="mask-type:luminance" maskUnits="userSpaceOnUse" x="16" y="50" width="274" height="191">
<path d="M289.183 50.381H16.2695V240.006H289.183V50.381Z" fill="white"/>
</mask>
<g mask="url(#mask3_1688_55979)">
<path d="M212.683 239.914C156.816 230.362 101.506 236.552 44.9832 222.52C30.6322 218.968 18.8832 214.72 16.6262 199.201C14.3172 183.271 27.4382 177.78 38.8862 173.957C67.7112 164.318 75.2782 144.651 72.4302 116.921C63.9112 34.221 103.317 40.783 151.751 71.911C169.988 83.638 186.441 81.658 204.608 75.273C220.329 69.741 236.408 64.508 252.834 71.873C267.241 78.323 281.261 84.722 273.311 105.763C267.67 120.677 273.062 136.674 280.086 149.988C308.167 203.309 265.931 249.018 212.683 239.914Z" fill="#272258" fill-opacity="0.12" stroke="white" stroke-width="0.18" stroke-miterlimit="10"/>
</g>
</g>
<path d="M233.997 240.522C227.504 240.505 221.038 239.689 214.745 238.094C190.745 232.073 166.169 228.994 142.401 226.013C127.078 224.092 111.234 222.106 95.6478 219.349C87.2528 217.864 79.6058 216.281 72.2688 214.51C64.0298 212.521 56.3918 210.347 48.9188 207.865C41.2728 205.328 35.2448 202.882 30.6788 199.19C28.2447 197.27 26.2431 194.858 24.8048 192.112C23.2246 188.96 22.3268 185.51 22.1698 181.988C21.8586 178.471 22.4592 174.933 23.9138 171.715C25.247 169.007 27.2275 166.669 29.6798 164.909C34.3798 161.43 40.6628 159.539 46.7578 158.015C73.4528 151.33 85.0578 134.758 84.3788 104.281C84.1928 97.3772 84.356 90.4684 84.8678 83.581C85.2677 78.0876 86.0722 72.6311 87.2748 67.256C88.2126 63.0221 89.6154 58.9048 91.4578 54.979C92.9313 51.8381 94.9005 48.9546 97.2898 46.439C99.5093 44.1399 102.191 42.3373 105.158 41.15C108.131 40.0085 111.293 39.4401 114.477 39.475C118.462 39.5392 122.417 40.1709 126.224 41.351C130.693 42.72 135.034 44.4781 139.197 46.605C147.704 50.861 157.081 56.905 167.864 65.085C177.382 72.317 187.049 75.685 198.287 75.685C204.564 75.685 211.415 74.633 219.847 72.375C229.656 69.752 238.508 67.581 247.515 67.581C254.869 67.4707 262.13 69.2436 268.606 72.731C282.261 80.176 296.38 87.874 286.531 108.756C280.951 120.62 282.007 135.074 289.759 152.944C294.651 164.344 296.786 175.572 296.105 186.321C295.799 191.294 294.848 196.206 293.278 200.934C291.768 205.453 289.676 209.755 287.056 213.734C284.321 217.874 281.049 221.632 277.326 224.911C273.548 228.234 269.366 231.067 264.879 233.344C260.235 235.698 255.326 237.486 250.256 238.669C244.925 239.91 239.47 240.532 233.997 240.522ZM114.475 40.478C111.418 40.3919 108.377 40.9394 105.542 42.0861C102.707 43.2328 100.14 44.9539 98.0028 47.141C93.6308 51.613 90.3488 58.458 88.2468 67.486C86.0078 77.101 85.0468 89.473 85.3768 104.259C85.609 110.724 85.0926 117.193 83.8378 123.539C83.2464 126.384 82.4209 129.174 81.3698 131.883C80.3579 134.477 79.0931 136.966 77.5938 139.312C76.0921 141.647 74.3456 143.815 72.3838 145.779C70.3248 147.827 68.059 149.657 65.6228 151.238C62.9539 152.961 60.1336 154.438 57.1968 155.65C53.8845 157.014 50.475 158.128 46.9968 158.985C41.0018 160.485 34.8268 162.338 30.2718 165.713C25.0408 169.588 22.7158 174.891 23.1648 181.924C24.1588 197.367 35.5578 202.379 49.2308 206.915C80.2308 217.215 111.898 221.181 142.523 225.015C154.423 226.507 166.729 228.049 178.808 229.941C192.358 232.063 204.193 234.411 214.986 237.119C221.2 238.695 227.584 239.501 233.995 239.519C255.826 239.519 275.349 229.672 286.218 213.179C297.271 196.407 298.201 175.155 288.837 153.337C285.621 146.297 283.449 138.826 282.388 131.159C281.907 127.328 281.899 123.452 282.365 119.619C282.855 115.708 283.954 111.899 285.622 108.328C289.913 99.228 289.906 92.244 285.603 86.336C281.737 81.029 274.817 77.256 268.124 73.607C261.794 70.2005 254.698 68.4697 247.511 68.579C238.625 68.579 229.84 70.735 220.101 73.339C211.582 75.62 204.649 76.683 198.282 76.683C192.997 76.7217 187.742 75.8955 182.724 74.237C177.139 72.3298 171.91 69.5051 167.254 65.879C144.72 48.788 127.455 40.478 114.475 40.478Z" fill="#272258" fill-opacity="0.32"/>
<path d="M195.734 226L127.223 234.054C123.87 234.447 120.496 233.516 117.818 231.461C115.14 229.405 113.37 226.386 112.883 223.045L93.4218 77.574C93.0007 74.2917 93.9008 70.9766 95.9239 68.3579C97.947 65.7392 100.928 64.0313 104.21 63.61L104.418 63.585L172.929 55.531C176.282 55.1388 179.656 56.0696 182.333 58.1255C185.011 60.1814 186.782 63.2004 187.269 66.541L206.731 212.007C207.151 215.29 206.251 218.605 204.227 221.224C202.204 223.843 199.222 225.55 195.94 225.971L195.734 225.996" fill="black"/>
<path d="M206.599 224.719L138.088 232.773C134.735 233.166 131.361 232.235 128.683 230.18C126.005 228.124 124.235 225.105 123.748 221.764L104.289 76.3C103.868 73.0176 104.768 69.7025 106.792 67.0838C108.815 64.4651 111.795 62.7573 115.078 62.336L115.286 62.311L183.799 54.254C187.152 53.8618 190.526 54.7925 193.203 56.8484C195.881 58.9044 197.652 61.9234 198.139 65.264L217.599 210.73C218.02 214.012 217.119 217.328 215.096 219.946C213.073 222.565 210.092 224.273 206.81 224.694L206.602 224.719" fill="#424749"/>
<path d="M101.357 106.3C102.863 111.124 103.798 116.107 104.144 121.149C104.157 121.299 104.229 121.437 104.344 121.533C104.401 121.581 104.467 121.617 104.538 121.639C104.609 121.662 104.684 121.67 104.758 121.663C104.832 121.656 104.904 121.635 104.97 121.601C105.036 121.567 105.094 121.519 105.142 121.462C105.19 121.405 105.226 121.34 105.248 121.269C105.27 121.198 105.278 121.123 105.272 121.049C104.914 115.91 103.957 110.831 102.421 105.914C102.205 105.22 101.141 105.601 101.357 106.296" fill="#424749"/>
<path d="M106.79 136.6C107.904 139.451 108.154 142.567 107.51 145.559C107.496 145.632 107.497 145.707 107.512 145.78C107.528 145.852 107.557 145.921 107.599 145.982C107.641 146.044 107.694 146.096 107.757 146.136C107.819 146.177 107.888 146.205 107.961 146.219C108.034 146.232 108.109 146.231 108.182 146.216C108.254 146.201 108.323 146.171 108.385 146.129C108.446 146.087 108.498 146.034 108.539 145.972C108.579 145.91 108.607 145.84 108.621 145.767C109.304 142.577 109.037 139.258 107.854 136.218C107.798 136.084 107.693 135.977 107.56 135.919C107.427 135.86 107.277 135.855 107.14 135.904C107.004 135.953 106.891 136.052 106.826 136.182C106.761 136.311 106.748 136.461 106.79 136.6Z" fill="#424749"/>
<path d="M140.737 71.042L162.817 68.404C163.537 68.317 163.448 67.19 162.722 67.276L140.641 69.916C139.921 70.002 140.01 71.128 140.741 71.042" fill="black"/>
<path d="M205.24 219.262L137.759 227.2C135.935 227.413 134.1 226.907 132.643 225.789C131.187 224.671 130.224 223.029 129.959 221.212L111.943 86.558C111.829 85.6749 111.89 84.7779 112.122 83.9183C112.355 83.0588 112.754 82.2534 113.298 81.5483C113.842 80.8432 114.52 80.2522 115.292 79.8089C116.064 79.3657 116.916 79.0789 117.8 78.965L117.923 78.95L185.4 71.017C187.223 70.8027 189.058 71.3079 190.514 72.4252C191.971 73.5424 192.934 75.1837 193.2 77L211.213 211.65C211.327 212.533 211.266 213.43 211.033 214.29C210.801 215.15 210.401 215.955 209.857 216.66C209.313 217.365 208.636 217.956 207.863 218.4C207.091 218.843 206.239 219.13 205.356 219.244L205.234 219.258" fill="#CC092F"/>
<g opacity="0.96">
<mask id="mask4_1688_55979" style="mask-type:luminance" maskUnits="userSpaceOnUse" x="136" y="120" width="49" height="47">
<path d="M184.774 120.83H136.613V166.922H184.774V120.83Z" fill="white"/>
</mask>
<g mask="url(#mask4_1688_55979)">
<mask id="mask5_1688_55979" style="mask-type:luminance" maskUnits="userSpaceOnUse" x="136" y="120" width="49" height="47">
<path d="M143.797 120.83L136.613 159.263L177.591 166.922L184.774 128.489L143.797 120.83Z" fill="white"/>
</mask>
<g mask="url(#mask5_1688_55979)">
<path d="M159.136 133.119C156.573 133.461 154.042 134.011 151.568 134.762C153.644 131.437 156.938 129.056 160.747 128.126C164.555 127.197 168.576 127.794 171.95 129.789C172.409 130.075 172.734 130.065 173.018 129.714C173.302 129.363 173.232 129.056 172.831 128.699C170.717 126.816 168.154 125.506 165.389 124.896C162.624 124.286 159.749 124.396 157.039 125.215C154.328 126.034 151.873 127.534 149.908 129.573C147.944 131.612 146.535 134.121 145.817 136.86C143.97 137.674 142.21 138.672 140.563 139.838C140.144 140.145 140.021 140.475 140.226 140.826C140.327 140.983 140.486 141.094 140.668 141.135C140.849 141.176 141.04 141.144 141.199 141.046C142.564 140.459 143.969 139.931 145.442 139.424C145.37 140.24 145.381 141.061 145.476 141.874C145.768 144.549 146.753 147.101 148.332 149.279C149.912 151.457 152.032 153.186 154.484 154.294C154.967 154.515 155.352 154.465 155.568 154.094C155.784 153.723 155.715 153.415 155.29 153.122C153.721 152.036 152.4 150.629 151.415 148.994C150.43 147.36 149.803 145.535 149.576 143.64C149.345 141.794 149.508 139.919 150.053 138.14C151.548 137.82 153.175 137.515 154.974 137.281C166.674 135.763 176.99 138.263 177.59 143.218C177.89 145.727 174.951 148.656 171.297 150.828C170.413 151.353 170.351 151.643 170.528 152.028C170.702 152.382 171.139 152.452 171.598 152.234C178.082 149.192 182.761 144.966 182.241 140.662C181.533 134.808 171.348 131.536 159.141 133.124" fill="#F0F1F5"/>
<path d="M165.799 149.322L162.641 151.684L164.041 163.315C164.041 163.315 164.106 163.31 164.582 163.248L167.657 162.848C167.829 162.85 167.995 162.783 168.118 162.663C168.241 162.543 168.312 162.378 168.314 162.206C168.314 162.166 168.311 162.127 168.305 162.088L166.805 149.657C166.742 149.144 166.292 148.957 165.796 149.321" fill="#F0F1F5"/>
<path d="M161.736 152.356L159.518 154.011C159.404 154.086 159.313 154.193 159.257 154.318C159.202 154.443 159.183 154.582 159.203 154.717L160.247 163.35C160.251 163.46 160.299 163.563 160.379 163.638C160.459 163.713 160.566 163.754 160.675 163.75C160.706 163.749 160.737 163.744 160.766 163.736L163.077 163.436L161.736 152.356Z" fill="#F0F1F5"/>
</g>
</g>
</g>
<path d="M217.837 197.109C217.806 197.213 217.797 197.323 217.811 197.431C217.822 197.594 217.874 197.752 217.963 197.889C218.052 198.026 218.174 198.138 218.318 198.215C221.675 199.955 230.199 200.748 235.825 197.115C241.303 199.884 247.61 200.533 253.537 198.937C259.463 197.34 264.591 193.611 267.937 188.465C271.282 183.319 272.609 177.119 271.663 171.055C270.716 164.99 267.563 159.489 262.809 155.607C258.055 151.725 252.034 149.736 245.903 150.021C239.772 150.306 233.962 152.846 229.589 157.152C225.216 161.459 222.587 167.229 222.208 173.355C221.829 179.482 223.725 185.532 227.534 190.345C225.682 193.693 222.826 196.345 218.404 196.679C218.279 196.691 218.161 196.737 218.06 196.812C217.96 196.887 217.883 196.989 217.837 197.105" fill="#DBDBDA"/>
<path d="M241.516 202.1C237.495 204.592 232.273 204.924 228.325 204.364C226.754 204.181 225.223 203.749 223.788 203.085C223.579 202.975 223.403 202.813 223.274 202.616C223.145 202.418 223.068 202.191 223.051 201.956C223.03 201.782 223.05 201.605 223.109 201.44C223.184 201.25 223.311 201.086 223.475 200.964C223.639 200.842 223.833 200.768 224.037 200.751C227.701 200.479 230.61 198.5 232.688 194.881C228.868 189.947 226.998 183.78 227.435 177.556C227.871 171.331 230.583 165.485 235.054 161.133C239.525 156.78 245.441 154.225 251.675 153.956C257.909 153.686 264.024 155.721 268.854 159.671C273.684 163.622 276.89 169.212 277.862 175.375C278.834 181.539 277.504 187.844 274.124 193.09C270.744 198.335 265.552 202.152 259.538 203.814C253.524 205.476 247.108 204.867 241.515 202.101M224.101 201.601C224.057 201.607 224.015 201.624 223.98 201.652C223.945 201.679 223.917 201.715 223.901 201.756C223.896 201.801 223.896 201.847 223.901 201.892C223.907 201.983 223.935 202.071 223.984 202.147C224.033 202.224 224.101 202.287 224.181 202.33C226.93 203.425 229.888 203.897 232.842 203.711C235.795 203.525 238.67 202.686 241.261 201.255L241.461 201.122L241.68 201.232C247.062 203.953 253.26 204.59 259.084 203.021C264.907 201.452 269.946 197.788 273.233 192.731C276.52 187.674 277.824 181.582 276.894 175.623C275.964 169.664 272.866 164.258 268.194 160.443C263.523 156.629 257.607 154.674 251.582 154.954C245.557 155.234 239.848 157.73 235.551 161.961C231.254 166.193 228.67 171.863 228.297 177.882C227.924 183.902 229.788 189.847 233.53 194.577L233.707 194.8L233.569 195.048C231.335 199.091 228.148 201.295 224.098 201.601" fill="#1E2445"/>
<path d="M241.399 180.824C242.133 181.657 242.887 182.469 243.662 183.26C244.409 184.199 245.343 184.971 246.406 185.527C248.739 186.393 250.3 184.141 251.631 182.696L260.775 172.762C261.137 172.425 261.353 171.961 261.378 171.468C261.402 170.974 261.234 170.49 260.908 170.119C260.568 169.75 260.098 169.527 259.597 169.497C259.096 169.466 258.603 169.631 258.221 169.957L250.34 178.52L248.447 180.573C248.133 180.915 247.822 181.263 247.502 181.599C247.365 181.711 247.24 181.836 247.129 181.973C247.01 182.202 247.091 181.923 247.194 181.994C247.242 182.026 247.794 182.036 247.783 182.047C247.772 182.058 247.294 181.581 247.237 181.524C246.912 181.208 246.591 180.888 246.273 180.563C245.569 179.841 244.885 179.101 244.221 178.342C243.889 177.978 243.428 177.758 242.936 177.731C242.444 177.704 241.961 177.871 241.591 178.197C241.221 178.522 240.994 178.98 240.958 179.471C240.922 179.963 241.081 180.449 241.4 180.824" fill="#36DC62"/>
<path d="M164.114 101.1L166.314 114.968C166.381 115.291 166.318 115.627 166.137 115.903C165.957 116.179 165.674 116.373 165.351 116.44H165.341H165.334C164.994 116.476 164.653 116.383 164.378 116.179C164.103 115.975 163.915 115.676 163.85 115.34L160.027 101.883C159.882 101.376 159.941 100.833 160.193 100.37C160.445 99.9068 160.868 99.561 161.372 99.407C161.46 99.3801 161.55 99.3621 161.642 99.353C162.161 99.2227 162.711 99.3029 163.172 99.5762C163.633 99.8495 163.966 100.294 164.101 100.812C164.127 100.905 164.145 101.001 164.153 101.097" fill="#BA0F48"/>
<path d="M187.798 118.9L178.064 123.487C177.96 123.544 177.846 123.58 177.728 123.593C177.61 123.606 177.491 123.595 177.377 123.562C177.264 123.528 177.158 123.473 177.065 123.398C176.973 123.324 176.896 123.232 176.84 123.128V123.122V123.116L176.846 123.067C176.746 122.809 176.744 122.523 176.84 122.263C176.937 122.004 177.125 121.789 177.369 121.658L186.507 115.913C186.657 115.806 186.827 115.731 187.007 115.69C187.187 115.649 187.373 115.645 187.555 115.676C187.736 115.707 187.91 115.774 188.066 115.873C188.221 115.972 188.356 116.1 188.462 116.251L188.472 116.266C188.543 116.368 188.601 116.479 188.645 116.596C188.83 117.011 188.85 117.482 188.7 117.911C188.55 118.341 188.242 118.697 187.839 118.907" fill="#BA0F48"/>
<path d="M182.656 99.954L174.343 116.633C174.207 117.006 173.929 117.311 173.57 117.48C173.21 117.648 172.798 117.668 172.425 117.533L172.386 117.518L172.246 117.498C171.384 117.098 171.257 116.107 171.546 115.113L177.946 97.605C178.043 97.2883 178.202 96.9939 178.414 96.7387C178.625 96.4834 178.885 96.2723 179.178 96.1174C179.471 95.9625 179.791 95.8669 180.121 95.8359C180.451 95.805 180.784 95.8393 181.101 95.937L181.156 95.955L181.462 96.083C182.123 96.4533 182.615 97.066 182.833 97.7919C183.052 98.5178 182.98 99.3002 182.633 99.974" fill="#BA0F48"/>
<path d="M93.1623 143.279C92.8983 141.74 93.0063 140.161 93.4773 138.672C94.5658 137.698 95.9 137.041 97.3353 136.772C95.889 137.023 94.401 136.849 93.0513 136.272C92.3713 135.75 91.4413 133.588 91.1633 132.037C91.4483 133.627 91.2893 135.955 90.7883 136.737C90.2703 137.544 88.3883 138.304 86.9883 138.543C88.4356 138.291 89.9248 138.465 91.2753 139.043C92.2534 140.27 92.9035 141.726 93.1643 143.274" fill="#F4C500"/>
<path d="M192.086 76.256C191.888 75.1077 191.968 73.9287 192.321 72.818C193.132 72.0912 194.128 71.6008 195.199 71.4C194.118 71.5878 193.007 71.4582 191.999 71.027C191.265 70.1126 190.779 69.0241 190.59 67.867C190.818 69.0393 190.721 70.2518 190.31 71.373C189.532 72.1137 188.538 72.586 187.473 72.721C188.553 72.5327 189.665 72.6623 190.673 73.094C191.403 74.0102 191.888 75.0969 192.083 76.252" fill="#F4C500"/>
<path d="M105.086 192.256C104.888 191.108 104.968 189.929 105.321 188.818C106.132 188.091 107.128 187.601 108.199 187.4C107.118 187.588 106.007 187.458 104.999 187.027C104.265 186.113 103.779 185.024 103.59 183.867C103.818 185.039 103.721 186.252 103.31 187.373C102.532 188.114 101.538 188.586 100.473 188.721C101.553 188.533 102.665 188.662 103.673 189.094C104.403 190.01 104.888 191.097 105.083 192.252" fill="#F4C500"/>
<path d="M265.858 147.661C265.66 146.513 265.741 145.334 266.093 144.223C266.906 143.498 267.901 143.009 268.972 142.809C267.892 142.997 266.78 142.867 265.772 142.436C265.038 141.522 264.553 140.433 264.363 139.276C264.592 140.448 264.495 141.661 264.083 142.782C263.306 143.523 262.311 143.995 261.246 144.13C262.326 143.942 263.438 144.071 264.446 144.503C265.176 145.419 265.661 146.506 265.856 147.661" fill="#F4C500"/>
<path d="M84.8581 76.661C84.6603 75.5127 84.7409 74.3337 85.0931 73.223C85.9059 72.4979 86.9014 72.009 87.9721 71.809C86.8918 71.9968 85.7802 71.8672 84.7721 71.436C84.0382 70.5216 83.5528 69.4331 83.3631 68.276C83.5915 69.4483 83.4947 70.6608 83.0831 71.782C82.3056 72.5226 81.3114 72.995 80.2461 73.13C81.3264 72.9417 82.4381 73.0713 83.4461 73.503C84.176 74.4192 84.6612 75.5059 84.8561 76.661" fill="#F4C500"/>
</g>
<mask id="mask6_1688_55979" style="mask-type:luminance" maskUnits="userSpaceOnUse" x="-24" y="0" width="360" height="280">
<path d="M336 0H-24V280H336V0Z" fill="white"/>
</mask>
<g mask="url(#mask6_1688_55979)">
<path d="M78.6479 26.327C77.6248 31.1592 77.5775 36.1471 78.5087 40.9978C79.44 45.8485 81.3311 50.4643 84.0709 54.574C85.6096 56.8803 87.4136 58.9981 89.4459 60.884C90.5749 61.927 92.2689 60.239 91.1359 59.192C87.7775 56.0379 85.0817 52.2458 83.2062 48.0375C81.3307 43.8292 80.3131 39.2892 80.2129 34.683C80.1524 32.0887 80.4012 29.4965 80.9539 26.961C81.2829 25.461 78.9779 24.822 78.6479 26.327Z" fill="#36DC62"/>
<path d="M49.6056 114.051C51.3999 110.008 53.9903 106.368 57.2222 103.347C60.4541 100.327 64.2613 97.9888 68.4166 96.472C70.777 95.6018 73.2925 95.2316 75.8036 95.385C77.9735 95.4734 80.0372 96.3481 81.6096 97.846C82.6736 98.996 83.2006 101.22 81.7756 102.346C80.6576 103.228 78.9756 102.452 78.2416 101.282C77.0906 99.444 78.4416 97.141 79.9936 96.028C82.2036 94.448 85.1236 94.466 87.7166 94.628C89.2536 94.728 89.2466 92.328 87.7166 92.237C84.8646 92.059 81.7796 92.161 79.2536 93.661C78.1037 94.2926 77.1434 95.2199 76.4722 96.347C75.8009 97.4741 75.443 98.7602 75.4356 100.072C75.5214 101.253 75.989 102.375 76.7679 103.267C77.5468 104.159 78.5947 104.774 79.7536 105.018C80.3418 105.128 80.9462 105.117 81.5301 104.986C82.1139 104.854 82.6649 104.606 83.1495 104.255C83.6342 103.904 84.0423 103.458 84.349 102.944C84.6557 102.43 84.8546 101.859 84.9336 101.266C85.089 99.9809 84.8575 98.6786 84.2687 97.5257C83.68 96.3728 82.7608 95.4217 81.6286 94.794C79.1555 93.3461 76.2893 92.7139 73.4366 92.987C67.9596 93.37 62.6666 95.979 58.3636 99.287C53.6931 102.846 49.9751 107.505 47.5406 112.848C47.3904 113.124 47.3513 113.447 47.4312 113.751C47.5111 114.055 47.704 114.317 47.9706 114.484C48.2451 114.642 48.5706 114.685 48.8767 114.604C49.1828 114.524 49.445 114.326 49.6066 114.054" fill="#36DC62"/>
<path d="M93.1122 110.173C85.5122 113.816 80.4522 121.693 79.6042 129.991C79.3703 132.342 79.5032 134.714 79.9982 137.024C80.3152 138.529 82.6212 137.89 82.3032 136.387C81.6089 132.662 81.8667 128.823 83.0527 125.224C84.2386 121.626 86.3144 118.385 89.0872 115.803C90.6385 114.353 92.4034 113.151 94.3202 112.237C94.5916 112.075 94.7886 111.812 94.8686 111.507C94.9486 111.201 94.9054 110.875 94.7482 110.601C94.5833 110.333 94.321 110.138 94.0162 110.058C93.7114 109.979 93.3875 110.02 93.1122 110.173Z" fill="#3894D1"/>
<path d="M35.9838 62.116C42.0058 59.388 48.5498 57.071 55.2628 57.638C60.8358 58.109 66.9468 60.86 69.3518 66.225C70.4588 68.696 70.4348 71.667 68.4888 73.711C66.9028 75.377 64.3888 75.932 62.6888 74.13C61.2588 72.61 61.2008 70.235 63.2508 69.255C65.4648 68.197 68.2968 69.076 70.4108 69.955C76.3518 72.432 80.7608 77.645 83.8458 83.136C83.9975 83.3854 84.2411 83.5651 84.5241 83.6366C84.8071 83.7081 85.1068 83.6656 85.3587 83.5182C85.6107 83.3708 85.7946 83.1303 85.8709 82.8486C85.9473 82.5669 85.9099 82.2664 85.7668 82.012C82.6008 76.376 78.0988 71.074 72.1368 68.302C69.4058 67.033 66.0538 65.959 63.0598 66.947C62.3536 67.1563 61.699 67.5113 61.1384 67.9891C60.5777 68.4669 60.1235 69.0569 59.8048 69.721C59.5335 70.3748 59.4006 71.0778 59.4145 71.7855C59.4285 72.4932 59.5889 73.1904 59.8858 73.833C60.4326 75.1797 61.4617 76.2742 62.7721 76.9028C64.0825 77.5315 65.5802 77.6492 66.9728 77.233C68.4943 76.6988 69.8191 75.7177 70.7737 74.418C71.7283 73.1183 72.2682 71.5607 72.3228 69.949C72.4788 66.408 70.5228 63.03 68.0078 60.678C65.5421 58.4389 62.5521 56.8569 59.3138 56.078C51.9488 54.218 44.3828 56.148 37.5508 59.02C36.6481 59.3987 35.7505 59.7907 34.8578 60.196C34.6043 60.3463 34.4202 60.5904 34.3454 60.8755C34.2705 61.1605 34.3109 61.4635 34.4578 61.719C34.6115 61.9688 34.8555 62.1497 35.1391 62.2242C35.4228 62.2987 35.7242 62.261 35.9808 62.119" fill="#CC092F"/>
<path d="M44.341 146.643C46.941 147.407 52.578 149.317 50.917 153.174C49.978 155.355 46.955 156.336 45.148 157.621C43.867 158.428 42.8394 159.58 42.1831 160.944C41.5267 162.308 41.2681 163.83 41.437 165.334C41.866 169.162 44.479 172.065 47.037 174.734C48.246 175.997 50.161 174.078 48.954 172.816C46.472 170.222 43.003 166.616 44.338 162.646C45.238 159.965 48.431 158.926 50.548 157.423C52.909 155.747 54.548 153.214 53.575 150.23C52.35 146.47 48.52 145.042 45.066 144.03C44.7235 143.947 44.3623 144.001 44.0588 144.18C43.7553 144.359 43.5333 144.649 43.4397 144.989C43.346 145.328 43.3881 145.691 43.5571 146C43.726 146.309 44.0086 146.54 44.345 146.645" fill="#EFD900"/>
<path d="M71.9338 193.477L76.2518 193.562L75.2928 193.162C75.6582 193.53 75.9181 193.989 76.0456 194.492C76.1732 194.995 76.1635 195.522 76.0178 196.02C75.69 197.457 75.436 198.909 75.2568 200.372C75.1988 201.151 75.3008 201.933 75.5566 202.671C75.8123 203.409 76.2163 204.087 76.7438 204.663C78.1247 205.965 79.8263 206.876 81.6748 207.305C82.0173 207.388 82.3785 207.334 82.682 207.155C82.9855 206.976 83.2075 206.686 83.3011 206.347C83.3948 206.007 83.3527 205.644 83.1837 205.335C83.0148 205.026 82.7322 204.795 82.3958 204.69C80.8598 204.242 78.6958 203.49 78.1288 201.88C77.6628 200.552 78.1768 199.002 78.4728 197.58C78.9736 195.937 78.8924 194.171 78.2428 192.58C78.0352 192.185 77.7745 191.821 77.4678 191.497C77.2451 191.26 76.971 191.077 76.6665 190.963C76.3621 190.848 76.0355 190.805 75.7118 190.837L71.9338 190.762C71.5832 190.775 71.2514 190.924 71.0081 191.177C70.7648 191.43 70.6289 191.767 70.6289 192.118C70.6289 192.469 70.7648 192.806 71.0081 193.059C71.2514 193.312 71.5832 193.461 71.9338 193.474" fill="#EFD900"/>
<path d="M213.536 32.16C216.335 40.4721 216.005 49.5198 212.608 57.606C211.643 59.8841 210.438 62.0532 209.014 64.077C208.233 65.192 210.062 66.246 210.836 65.141C216.065 57.5612 218.355 48.3372 217.279 39.192C216.98 36.608 216.407 34.0631 215.57 31.6C215.133 30.322 213.094 30.872 213.536 32.162" fill="#36DC62"/>
<path d="M221.699 117.308C224.872 119.071 227.529 121.632 229.406 124.739C231.283 127.846 232.315 131.389 232.399 135.018C232.45 137.049 232.174 139.075 231.582 141.018C231.182 142.318 233.222 142.875 233.617 141.578C234.69 137.741 234.746 133.69 233.779 129.824C232.812 125.959 230.856 122.411 228.102 119.531C226.553 117.903 224.752 116.535 222.767 115.48C221.567 114.846 220.501 116.667 221.703 117.303" fill="#CC092F"/>
<path d="M220.41 98.036C221.886 94.3102 224.323 91.0422 227.473 88.565C229.014 87.2512 230.847 86.3254 232.819 85.865C234.495 85.5788 236.216 85.9557 237.619 86.916C240.373 88.9584 242.242 91.9759 242.844 95.351C243.166 96.7349 243.071 98.1828 242.572 99.513C242.438 99.8351 242.237 100.125 241.982 100.363C241.728 100.601 241.425 100.783 241.095 100.895C240.765 101.008 240.414 101.048 240.067 101.015C239.72 100.981 239.384 100.874 239.081 100.701C235.606 99.142 235.106 94.667 236.175 91.461C237.406 87.771 240.286 84.607 243.275 82.219C249.337 77.5328 256.946 75.3113 264.576 76C272.552 76.8255 280.051 80.198 285.96 85.618C286.715 86.294 287.444 86.9967 288.148 87.726C289.095 88.703 290.585 87.209 289.639 86.234C283.403 79.6653 275.142 75.38 266.18 74.065C261.923 73.5009 257.595 73.7838 253.448 74.8976C249.3 76.0114 245.413 77.9341 242.01 80.555C238.602 83.226 235.466 86.831 234.11 91.004C232.819 94.975 233.71 99.979 237.522 102.262C238.394 102.858 239.435 103.155 240.49 103.108C241.545 103.06 242.555 102.672 243.37 102.001C243.959 101.367 244.417 100.623 244.716 99.8112C245.015 98.9995 245.151 98.1364 245.114 97.272C245.105 95.4139 244.707 93.5783 243.946 91.883C243.183 89.9843 242.075 88.2436 240.677 86.749C239.272 85.144 237.346 84.0854 235.237 83.759C233.129 83.4326 230.973 83.8592 229.147 84.964C225.157 87.157 221.893 90.4665 219.755 94.487C219.233 95.4544 218.773 96.4537 218.376 97.479C218.304 97.7492 218.34 98.0372 218.479 98.2805C218.617 98.5238 218.845 98.7029 219.114 98.779C219.384 98.8474 219.67 98.8088 219.913 98.6713C220.155 98.5338 220.335 98.308 220.414 98.041" fill="#CC092F"/>
<path d="M268.876 50.979C262.306 48.052 255.212 45.671 247.932 46.756C241.856 47.656 235.155 51.484 233.662 57.891C233.251 59.4419 233.315 61.0804 233.846 62.5945C234.376 64.1086 235.349 65.4287 236.638 66.384C237.749 67.2388 239.141 67.6446 240.537 67.5209C241.933 67.3971 243.232 66.7529 244.175 65.716C245.947 63.682 246.318 60.493 244.111 58.608C241.84 56.669 238.491 57.056 235.869 57.949C229.124 60.249 224.109 65.873 220.739 71.958C220.08 73.147 221.903 74.211 222.561 73.022C225.152 68.344 228.678 63.983 233.406 61.343C235.532 60.155 238.09 59.106 240.575 59.358C241.088 59.3798 241.589 59.5147 242.043 59.7529C242.498 59.9911 242.894 60.3269 243.203 60.736C243.417 61.1017 243.54 61.5136 243.562 61.9369C243.584 62.3602 243.503 62.7825 243.327 63.168C243.156 63.6333 242.887 64.0564 242.538 64.4087C242.19 64.761 241.769 65.0342 241.306 65.2098C240.842 65.3854 240.346 65.4594 239.852 65.4266C239.357 65.3939 238.875 65.2552 238.439 65.02C237.343 64.4074 236.478 63.4532 235.975 62.303C235.472 61.1527 235.359 59.8695 235.653 58.649C236.815 53.131 242.497 49.907 247.633 48.936C254.555 47.626 261.558 50.015 267.812 52.802C268.056 52.9346 268.341 52.969 268.609 52.8984C268.877 52.8278 269.108 52.6574 269.255 52.422C269.394 52.1799 269.432 51.8929 269.361 51.6229C269.29 51.3529 269.116 51.1216 268.876 50.979Z" fill="#3894D1"/>
</g>
</g>
</g>
<defs>
<clipPath id="clip0_1688_55979">
<rect width="312" height="280" fill="white"/>
</clipPath>
</defs>
</svg>
