<svg width="313" height="280" viewBox="0 0 313 280" fill="none" xmlns="http://www.w3.org/2000/svg">
<g clip-path="url(#clip0_1481_46798)">
<path d="M138.674 223.531C130.946 223.635 123.301 221.929 116.35 218.551C100.032 210.451 88.7129 192.709 82.7079 165.815C76.0349 135.933 79.6837 131.491 105.446 117.379C118.484 110.236 132.032 103.579 145.135 97.1335C167.914 85.9335 191.468 74.3575 213.135 59.8535C227.435 50.2845 239.496 47.4985 248.99 51.5725C259.02 55.8725 265.744 67.5815 268.974 86.3645C278.986 144.575 252.917 185.726 191.491 208.674C189.653 209.361 187.755 209.974 185.919 210.574C182.926 211.479 179.987 212.557 177.119 213.802C162.969 220.282 150.114 223.531 138.674 223.531ZM83.6835 165.597C89.6195 192.182 100.76 209.698 116.795 217.655C132.566 225.483 152.723 223.878 176.704 212.887C179.608 211.626 182.582 210.534 185.613 209.617C187.439 209.027 189.325 208.418 191.142 207.738C252.053 184.982 277.909 144.203 267.991 86.5374C264.821 68.1094 258.296 56.6555 248.598 52.4945C239.435 48.5625 227.691 51.3195 213.698 60.6875C191.974 75.2285 168.388 86.8225 145.58 98.0345C132.487 104.471 118.95 111.127 105.931 118.259C80.3686 132.259 77.1309 136.215 83.6889 165.6L83.6835 165.597Z" fill="#272258" fill-opacity="0.32"/>
<path d="M71.6145 176.742C65.0655 147.414 68.3027 142.987 94.1057 128.852C129.795 109.3 167.664 94.1758 201.835 71.3038C231.702 51.3138 250.784 61.9038 256.903 97.4848C266.852 155.326 240.817 196.422 179.738 219.241C174.961 221.026 169.948 222.262 165.331 224.378C116.479 246.768 83.5235 230.059 71.6145 176.742Z" fill="#272258" fill-opacity="0.12"/>
<path d="M66.8291 58.8391L78.1011 135.514C78.4786 137.439 78.0762 139.436 76.982 141.065C75.8878 142.693 74.1914 143.821 72.2661 144.199C70.3624 144.574 68.3878 144.182 66.771 143.11C65.1542 142.037 64.026 140.37 63.6314 138.47C63.6104 138.37 63.5922 138.264 63.5772 138.16L42.3662 61.3111C41.9527 59.7611 41.8513 58.1444 42.0679 56.5548C42.2845 54.9653 42.8148 53.4346 43.628 52.0518C44.4411 50.6689 45.5209 49.4615 46.8047 48.4995C48.0885 47.5376 49.5509 46.8402 51.1065 46.4481C51.3315 46.3891 51.5581 46.3351 51.7871 46.2891C54.7893 45.5094 57.9778 45.9431 60.6626 47.4964C63.3475 49.0498 65.3129 51.5978 66.1333 54.5891C66.2563 55.0581 66.349 55.5344 66.4112 56.0152" fill="#CC092F"/>
<path d="M64.1245 168.48C63.4673 164.957 64.2318 161.316 66.2514 158.355C68.2711 155.395 71.3812 153.354 74.9013 152.68C78.2532 151.826 81.8063 152.326 84.792 154.072C87.7777 155.819 89.9559 158.671 90.8545 162.011C90.8875 162.138 90.9173 162.265 90.9463 162.393C91.6035 165.916 90.8384 169.556 88.8188 172.517C86.7992 175.478 83.6896 177.519 80.1694 178.193C76.807 179.048 73.2428 178.545 70.2485 176.792C67.2542 175.04 65.0706 172.179 64.1694 168.829C64.1414 168.719 64.1147 168.609 64.0893 168.499" fill="#CC092F"/>
<path d="M127.729 90.5998C127.94 89.3764 127.12 88.2133 125.897 88.0019C124.673 87.7905 123.51 88.6109 123.299 89.8343L105.214 194.499C105.003 195.723 105.823 196.886 107.047 197.097C108.27 197.309 109.433 196.488 109.645 195.265L127.729 90.5998Z" fill="#78797C"/>
<path d="M141.122 192.376C140.827 192.427 140.524 192.419 140.232 192.351C139.94 192.284 139.665 192.158 139.422 191.982C139.179 191.807 138.974 191.584 138.818 191.328C138.663 191.072 138.56 190.787 138.516 190.49L123.422 88.3842L127.852 87.6182L142.959 189.833C143.045 190.413 142.901 191.003 142.558 191.478C142.215 191.953 141.7 192.276 141.122 192.376Z" fill="#78797C"/>
<path d="M175.796 201.286L191.872 87.9132C191.981 87.3271 191.853 86.7218 191.515 86.2305C191.177 85.7391 190.659 85.402 190.072 85.2932C189.782 85.2393 189.484 85.243 189.195 85.3043C188.907 85.3656 188.633 85.4832 188.389 85.6503C188.146 85.8175 187.938 86.031 187.777 86.2785C187.617 86.5261 187.506 86.8029 187.452 87.0932L171.378 199.056C170.943 203.144 174.922 202.72 175.796 201.286Z" fill="#78797C"/>
<path d="M201.389 200.274C201.094 200.31 200.795 200.286 200.509 200.205C200.224 200.124 199.957 199.987 199.724 199.802C199.492 199.617 199.298 199.387 199.155 199.127C199.012 198.867 198.921 198.581 198.889 198.285L186.754 86.5182L191.218 85.9902L203.359 197.8C203.423 198.389 203.252 198.979 202.883 199.442C202.514 199.906 201.978 200.205 201.389 200.274Z" fill="#78797C"/>
<path d="M173.957 157.765H169.694V158.741H173.957V157.765Z" fill="#E1E1DF"/>
<path d="M193.337 121.588H109.837C109.526 121.578 109.221 121.498 108.945 121.353C108.669 121.208 108.43 121.003 108.245 120.752C108.06 120.501 107.934 120.212 107.877 119.905C107.82 119.599 107.833 119.284 107.915 118.983L113.537 96.3531C113.635 95.9255 113.871 95.5417 114.208 95.2606C114.545 94.9794 114.964 94.8163 115.402 94.7961L196.678 92.3491C196.975 92.349 197.268 92.4132 197.537 92.5374C197.806 92.6616 198.046 92.8428 198.238 93.0685C198.43 93.2941 198.571 93.5588 198.651 93.8444C198.731 94.1299 198.748 94.4294 198.701 94.7221L195.301 119.798C195.246 120.284 195.017 120.733 194.655 121.062C194.294 121.391 193.826 121.578 193.337 121.588Z" fill="#B5B6B9"/>
<path d="M192.846 120.091H108.626C108.425 120.091 108.227 120.045 108.046 119.956C107.865 119.867 107.707 119.738 107.584 119.579C107.461 119.42 107.376 119.234 107.336 119.037C107.295 118.84 107.301 118.636 107.351 118.441L113.259 95.7362C113.332 95.4602 113.491 95.215 113.714 95.0375C113.938 94.8599 114.212 94.7594 114.497 94.7512L196.368 92.3912C196.56 92.3857 196.751 92.4221 196.927 92.4978C197.103 92.5735 197.26 92.6867 197.388 92.8295C197.516 92.9723 197.611 93.1413 197.667 93.3246C197.723 93.508 197.738 93.7013 197.711 93.8912L194.151 118.948C194.109 119.264 193.954 119.554 193.714 119.765C193.474 119.975 193.165 120.091 192.846 120.091Z" fill="#6D6E71"/>
<path d="M189.387 168.103L102.462 166.087C102.305 166.083 102.151 166.045 102.011 165.973C101.871 165.902 101.749 165.8 101.654 165.676C101.558 165.551 101.492 165.406 101.46 165.252C101.429 165.098 101.432 164.94 101.469 164.787L103.3 157.539C103.357 157.313 103.489 157.112 103.673 156.968C103.857 156.825 104.084 156.747 104.317 156.747L190.603 156.865C190.752 156.865 190.9 156.897 191.035 156.959C191.171 157.02 191.292 157.11 191.39 157.222C191.489 157.334 191.562 157.466 191.605 157.609C191.648 157.751 191.661 157.901 191.641 158.049L190.449 167.196C190.415 167.452 190.288 167.685 190.092 167.853C189.896 168.02 189.645 168.109 189.387 168.103Z" fill="#B5B6B9"/>
<path d="M205.09 162.391L132.781 160.061C132.589 160.055 132.4 160.01 132.225 159.929C132.05 159.847 131.894 159.732 131.765 159.588C131.637 159.445 131.538 159.277 131.476 159.095C131.414 158.912 131.39 158.719 131.404 158.527L131.642 155.382C131.67 155.015 131.839 154.673 132.113 154.427C132.388 154.182 132.746 154.052 133.114 154.064L205.414 156.543C205.607 156.55 205.796 156.595 205.97 156.677C206.145 156.759 206.301 156.875 206.429 157.018C206.557 157.162 206.655 157.33 206.717 157.512C206.778 157.694 206.802 157.887 206.787 158.079L206.556 161.079C206.527 161.444 206.359 161.784 206.086 162.028C205.813 162.273 205.456 162.403 205.09 162.391Z" fill="#78797C"/>
<path d="M188.766 166.837L100.788 164.796C100.704 164.794 100.621 164.773 100.546 164.735C100.471 164.696 100.405 164.641 100.355 164.574C100.304 164.507 100.269 164.429 100.253 164.346C100.236 164.263 100.239 164.178 100.26 164.096L102.334 155.882C102.365 155.761 102.435 155.654 102.534 155.578C102.632 155.501 102.753 155.46 102.877 155.46L190.101 155.579C190.181 155.579 190.259 155.596 190.332 155.629C190.404 155.662 190.468 155.71 190.521 155.77C190.573 155.829 190.612 155.899 190.635 155.975C190.658 156.051 190.665 156.131 190.654 156.21L189.334 166.345C189.318 166.483 189.25 166.609 189.145 166.7C189.04 166.791 188.905 166.84 188.766 166.837Z" fill="#78797C"/>
<mask id="mask0_1481_46798" style="mask-type:luminance" maskUnits="userSpaceOnUse" x="107" y="92" width="91" height="29">
<path d="M194.225 120.086H107.156L111.756 94.8181L197.691 92.3491L194.225 120.086Z" fill="white"/>
</mask>
<g mask="url(#mask0_1481_46798)">
<path d="M139.085 120.073H126.505L154.696 92.3491H167.276L139.085 120.073Z" fill="#FCFCFC"/>
<path d="M112.668 120.073H100.088L128.279 92.3491H140.859L112.668 120.073Z" fill="#FCFCFC"/>
<path d="M165.501 120.073H152.921L181.108 92.3491H193.688L165.501 120.073Z" fill="#FCFCFC"/>
<path d="M191.918 120.073H179.338L207.529 92.3491H220.109L191.918 120.073Z" fill="#FCFCFC"/>
</g>
<mask id="mask1_1481_46798" style="mask-type:luminance" maskUnits="userSpaceOnUse" x="100" y="155" width="91" height="12">
<path d="M189.268 166.854L100.088 164.786L106.675 155.471L190.736 155.591L189.268 166.854Z" fill="white"/>
</mask>
<g mask="url(#mask1_1481_46798)">
<path d="M132.031 170.668H119.451L147.642 144.902H160.221L132.031 170.668Z" fill="#FCFCFC"/>
<path d="M105.614 170.668H93.0344L121.225 144.902H133.805L105.614 170.668Z" fill="#FCFCFC"/>
<path d="M158.447 170.668H145.867L174.058 144.902H186.638L158.447 170.668Z" fill="#FCFCFC"/>
<path d="M184.865 170.668H172.285L200.476 144.902H213.056L184.865 170.668Z" fill="#FCFCFC"/>
</g>
<path d="M169.947 201.399C169.634 201.401 169.322 201.352 169.024 201.254C168.429 201.054 167.075 200.312 167.342 197.794L171.78 166.882L136.255 166.058L139.58 188.558C139.63 188.893 139.613 189.234 139.531 189.563C139.448 189.891 139.302 190.2 139.1 190.472C138.898 190.743 138.645 190.973 138.355 191.147C138.064 191.321 137.742 191.436 137.407 191.485C136.731 191.585 136.043 191.412 135.494 191.005C135.222 190.803 134.993 190.55 134.819 190.259C134.645 189.969 134.53 189.647 134.48 189.312L131.025 165.938L111.203 165.476L106.263 194.094C106.138 194.759 105.756 195.347 105.2 195.732C104.644 196.118 103.959 196.269 103.292 196.154C102.626 196.039 102.031 195.666 101.637 195.117C101.243 194.567 101.081 193.884 101.185 193.216L105.999 165.356L98.7644 165.189C98.4195 165.185 98.0889 165.051 97.8383 164.814C97.5876 164.577 97.4352 164.254 97.4114 163.91L97.0754 163.903C96.9428 163.899 96.8127 163.866 96.6946 163.806C96.5766 163.745 96.4735 163.659 96.3931 163.554C96.3126 163.448 96.2568 163.326 96.2297 163.196C96.2026 163.066 96.2049 162.932 96.2364 162.803L98.3104 154.589C98.3586 154.398 98.4692 154.228 98.6249 154.107C98.7805 153.986 98.9722 153.92 99.1694 153.92L107.969 153.931L113.712 120.694H106.13C105.597 120.687 105.082 120.496 104.672 120.153C104.262 119.811 103.983 119.338 103.88 118.814C103.635 118.618 103.451 118.354 103.353 118.055C103.254 117.756 103.245 117.434 103.325 117.13L109.233 94.4301C109.324 94.0859 109.524 93.7801 109.802 93.5584C110.081 93.3366 110.424 93.2106 110.779 93.1991L118.503 92.9781L119.266 88.5601C119.309 88.3258 119.384 88.0989 119.491 87.8861L119.391 87.2161C119.379 87.1313 119.4 87.0448 119.45 86.9752C119.5 86.9057 119.576 86.8586 119.66 86.8441L120.74 86.6581C121.133 86.4843 121.563 86.4098 121.991 86.4411L124.091 86.0781C124.179 86.0646 124.268 86.0853 124.34 86.1361C124.376 86.1618 124.406 86.1943 124.429 86.2318C124.451 86.2692 124.466 86.3108 124.472 86.3541L125.423 92.7811L167.463 91.5621L182.663 91.1051L183.053 88.3831L182.721 85.3261C182.712 85.2402 182.738 85.1542 182.791 85.0866C182.845 85.0191 182.924 84.9754 183.009 84.9651L183.809 84.8711C184.133 84.3715 184.621 83.9999 185.188 83.8197C185.756 83.6395 186.368 83.662 186.921 83.8832C187.474 84.1045 187.932 84.5108 188.219 85.0328C188.505 85.5548 188.602 86.16 188.491 86.7451L188.246 88.4701L188.513 90.9281L192.962 90.7941C193.292 90.7876 193.62 90.8522 193.923 90.9835C194.226 91.1148 194.497 91.3098 194.717 91.5551C194.956 91.8227 195.133 92.139 195.237 92.4819C195.34 92.8249 195.368 93.1864 195.317 93.5411L191.917 118.617C191.875 118.928 191.773 119.229 191.617 119.501L195.446 154.769L201.724 154.984C201.961 154.992 202.194 155.049 202.408 155.149C202.623 155.25 202.814 155.392 202.972 155.569C203.13 155.745 203.251 155.952 203.327 156.176C203.403 156.401 203.432 156.638 203.414 156.874L203.182 159.874C203.149 160.315 202.951 160.727 202.627 161.027C202.302 161.328 201.876 161.495 201.434 161.494H201.375L196.157 161.325L199.981 196.541C200.037 197.047 199.941 197.557 199.706 198.009C199.472 198.46 199.109 198.832 198.663 199.077C198.218 199.322 197.709 199.43 197.203 199.387C196.696 199.344 196.213 199.152 195.815 198.835C195.548 198.624 195.326 198.361 195.162 198.063C194.998 197.765 194.895 197.437 194.859 197.098L190.959 161.159L187.72 161.059L187.074 166.014C187.032 166.346 186.871 166.651 186.619 166.872C186.368 167.093 186.045 167.215 185.71 167.214H185.677L177.113 167.014L172.42 200.114C172.414 200.158 172.398 200.201 172.374 200.239C172.095 200.615 171.727 200.917 171.304 201.119C170.882 201.321 170.416 201.417 169.947 201.399ZM135.873 165.392H135.881L172.165 166.233C172.212 166.234 172.258 166.245 172.299 166.265C172.341 166.285 172.379 166.314 172.409 166.349C172.439 166.385 172.461 166.426 172.474 166.471C172.487 166.515 172.49 166.562 172.483 166.608L167.993 197.876C167.84 199.327 168.28 200.31 169.235 200.634C169.68 200.776 170.156 200.786 170.606 200.664C171.057 200.541 171.462 200.291 171.773 199.943L176.498 166.626C176.509 166.548 176.548 166.476 176.608 166.424C176.668 166.372 176.744 166.343 176.823 166.343H176.831L185.686 166.548C185.866 166.559 186.042 166.5 186.179 166.383C186.315 166.266 186.401 166.101 186.417 165.922L187.102 160.671C187.112 160.592 187.151 160.519 187.211 160.466C187.271 160.413 187.348 160.384 187.427 160.384H187.437L191.259 160.508C191.338 160.511 191.414 160.542 191.472 160.596C191.53 160.649 191.566 160.722 191.574 160.801L195.507 197.024C195.535 197.276 195.612 197.521 195.734 197.743C195.856 197.965 196.021 198.161 196.22 198.319C196.418 198.477 196.646 198.594 196.89 198.664C197.134 198.733 197.389 198.754 197.641 198.724C198.143 198.663 198.601 198.407 198.915 198.011C199.23 197.616 199.376 197.113 199.323 196.61L195.463 161.016C195.458 160.97 195.463 160.922 195.478 160.878C195.493 160.833 195.517 160.793 195.548 160.758C195.581 160.724 195.62 160.697 195.663 160.679C195.707 160.661 195.753 160.652 195.8 160.653L201.4 160.834H201.437C201.714 160.834 201.98 160.73 202.182 160.542C202.385 160.354 202.509 160.097 202.529 159.821L202.761 156.821C202.773 156.674 202.754 156.525 202.706 156.385C202.659 156.245 202.583 156.116 202.485 156.006C202.386 155.895 202.266 155.806 202.132 155.743C201.999 155.68 201.853 155.645 201.705 155.639L195.142 155.413C195.063 155.411 194.988 155.38 194.93 155.326C194.872 155.272 194.836 155.199 194.827 155.12L190.954 119.458C190.946 119.384 190.964 119.31 191.004 119.247C191.145 119.029 191.237 118.782 191.273 118.525L194.673 93.4491C194.71 93.1889 194.69 92.9237 194.614 92.6721C194.538 92.4204 194.408 92.1884 194.233 91.9921C194.08 91.8132 193.888 91.6714 193.672 91.5774C193.456 91.4833 193.222 91.4395 192.986 91.4491L188.234 91.5921C188.193 91.5961 188.151 91.5916 188.111 91.5788C188.072 91.5661 188.035 91.5453 188.003 91.5179C187.972 91.4905 187.946 91.457 187.928 91.4193C187.91 91.3817 187.9 91.3408 187.898 91.2991L187.598 88.4991C187.595 88.4723 187.595 88.445 187.598 88.4181L187.851 86.6381C187.939 86.1911 187.864 85.7275 187.641 85.3306C187.417 84.9337 187.059 84.6296 186.631 84.473C186.203 84.3163 185.734 84.3174 185.307 84.476C184.88 84.6346 184.523 84.9403 184.301 85.3381C184.276 85.3832 184.24 85.4217 184.197 85.4503C184.153 85.479 184.104 85.4971 184.052 85.5031L183.418 85.5781L183.718 88.3521C183.722 88.3794 183.722 88.4069 183.718 88.4341L183.283 91.4711C183.272 91.5475 183.234 91.6174 183.176 91.6687C183.118 91.72 183.045 91.7495 182.967 91.7521L167.49 92.2181L125.161 93.4341C125.082 93.4319 125.006 93.4029 124.945 93.3519C124.885 93.3008 124.843 93.2308 124.827 93.1531L123.883 86.7701L122.063 87.0851C122.035 87.0879 122.006 87.0879 121.977 87.0851C121.636 87.0532 121.293 87.1122 120.982 87.2561C120.955 87.2691 120.927 87.2785 120.897 87.2841L120.088 87.4231L120.156 87.8811C120.166 87.9498 120.154 88.0199 120.121 88.0811C120.021 88.2603 119.951 88.4545 119.913 88.6561L119.104 93.3401C119.091 93.4148 119.053 93.4827 118.995 93.5323C118.938 93.5818 118.865 93.6101 118.789 93.6121L110.796 93.8421C110.583 93.8487 110.377 93.9242 110.209 94.0574C110.042 94.1905 109.922 94.3743 109.867 94.5811L103.958 117.281C103.907 117.478 103.918 117.685 103.99 117.875C104.061 118.065 104.19 118.228 104.358 118.342C104.395 118.367 104.426 118.399 104.45 118.437C104.474 118.474 104.49 118.516 104.496 118.56C104.549 118.958 104.742 119.324 105.04 119.592C105.339 119.86 105.723 120.012 106.124 120.022H114.098C114.146 120.022 114.194 120.033 114.237 120.053C114.28 120.074 114.319 120.103 114.35 120.14C114.38 120.176 114.403 120.219 114.415 120.265C114.428 120.312 114.43 120.36 114.422 120.407L108.566 154.301C108.553 154.377 108.513 154.447 108.454 154.496C108.395 154.546 108.32 154.573 108.242 154.573L99.1634 154.576C99.1124 154.576 99.0629 154.593 99.0227 154.625C98.9825 154.656 98.9539 154.7 98.9414 154.749L96.8664 162.963C96.8582 162.997 96.8576 163.032 96.8647 163.066C96.8718 163.099 96.8863 163.131 96.9074 163.159C96.9284 163.186 96.9553 163.208 96.9861 163.224C97.0169 163.24 97.0509 163.248 97.0854 163.249L97.7634 163.265C97.8117 163.266 97.8592 163.278 97.9024 163.3C97.9456 163.321 97.9835 163.352 98.0134 163.39C98.043 163.428 98.0639 163.473 98.0746 163.52C98.0853 163.567 98.0856 163.616 98.0754 163.663C98.0527 163.766 98.0531 163.874 98.0766 163.977C98.1001 164.08 98.1461 164.177 98.2114 164.26C98.2767 164.343 98.3596 164.411 98.4542 164.458C98.5488 164.506 98.6527 164.532 98.7584 164.534L106.388 164.711C106.436 164.712 106.482 164.724 106.525 164.745C106.567 164.766 106.605 164.795 106.634 164.832C106.664 164.869 106.686 164.911 106.698 164.957C106.71 165.003 106.712 165.051 106.704 165.097L101.824 193.333C101.751 193.829 101.874 194.334 102.168 194.741C102.462 195.147 102.903 195.422 103.397 195.507C103.891 195.593 104.399 195.481 104.812 195.197C105.225 194.913 105.511 194.478 105.607 193.986L110.599 165.086C110.613 165.01 110.652 164.94 110.712 164.891C110.771 164.841 110.846 164.813 110.923 164.813H110.931L131.317 165.286C131.395 165.288 131.469 165.318 131.527 165.369C131.585 165.42 131.622 165.491 131.633 165.567L135.133 189.214C135.17 189.464 135.256 189.703 135.385 189.92C135.515 190.136 135.686 190.325 135.888 190.475C136.091 190.626 136.321 190.735 136.565 190.796C136.81 190.858 137.064 190.87 137.314 190.834C137.563 190.797 137.803 190.711 138.02 190.582C138.236 190.452 138.425 190.281 138.575 190.079C138.726 189.876 138.835 189.646 138.896 189.402C138.958 189.157 138.97 188.903 138.933 188.653L135.551 165.77C135.544 165.723 135.547 165.674 135.561 165.628C135.574 165.583 135.598 165.54 135.629 165.504C135.66 165.47 135.698 165.442 135.74 165.422C135.782 165.403 135.827 165.393 135.873 165.392Z" fill="#352F6A"/>
<path d="M238.561 110.445C251.983 110.445 262.863 99.776 262.863 86.6156C262.863 73.4552 251.983 62.7866 238.561 62.7866C225.139 62.7866 214.259 73.4552 214.259 86.6156C214.259 99.776 225.139 110.445 238.561 110.445Z" fill="#DDDDDD"/>
<path d="M234.441 107.75C232.164 107.748 229.899 107.438 227.706 106.827C224.611 105.986 221.712 104.542 219.177 102.579C216.641 100.615 214.518 98.1696 212.929 95.3834C211.346 92.6326 210.335 89.5902 209.957 86.4389C209.579 83.2877 209.841 80.0926 210.729 77.0454C211.615 73.9763 213.103 71.1145 215.107 68.6268C217.111 66.1391 219.59 64.0755 222.4 62.5564C228.11 59.4161 234.825 58.6427 241.1 60.4024C244.195 61.2435 247.093 62.6872 249.629 64.6511C252.165 66.6149 254.288 69.0601 255.877 71.8464C257.46 74.5971 258.471 77.6395 258.849 80.7907C259.227 83.942 258.965 87.1372 258.077 90.1844C257.191 93.2535 255.703 96.1153 253.699 98.603C251.695 101.091 249.216 103.154 246.406 104.673C242.74 106.69 238.625 107.749 234.441 107.75ZM234.369 60.0694C230.287 60.0706 226.272 61.1025 222.696 63.0694C219.955 64.5517 217.536 66.5651 215.581 68.9921C213.626 71.4192 212.174 74.2112 211.31 77.2054C210.443 80.1777 210.186 83.2946 210.554 86.3687C210.923 89.4429 211.909 92.4108 213.453 95.0943C215.003 97.8126 217.074 100.198 219.548 102.114C222.021 104.03 224.849 105.439 227.869 106.259C233.991 107.977 240.542 107.223 246.114 104.159C248.855 102.677 251.274 100.664 253.229 98.2365C255.184 95.8095 256.635 93.0175 257.5 90.0234C258.366 87.051 258.623 83.9342 258.255 80.8601C257.886 77.786 256.901 74.818 255.357 72.1344C253.807 69.4161 251.736 67.0307 249.262 65.1147C246.788 63.1987 243.96 61.7899 240.941 60.9693C238.8 60.3733 236.589 60.0707 234.367 60.0694H234.369Z" fill="#212446"/>
<path d="M230.425 78.4083C230.971 78.1017 231.547 77.8518 232.143 77.6623L232.583 77.5282C232.729 77.4892 232.876 77.4562 233.023 77.4212C233.316 77.3392 233.608 77.2982 233.9 77.2392C235.026 77.0562 236.169 77.003 237.306 77.0803C238.376 77.1441 239.435 77.3304 240.463 77.6353C241.453 77.9165 242.402 78.3245 243.287 78.8493C244.169 79.3591 244.971 79.9955 245.667 80.7382C246.378 81.519 246.985 82.3882 247.473 83.3243C247.609 83.5636 247.73 83.8111 247.836 84.0652L248.004 84.4483C248.064 84.5762 248.117 84.7073 248.161 84.8412L248.453 85.6542C248.534 85.9382 248.61 86.2273 248.696 86.5103C248.999 87.7396 249.214 88.9886 249.34 90.2482V90.2673C249.381 90.6253 249.69 90.7443 250.031 90.5323C250.174 90.4369 250.296 90.313 250.389 90.1683C250.482 90.0235 250.545 89.8611 250.572 89.6912C250.779 88.1864 250.806 86.6624 250.652 85.1513C250.608 84.7973 250.552 84.4513 250.504 84.0953L250.275 83.0953C250.109 82.4602 249.893 81.8392 249.629 81.2382C249.145 80.1229 248.476 79.0972 247.651 78.2043C246.874 77.3621 245.971 76.6458 244.973 76.0812C243.974 75.5247 242.904 75.1024 241.794 74.8252C240.63 74.5458 239.436 74.4061 238.238 74.4092C236.933 74.4126 235.635 74.5772 234.37 74.8992C233.669 75.0791 232.982 75.3132 232.316 75.5993C231.56 75.9213 230.841 76.3235 230.171 76.7992C229.96 76.9493 229.792 77.1519 229.683 77.3869C229.575 77.6219 229.529 77.8812 229.551 78.1392C229.632 78.5392 229.999 78.6593 230.396 78.4273L230.425 78.4083Z" fill="#CC092F"/>
<path d="M229.533 78.8483L230.72 75.0852C230.751 74.9881 230.746 74.8828 230.704 74.7895C230.663 74.6963 230.589 74.6214 230.496 74.5792C230.453 74.5561 230.407 74.5425 230.358 74.5393C230.31 74.5361 230.261 74.5434 230.216 74.5608C230.171 74.5782 230.13 74.6052 230.096 74.64C230.062 74.6748 230.036 74.7165 230.02 74.7622L228.388 78.2743C228.325 78.4364 228.327 78.6164 228.393 78.7773C228.459 78.9383 228.583 79.0678 228.742 79.1393C228.811 79.1822 228.889 79.2088 228.97 79.217C229.051 79.2253 229.133 79.2149 229.209 79.1868C229.286 79.1586 229.354 79.1133 229.41 79.0544C229.467 78.9956 229.508 78.9258 229.533 78.8483Z" fill="#CC092F"/>
<path d="M229.196 79.2851L232.622 78.6661C232.663 78.6622 232.703 78.6491 232.738 78.6276C232.774 78.606 232.803 78.5768 232.826 78.542C232.848 78.5072 232.862 78.4678 232.867 78.4267C232.872 78.3857 232.867 78.3441 232.853 78.3052C232.827 78.2179 232.771 78.1427 232.694 78.0929C232.618 78.0431 232.527 78.022 232.436 78.0332L228.923 78.2331C228.853 78.2355 228.783 78.2544 228.721 78.2884C228.659 78.3225 228.606 78.3707 228.565 78.4291C228.525 78.4875 228.5 78.5544 228.49 78.6246C228.481 78.6948 228.488 78.7662 228.511 78.8331C228.548 78.9812 228.638 79.1104 228.765 79.1953C228.891 79.2802 229.046 79.3147 229.196 79.2921" fill="#CC092F"/>
<path d="M245.742 95.0774C245.186 95.3646 244.601 95.594 243.998 95.7623L243.554 95.8813C243.407 95.9153 243.254 95.9414 243.111 95.9734C242.811 96.0434 242.521 96.0734 242.228 96.1234C241.096 96.2658 239.952 96.2785 238.818 96.1614C237.751 96.059 236.699 95.8353 235.682 95.4944C234.703 95.1785 233.769 94.7372 232.903 94.1814C232.04 93.6407 231.262 92.9758 230.592 92.2083C229.91 91.403 229.333 90.5129 228.878 89.5603C228.751 89.3157 228.639 89.064 228.542 88.8064L228.387 88.4173C228.331 88.2871 228.282 88.1535 228.242 88.0173L227.98 87.1953C227.909 86.9083 227.843 86.6174 227.766 86.3324C227.508 85.0928 227.338 83.8367 227.256 82.5733V82.5543C227.23 82.1943 226.924 82.0654 226.577 82.2644C226.43 82.3545 226.304 82.474 226.206 82.6155C226.107 82.7569 226.04 82.9172 226.006 83.0863C225.746 84.5823 225.665 86.1042 225.766 87.6194C225.797 87.9754 225.839 88.3243 225.877 88.6793L226.069 89.6893C226.212 90.3297 226.405 90.9578 226.648 91.5674C227.092 92.6986 227.725 93.7467 228.518 94.6673C229.264 95.5369 230.141 96.2845 231.118 96.8833C232.097 97.4754 233.15 97.9355 234.25 98.2513C235.404 98.5721 236.592 98.7541 237.789 98.7933C239.093 98.8361 240.397 98.7175 241.672 98.4403C242.379 98.2866 243.073 98.0781 243.748 97.8164C244.515 97.5224 245.248 97.1461 245.934 96.6943C246.151 96.5519 246.326 96.3553 246.443 96.1241C246.561 95.8929 246.615 95.6352 246.602 95.3763C246.536 94.9703 246.173 94.8403 245.769 95.0593L245.742 95.0774Z" fill="#CC092F"/>
<path d="M246.619 94.4511L245.819 98.3141C245.797 98.4138 245.813 98.518 245.863 98.6068C245.914 98.6956 245.995 98.7626 246.092 98.795C246.137 98.8138 246.185 98.8225 246.233 98.8208C246.281 98.8191 246.329 98.8069 246.372 98.785C246.415 98.7632 246.454 98.7322 246.484 98.6942C246.514 98.6562 246.536 98.6122 246.547 98.5651L247.819 94.9081C247.865 94.7406 247.846 94.5617 247.764 94.4082C247.683 94.2547 247.546 94.1384 247.381 94.083C247.308 94.0471 247.228 94.0285 247.147 94.0283C247.065 94.0282 246.985 94.0465 246.912 94.0822C246.839 94.1178 246.775 94.1697 246.725 94.2338C246.675 94.2979 246.64 94.3725 246.624 94.452" fill="#CC092F"/>
<path d="M246.911 93.9833L243.563 94.9413C243.523 94.9497 243.485 94.9669 243.452 94.9919C243.419 95.0169 243.393 95.0489 243.374 95.0856C243.356 95.1223 243.345 95.1628 243.345 95.2039C243.344 95.2451 243.352 95.2858 243.369 95.3233C243.404 95.4076 243.468 95.4769 243.549 95.519C243.63 95.561 243.723 95.5732 243.812 95.5533L247.288 95.0063C247.358 94.9967 247.424 94.9709 247.482 94.9311C247.54 94.8913 247.588 94.8386 247.622 94.777C247.656 94.7155 247.675 94.6468 247.678 94.5766C247.681 94.5063 247.667 94.4363 247.638 94.3722C247.587 94.2285 247.484 94.1091 247.35 94.0373C247.215 93.9655 247.059 93.9456 246.911 93.9833Z" fill="#CC092F"/>
<path d="M219.695 192.972C219.584 192.915 219.494 192.825 219.437 192.713C219.381 192.601 219.362 192.475 219.383 192.352C219.413 192.205 219.501 192.077 219.625 191.994C219.75 191.912 219.903 191.882 220.049 191.912L220.189 191.957C220.337 191.987 220.466 192.073 220.551 192.197C220.635 192.321 220.668 192.473 220.642 192.621C220.615 192.765 220.533 192.893 220.412 192.976C220.292 193.06 220.144 193.092 219.999 193.066H219.981L219.695 192.972ZM223.207 193.657C223.137 193.635 223.071 193.599 223.014 193.551C222.957 193.503 222.911 193.445 222.876 193.379C222.842 193.313 222.821 193.242 222.815 193.168C222.808 193.094 222.817 193.02 222.839 192.949C222.862 192.878 222.898 192.813 222.945 192.756C222.993 192.699 223.051 192.652 223.117 192.618C223.183 192.584 223.255 192.563 223.329 192.557C223.402 192.55 223.477 192.558 223.547 192.581L225.63 192.957C225.78 192.984 225.913 193.067 226.002 193.19C226.091 193.314 226.13 193.466 226.108 193.617C226.079 193.762 225.994 193.891 225.872 193.976C225.751 194.061 225.601 194.096 225.454 194.073L223.354 193.691L223.207 193.657ZM228.678 194.584C228.536 194.539 228.417 194.439 228.348 194.306C228.279 194.173 228.265 194.019 228.31 193.876C228.355 193.733 228.456 193.615 228.588 193.546C228.721 193.477 228.875 193.464 229.018 193.509L231.107 193.791C231.253 193.804 231.388 193.875 231.481 193.987C231.575 194.1 231.62 194.245 231.607 194.391V194.413C231.595 194.556 231.527 194.689 231.417 194.781C231.308 194.874 231.166 194.92 231.022 194.908H230.99C230.303 194.832 229.59 194.736 228.865 194.626L228.678 194.584ZM234.204 195.15C234.102 195.103 234.017 195.026 233.958 194.929C233.9 194.833 233.872 194.721 233.878 194.609C233.887 194.463 233.953 194.325 234.062 194.228C234.171 194.13 234.315 194.08 234.461 194.088H234.48C235.188 194.134 235.895 194.18 236.574 194.206C236.648 194.206 236.722 194.221 236.79 194.25C236.858 194.278 236.92 194.32 236.973 194.372C237.025 194.425 237.066 194.487 237.094 194.556C237.122 194.624 237.136 194.698 237.136 194.772V194.786C237.129 194.934 237.063 195.074 236.954 195.174C236.844 195.275 236.7 195.328 236.551 195.323C235.859 195.305 235.137 195.266 234.419 195.216C234.342 195.22 234.265 195.211 234.19 195.191L234.204 195.15ZM239.727 195.277C239.636 195.23 239.559 195.16 239.503 195.074C239.447 194.988 239.415 194.888 239.409 194.786C239.403 194.639 239.455 194.496 239.555 194.388C239.654 194.28 239.792 194.216 239.938 194.21H239.946C240.652 194.185 241.346 194.146 242.021 194.086C242.173 194.07 242.324 194.115 242.442 194.21C242.561 194.305 242.637 194.443 242.654 194.594C242.661 194.667 242.654 194.74 242.633 194.81C242.611 194.88 242.577 194.944 242.53 195.001C242.484 195.057 242.427 195.104 242.362 195.138C242.298 195.172 242.227 195.193 242.154 195.2H242.137C241.442 195.264 240.729 195.311 240.001 195.329C239.904 195.35 239.804 195.346 239.708 195.319L239.727 195.277ZM245.227 194.651C245.146 194.613 245.076 194.557 245.022 194.486C244.968 194.415 244.933 194.333 244.917 194.245C244.902 194.175 244.9 194.104 244.912 194.034C244.925 193.964 244.95 193.897 244.989 193.837C245.027 193.777 245.076 193.725 245.135 193.684C245.193 193.643 245.259 193.614 245.328 193.599L245.361 193.593C246.04 193.465 246.727 193.315 247.374 193.141C247.52 193.102 247.675 193.123 247.806 193.198C247.937 193.272 248.033 193.396 248.074 193.541C248.115 193.682 248.098 193.833 248.028 193.962C247.957 194.09 247.839 194.186 247.698 194.227L247.677 194.232C247.006 194.41 246.294 194.564 245.589 194.696C245.469 194.759 245.328 194.774 245.197 194.737L245.227 194.651ZM250.5 193.137C250.378 193.074 250.281 192.973 250.224 192.848C250.166 192.713 250.164 192.561 250.219 192.425C250.273 192.288 250.378 192.179 250.513 192.121L250.527 192.115C251.166 191.856 251.8 191.572 252.406 191.266C252.539 191.197 252.693 191.183 252.836 191.227C252.979 191.272 253.099 191.371 253.168 191.504C253.238 191.629 253.256 191.777 253.217 191.915C253.178 192.054 253.086 192.171 252.96 192.241L252.929 192.257C252.295 192.577 251.643 192.88 250.969 193.14C250.897 193.19 250.814 193.222 250.728 193.236C250.641 193.25 250.553 193.244 250.469 193.219L250.5 193.137ZM255.321 190.544C255.236 190.505 255.162 190.444 255.105 190.369C255.062 190.309 255.031 190.24 255.014 190.168C254.997 190.096 254.995 190.021 255.007 189.948C255.019 189.875 255.046 189.805 255.085 189.742C255.125 189.679 255.176 189.625 255.236 189.582C255.783 189.199 256.329 188.744 256.815 188.33C256.931 188.233 257.081 188.184 257.232 188.194C257.383 188.204 257.524 188.273 257.626 188.385C257.676 188.44 257.714 188.505 257.739 188.575C257.763 188.646 257.774 188.72 257.769 188.795C257.765 188.869 257.746 188.942 257.713 189.009C257.681 189.076 257.635 189.136 257.579 189.185C257.033 189.639 256.465 190.085 255.886 190.495C255.814 190.567 255.723 190.619 255.623 190.644C255.524 190.669 255.419 190.666 255.321 190.636V190.544ZM259.356 186.885C259.312 186.877 259.268 186.863 259.227 186.844C259.17 186.797 259.123 186.738 259.089 186.673C259.054 186.607 259.033 186.536 259.026 186.462C259.02 186.388 259.028 186.314 259.05 186.243C259.072 186.172 259.108 186.107 259.155 186.05L259.161 186.042C259.593 185.542 260.023 185.002 260.411 184.45C260.503 184.33 260.637 184.25 260.786 184.227C260.935 184.203 261.087 184.237 261.211 184.323C261.333 184.411 261.416 184.542 261.442 184.69C261.468 184.838 261.435 184.99 261.351 185.114C260.932 185.691 260.494 186.251 260.027 186.79C259.956 186.907 259.845 186.995 259.714 187.036C259.584 187.077 259.443 187.069 259.317 187.014L259.356 186.885ZM262.421 182.399C262.289 182.328 262.19 182.209 262.144 182.067C262.099 181.924 262.111 181.77 262.178 181.636C262.275 181.407 262.389 181.186 262.518 180.974C262.712 180.585 262.895 180.194 263.067 179.798C263.109 179.734 263.162 179.679 263.225 179.636C263.288 179.593 263.358 179.563 263.433 179.548C263.507 179.532 263.583 179.532 263.658 179.546C263.733 179.56 263.804 179.589 263.867 179.631C263.966 179.696 264.043 179.79 264.087 179.9C264.131 180.01 264.14 180.131 264.112 180.247C263.955 180.675 263.76 181.088 263.531 181.483C263.435 181.72 263.319 181.948 263.185 182.166C263.161 182.236 263.123 182.301 263.074 182.356C263.025 182.412 262.965 182.457 262.898 182.489C262.832 182.522 262.759 182.541 262.685 182.545C262.611 182.549 262.537 182.539 262.467 182.515C262.443 182.506 262.42 182.496 262.397 182.485L262.421 182.399ZM264.469 177.354C264.347 177.298 264.25 177.201 264.195 177.079C264.14 176.957 264.131 176.819 264.169 176.691C264.394 176.046 264.564 175.383 264.678 174.71C264.739 174.57 264.853 174.459 264.995 174.403C265.136 174.347 265.295 174.349 265.435 174.41C265.542 174.456 265.632 174.534 265.694 174.633C265.756 174.732 265.786 174.847 265.781 174.964C265.635 175.652 265.463 176.343 265.259 177.024C265.237 177.094 265.201 177.16 265.153 177.217C265.106 177.274 265.047 177.32 264.981 177.354C264.916 177.389 264.844 177.41 264.77 177.416C264.696 177.422 264.622 177.414 264.551 177.392L264.469 177.354ZM194.969 137.597C194.831 137.538 194.722 137.427 194.666 137.288C194.61 137.149 194.611 136.994 194.669 136.856C194.698 136.787 194.74 136.725 194.793 136.673C194.846 136.621 194.909 136.58 194.977 136.552C195.046 136.524 195.12 136.51 195.194 136.511C195.268 136.512 195.342 136.527 195.41 136.556C195.699 136.665 195.994 136.758 196.292 136.835C196.649 136.961 197.017 137.05 197.392 137.1C197.538 137.133 197.666 137.221 197.748 137.347C197.83 137.472 197.859 137.625 197.83 137.772C197.801 137.915 197.715 138.041 197.593 138.122C197.471 138.203 197.322 138.232 197.178 138.203H197.162C196.786 138.084 196.389 138.03 196.006 137.932C195.623 137.834 195.349 137.724 195.048 137.632L194.969 137.597ZM192.154 135.759C192.064 135.716 191.987 135.651 191.929 135.57C191.724 135.273 191.56 134.95 191.44 134.61C191.292 134.159 191.238 133.683 191.28 133.21C191.296 133.061 191.37 132.925 191.487 132.832C191.603 132.738 191.752 132.694 191.9 132.71C192.05 132.728 192.186 132.803 192.282 132.919C192.377 133.035 192.424 133.184 192.413 133.334C192.386 133.651 192.426 133.97 192.531 134.27C192.603 134.509 192.716 134.734 192.866 134.933C192.951 135.056 192.984 135.207 192.957 135.354C192.93 135.501 192.846 135.631 192.724 135.717C192.648 135.77 192.56 135.803 192.468 135.812C192.376 135.822 192.283 135.809 192.197 135.774L192.154 135.759ZM265.492 172.103C265.386 172.054 265.299 171.974 265.242 171.873C265.184 171.772 265.16 171.655 265.173 171.54C265.234 170.861 265.288 170.168 265.302 169.486C265.306 169.339 265.369 169.2 265.475 169.099C265.581 168.999 265.723 168.944 265.87 168.948H265.886C266.036 168.958 266.178 169.025 266.281 169.134C266.385 169.244 266.443 169.388 266.445 169.539C266.424 170.239 266.374 170.961 266.306 171.661C266.29 171.809 266.216 171.945 266.1 172.039C265.983 172.133 265.835 172.177 265.686 172.161C265.619 172.153 265.553 172.133 265.492 172.103ZM200.406 138.667C200.304 138.617 200.219 138.538 200.162 138.44C200.104 138.341 200.077 138.228 200.084 138.115C200.097 137.966 200.167 137.828 200.281 137.731C200.395 137.634 200.543 137.587 200.692 137.599C201.371 137.661 202.071 137.693 202.756 137.699C202.908 137.701 203.052 137.762 203.16 137.869C203.267 137.976 203.329 138.12 203.332 138.272C203.33 138.42 203.269 138.561 203.163 138.665C203.057 138.769 202.914 138.826 202.766 138.826C202.045 138.826 201.313 138.78 200.609 138.726C200.539 138.717 200.47 138.697 200.406 138.667ZM205.922 138.591C205.837 138.55 205.764 138.488 205.71 138.41C205.656 138.333 205.622 138.243 205.612 138.149C205.593 138.007 205.631 137.862 205.717 137.748C205.804 137.633 205.932 137.558 206.074 137.538H206.103C206.78 137.457 207.474 137.357 208.15 137.238C208.297 137.211 208.449 137.243 208.573 137.326C208.697 137.41 208.783 137.538 208.814 137.684C208.83 137.753 208.832 137.825 208.819 137.895C208.807 137.965 208.781 138.032 208.743 138.092C208.704 138.152 208.655 138.204 208.597 138.245C208.538 138.286 208.473 138.315 208.403 138.331L208.37 138.337C207.67 138.469 206.946 138.573 206.248 138.648C206.136 138.668 206.02 138.648 205.922 138.591ZM193.312 130.977C193.245 130.94 193.184 130.893 193.132 130.837C193.084 130.783 193.046 130.72 193.022 130.651C192.998 130.582 192.988 130.51 192.992 130.437C192.996 130.365 193.014 130.294 193.046 130.228C193.077 130.163 193.122 130.104 193.176 130.056L193.195 130.04C193.768 129.55 194.401 129.134 195.078 128.802C195.214 128.735 195.371 128.723 195.515 128.769C195.659 128.814 195.781 128.914 195.853 129.047C195.922 129.176 195.936 129.328 195.893 129.468C195.851 129.608 195.754 129.726 195.624 129.795L195.614 129.8C195.026 130.086 194.473 130.439 193.967 130.853C193.884 130.939 193.777 130.997 193.66 131.019C193.543 131.041 193.421 131.026 193.312 130.977ZM265.512 166.642C265.424 166.598 265.349 166.531 265.294 166.45C265.239 166.368 265.206 166.274 265.198 166.176C265.141 165.495 265.049 164.815 264.942 164.142C264.918 164 264.95 163.855 265.033 163.737C265.115 163.62 265.241 163.54 265.382 163.515L265.415 163.51C265.563 163.489 265.714 163.526 265.836 163.613C265.958 163.7 266.042 163.831 266.071 163.978C266.182 164.678 266.271 165.392 266.335 166.098C266.345 166.246 266.296 166.393 266.198 166.505C266.101 166.618 265.963 166.687 265.814 166.698C265.711 166.701 265.607 166.682 265.512 166.642ZM211.319 137.495C211.249 137.463 211.186 137.415 211.135 137.356C211.084 137.298 211.047 137.228 211.025 137.154C211.002 137.085 210.993 137.012 210.998 136.939C211.004 136.866 211.023 136.796 211.056 136.73C211.089 136.665 211.134 136.608 211.189 136.56C211.245 136.513 211.309 136.476 211.378 136.454H211.389C212.043 136.259 212.703 136.042 213.349 135.796C213.49 135.743 213.647 135.748 213.785 135.81C213.922 135.871 214.031 135.984 214.086 136.124C214.141 136.26 214.139 136.412 214.081 136.547C214.024 136.682 213.915 136.789 213.779 136.844L213.761 136.85C213.101 137.103 212.427 137.327 211.734 137.534C211.597 137.571 211.452 137.557 211.324 137.495H211.319ZM198.279 128.774C198.207 128.737 198.142 128.685 198.091 128.622C198.039 128.559 198.001 128.486 197.979 128.408C197.94 128.266 197.958 128.115 198.03 127.987C198.102 127.86 198.222 127.765 198.363 127.726L198.387 127.72C199.066 127.556 199.774 127.413 200.496 127.299C200.644 127.274 200.796 127.308 200.92 127.393C201.043 127.479 201.128 127.609 201.156 127.757C201.17 127.828 201.169 127.901 201.155 127.972C201.14 128.043 201.111 128.111 201.071 128.171C201.03 128.231 200.978 128.282 200.917 128.322C200.857 128.362 200.789 128.389 200.717 128.403H200.702C200.002 128.513 199.332 128.656 198.678 128.815C198.543 128.841 198.404 128.826 198.278 128.771L198.279 128.774ZM264.506 161.258C264.435 161.221 264.372 161.171 264.32 161.11C264.269 161.049 264.23 160.978 264.206 160.902C264.022 160.251 263.806 159.591 263.574 158.938C263.528 158.797 263.537 158.643 263.602 158.509C263.666 158.374 263.781 158.271 263.92 158.219C264.064 158.174 264.22 158.186 264.355 158.253C264.491 158.32 264.595 158.437 264.646 158.579C264.9 159.244 265.12 159.922 265.305 160.61C265.346 160.751 265.33 160.902 265.259 161.031C265.189 161.159 265.07 161.254 264.929 161.296L264.908 161.302C264.774 161.339 264.631 161.323 264.508 161.258H264.506ZM216.413 135.463C216.303 135.412 216.214 135.325 216.16 135.217C216.09 135.091 216.073 134.943 216.112 134.805C216.151 134.666 216.243 134.549 216.368 134.479L216.398 134.463C217.007 134.147 217.62 133.82 218.203 133.473C218.339 133.409 218.495 133.399 218.639 133.444C218.782 133.489 218.904 133.587 218.978 133.718C219.048 133.843 219.066 133.991 219.027 134.129C218.988 134.268 218.896 134.385 218.77 134.455L218.74 134.471C218.128 134.833 217.498 135.178 216.864 135.499C216.791 135.525 216.712 135.535 216.635 135.528C216.557 135.522 216.481 135.5 216.413 135.463ZM153.448 104.19C153.382 104.152 153.321 104.105 153.268 104.05C153.219 103.996 153.182 103.933 153.158 103.864C153.134 103.795 153.124 103.723 153.128 103.65C153.132 103.578 153.15 103.507 153.182 103.441C153.214 103.376 153.258 103.317 153.312 103.269L153.331 103.253C153.863 102.806 154.403 102.409 154.938 101.915C155.058 101.823 155.209 101.782 155.359 101.801C155.509 101.819 155.645 101.896 155.738 102.015C155.83 102.129 155.873 102.275 155.857 102.421C155.842 102.566 155.769 102.7 155.655 102.792L155.643 102.801C155.107 103.223 154.56 103.642 154.043 104.107C153.96 104.174 153.86 104.217 153.755 104.232C153.649 104.247 153.541 104.233 153.443 104.191L153.448 104.19ZM203.748 127.996C203.6 127.966 203.471 127.879 203.387 127.754C203.304 127.629 203.273 127.476 203.302 127.328C203.332 127.18 203.419 127.05 203.544 126.967C203.669 126.883 203.822 126.852 203.97 126.882C204.658 126.84 205.383 126.832 206.118 126.828C206.268 126.83 206.412 126.889 206.52 126.994C206.628 127.099 206.691 127.241 206.697 127.391C206.695 127.541 206.634 127.683 206.527 127.789C206.421 127.894 206.278 127.954 206.128 127.956C205.418 127.956 204.715 127.97 204.052 128.009C203.952 128.034 203.848 128.029 203.75 127.996H203.748ZM262.571 156.087C262.454 156.032 262.358 155.94 262.3 155.824C262.008 155.211 261.685 154.587 261.358 153.975C261.29 153.845 261.275 153.694 261.318 153.554C261.36 153.414 261.457 153.296 261.586 153.227L261.596 153.222C261.732 153.155 261.889 153.143 262.033 153.188C262.178 153.234 262.298 153.334 262.371 153.467C262.716 154.097 263.047 154.734 263.353 155.376C263.422 155.505 263.436 155.657 263.393 155.797C263.351 155.937 263.254 156.055 263.124 156.124L263.114 156.129C263.028 156.171 262.932 156.189 262.837 156.181C262.741 156.174 262.65 156.141 262.571 156.087ZM209.287 128.033C209.185 127.985 209.1 127.908 209.042 127.812C208.984 127.716 208.956 127.604 208.962 127.492C208.967 127.348 209.029 127.212 209.134 127.114C209.239 127.016 209.379 126.964 209.522 126.969H209.564C210.239 127.006 210.932 127.059 211.69 127.134C211.764 127.14 211.836 127.16 211.902 127.194C211.968 127.228 212.027 127.274 212.075 127.331C212.123 127.387 212.159 127.453 212.182 127.523C212.205 127.594 212.213 127.668 212.207 127.742V127.747C212.199 127.89 212.133 128.024 212.026 128.12C211.918 128.215 211.778 128.264 211.634 128.256H211.597L209.507 128.091C209.43 128.1 209.352 128.091 209.278 128.066L209.287 128.033ZM221.087 132.562C221.008 132.523 220.936 132.468 220.878 132.401C220.833 132.342 220.799 132.276 220.78 132.204C220.76 132.133 220.755 132.058 220.764 131.985C220.773 131.911 220.797 131.84 220.834 131.776C220.871 131.712 220.92 131.655 220.978 131.61C221.521 131.202 222.061 130.769 222.568 130.326C222.686 130.231 222.835 130.185 222.985 130.197C223.136 130.21 223.276 130.279 223.376 130.392C223.473 130.504 223.522 130.649 223.513 130.796C223.504 130.944 223.437 131.082 223.327 131.181C222.791 131.639 222.227 132.087 221.663 132.513C221.581 132.581 221.481 132.625 221.375 132.64C221.269 132.655 221.161 132.64 221.063 132.597L221.087 132.562ZM157.827 100.911C157.745 100.863 157.673 100.8 157.614 100.726C157.529 100.603 157.496 100.452 157.523 100.305C157.549 100.158 157.633 100.027 157.755 99.9418C158.344 99.5518 158.938 99.1714 159.537 98.8008C159.673 98.7339 159.829 98.7221 159.974 98.7679C160.118 98.8138 160.239 98.9138 160.311 99.0469C160.346 99.1088 160.368 99.1771 160.377 99.2477C160.385 99.3183 160.38 99.3899 160.361 99.4584C160.342 99.5269 160.309 99.5909 160.265 99.6467C160.221 99.7026 160.166 99.7491 160.104 99.7838L160.073 99.7998C159.486 100.158 158.907 100.531 158.334 100.918C158.255 100.954 158.168 100.973 158.081 100.972C157.994 100.97 157.907 100.95 157.829 100.911H157.827ZM259.812 151.343C259.72 151.3 259.643 151.23 259.591 151.143C259.201 150.581 258.768 150.006 258.374 149.456C258.33 149.398 258.297 149.333 258.278 149.262C258.259 149.192 258.254 149.119 258.264 149.047C258.273 148.975 258.296 148.906 258.332 148.843C258.369 148.78 258.416 148.724 258.474 148.68L258.484 148.672C258.606 148.582 258.758 148.543 258.908 148.564C259.057 148.585 259.192 148.665 259.284 148.785C259.718 149.36 260.105 149.932 260.531 150.529C260.614 150.652 260.645 150.804 260.616 150.95C260.588 151.096 260.503 151.225 260.379 151.309C260.296 151.363 260.2 151.395 260.1 151.401C260.001 151.407 259.902 151.387 259.812 151.343ZM214.789 128.603C214.718 128.58 214.653 128.544 214.596 128.497C214.539 128.449 214.493 128.391 214.458 128.325C214.424 128.259 214.403 128.187 214.397 128.114C214.39 128.04 214.399 127.965 214.421 127.895C214.444 127.824 214.48 127.759 214.527 127.702C214.575 127.645 214.633 127.598 214.699 127.564C214.765 127.53 214.837 127.509 214.911 127.503C214.984 127.496 215.059 127.505 215.129 127.527L217.229 127.802C217.381 127.821 217.518 127.899 217.612 128.019C217.705 128.14 217.748 128.292 217.729 128.444C217.72 128.516 217.696 128.585 217.66 128.648C217.623 128.711 217.575 128.766 217.517 128.811C217.46 128.855 217.394 128.887 217.324 128.906C217.253 128.925 217.18 128.929 217.108 128.92H217.094L215.002 128.648L214.789 128.603ZM220.268 129.391C220.158 129.339 220.068 129.252 220.012 129.143C219.956 129.035 219.938 128.911 219.959 128.791C219.986 128.644 220.069 128.513 220.192 128.427C220.314 128.342 220.466 128.309 220.613 128.335L222.706 128.713C222.854 128.74 222.986 128.824 223.074 128.946C223.161 129.069 223.197 129.221 223.173 129.37C223.144 129.516 223.057 129.644 222.933 129.727C222.81 129.81 222.658 129.84 222.512 129.812L220.437 129.451L220.268 129.391ZM256.385 147.027C256.322 146.994 256.263 146.951 256.212 146.901C255.747 146.387 255.272 145.869 254.779 145.37C254.675 145.264 254.617 145.122 254.617 144.974C254.617 144.826 254.675 144.683 254.779 144.578C254.891 144.476 255.037 144.422 255.188 144.425C255.339 144.429 255.483 144.491 255.589 144.598C256.089 145.098 256.589 145.635 257.058 146.163C257.157 146.267 257.21 146.407 257.206 146.55C257.202 146.694 257.141 146.83 257.037 146.929L257.01 146.953C256.926 147.027 256.822 147.073 256.71 147.087C256.599 147.1 256.486 147.079 256.387 147.027H256.385ZM225.716 130.464C225.574 130.419 225.455 130.319 225.386 130.186C225.317 130.053 225.304 129.898 225.349 129.756C225.371 129.685 225.407 129.62 225.455 129.563C225.503 129.506 225.561 129.46 225.627 129.425C225.693 129.391 225.764 129.371 225.838 129.364C225.912 129.358 225.986 129.366 226.057 129.389C226.757 129.539 227.457 129.713 228.138 129.882C228.21 129.898 228.279 129.929 228.339 129.972C228.4 130.014 228.451 130.069 228.491 130.131C228.53 130.194 228.557 130.264 228.569 130.337C228.582 130.41 228.58 130.485 228.563 130.557C228.524 130.703 228.428 130.828 228.297 130.904C228.166 130.98 228.01 131.002 227.863 130.964C227.207 130.756 226.513 130.631 225.814 130.481L225.716 130.464ZM252.489 143.106L252.349 143.062C251.832 142.602 251.286 142.157 250.74 141.713C250.624 141.623 250.548 141.491 250.53 141.345C250.511 141.2 250.551 141.053 250.64 140.937L250.649 140.925C250.746 140.808 250.886 140.735 251.037 140.721C251.187 140.707 251.338 140.753 251.455 140.849C252.011 141.297 252.564 141.756 253.103 142.223C253.215 142.32 253.283 142.458 253.294 142.605C253.305 142.752 253.257 142.898 253.161 143.011C253.071 143.103 252.953 143.161 252.826 143.177C252.699 143.192 252.57 143.163 252.461 143.096L252.489 143.106ZM162.589 98.0729C162.485 98.0196 162.4 97.9349 162.347 97.8308C162.313 97.7668 162.292 97.6966 162.285 97.6243C162.277 97.552 162.285 97.479 162.306 97.4095C162.327 97.3401 162.362 97.2754 162.408 97.2194C162.454 97.1633 162.511 97.1169 162.575 97.0829L162.585 97.0779C163.208 96.7539 163.842 96.4338 164.485 96.1278C164.621 96.0608 164.777 96.0488 164.922 96.0945C165.066 96.1401 165.188 96.2399 165.26 96.3728C165.329 96.5022 165.344 96.6538 165.301 96.7941C165.258 96.9343 165.162 97.0519 165.032 97.1208L165.022 97.1268C164.395 97.4268 163.775 97.7378 163.166 98.0538C163.079 98.1223 162.974 98.1645 162.863 98.1757C162.753 98.1868 162.642 98.1664 162.542 98.1168L162.589 98.0729ZM225.134 128.953C225.081 128.947 225.031 128.931 224.984 128.905C224.873 128.805 224.806 128.665 224.798 128.516C224.789 128.367 224.841 128.221 224.94 128.11C225.403 127.618 225.852 127.097 226.28 126.569C226.385 126.458 226.53 126.394 226.682 126.39C226.834 126.386 226.982 126.442 227.093 126.547C227.191 126.64 227.253 126.764 227.269 126.898C227.285 127.032 227.253 127.167 227.179 127.28C226.734 127.826 226.268 128.365 225.779 128.886C225.692 128.964 225.583 129.013 225.466 129.025C225.35 129.037 225.232 129.012 225.131 128.953H225.134ZM231.081 131.853C231.012 131.826 230.948 131.786 230.894 131.735C230.841 131.684 230.797 131.623 230.767 131.555C230.737 131.487 230.721 131.414 230.719 131.34C230.717 131.266 230.73 131.192 230.756 131.123C230.783 131.054 230.823 130.99 230.874 130.936C230.925 130.883 230.986 130.839 231.054 130.809C231.122 130.779 231.195 130.762 231.269 130.76C231.343 130.759 231.417 130.771 231.486 130.798L233.53 131.445C233.601 131.467 233.666 131.503 233.723 131.551C233.78 131.598 233.827 131.657 233.861 131.723C233.895 131.788 233.916 131.86 233.922 131.934C233.929 132.008 233.921 132.082 233.898 132.153C233.876 132.222 233.841 132.286 233.794 132.342C233.748 132.398 233.69 132.444 233.626 132.477C233.561 132.511 233.491 132.531 233.419 132.537C233.346 132.544 233.273 132.536 233.204 132.514L233.183 132.507L231.083 131.843L231.081 131.853ZM248.081 139.662L248.006 139.638C247.433 139.238 246.845 138.856 246.251 138.49C246.186 138.45 246.129 138.398 246.084 138.336C246.04 138.274 246.007 138.204 245.99 138.129C245.972 138.055 245.969 137.978 245.981 137.903C245.993 137.827 246.02 137.755 246.06 137.69C246.141 137.558 246.271 137.465 246.421 137.429C246.571 137.393 246.729 137.418 246.86 137.499C247.473 137.883 248.071 138.273 248.666 138.675C248.791 138.758 248.877 138.888 248.906 139.034C248.935 139.181 248.904 139.333 248.821 139.458C248.742 139.576 248.624 139.661 248.487 139.698C248.351 139.736 248.205 139.723 248.077 139.662H248.081ZM236.369 133.586C236.24 133.527 236.138 133.421 236.085 133.29C236.032 133.158 236.032 133.012 236.084 132.88C236.111 132.811 236.15 132.747 236.201 132.693C236.252 132.64 236.313 132.596 236.381 132.566C236.448 132.536 236.521 132.52 236.595 132.518C236.669 132.516 236.743 132.528 236.812 132.555C237.516 132.825 238.176 133.093 238.794 133.36C238.932 133.412 239.042 133.517 239.102 133.65C239.163 133.784 239.167 133.937 239.115 134.074L239.105 134.098C239.045 134.235 238.932 134.343 238.793 134.399C238.654 134.455 238.499 134.455 238.36 134.398C237.724 134.126 237.074 133.861 236.417 133.617L236.369 133.586ZM243.352 136.767L241.726 135.921L241.467 135.84C241.334 135.778 241.231 135.665 241.181 135.528C241.131 135.39 241.137 135.238 241.199 135.105L241.21 135.083C241.242 135.018 241.286 134.959 241.341 134.911C241.395 134.863 241.459 134.827 241.527 134.803C241.596 134.78 241.668 134.77 241.741 134.775C241.813 134.779 241.884 134.798 241.949 134.83L241.963 134.836L242.242 134.925C242.796 135.195 243.342 135.476 243.882 135.764C243.948 135.797 244.007 135.844 244.055 135.9C244.103 135.957 244.14 136.022 244.162 136.092C244.185 136.163 244.194 136.237 244.188 136.311C244.182 136.385 244.162 136.457 244.128 136.523C244.102 136.592 244.061 136.655 244.01 136.709C243.959 136.762 243.898 136.805 243.83 136.835C243.762 136.865 243.689 136.881 243.615 136.883C243.541 136.885 243.467 136.872 243.398 136.845C243.377 136.837 243.357 136.828 243.337 136.817L243.352 136.767ZM167.562 95.7528C167.501 95.7254 167.446 95.6862 167.401 95.6372C167.355 95.5883 167.32 95.5306 167.297 95.4678C167.262 95.4057 167.24 95.3375 167.232 95.2668C167.223 95.1962 167.229 95.1246 167.248 95.0562C167.268 94.9877 167.3 94.9237 167.344 94.8679C167.388 94.8121 167.443 94.7655 167.505 94.7308L167.536 94.7148C168.185 94.4588 168.881 94.2059 169.505 93.9539C169.648 93.9009 169.806 93.9058 169.946 93.9677C170.085 94.0295 170.195 94.1432 170.252 94.2848C170.305 94.4241 170.3 94.5786 170.24 94.7146C170.179 94.8506 170.067 94.9572 169.928 95.0109C169.275 95.2419 168.593 95.4878 167.987 95.7578C167.915 95.7968 167.836 95.8204 167.754 95.8271C167.673 95.8339 167.59 95.8236 167.513 95.7969L167.562 95.7528ZM228.503 124.598L228.449 124.581C228.321 124.504 228.23 124.379 228.193 124.235C228.157 124.09 228.179 123.937 228.255 123.809C228.617 123.226 228.948 122.632 229.255 122.031C229.326 121.899 229.445 121.8 229.588 121.754C229.73 121.708 229.885 121.72 230.019 121.787C230.154 121.856 230.256 121.975 230.303 122.119C230.351 122.263 230.34 122.419 230.273 122.555C229.958 123.177 229.607 123.799 229.227 124.401C229.194 124.467 229.148 124.526 229.092 124.574C229.036 124.623 228.97 124.659 228.9 124.682C228.829 124.705 228.755 124.715 228.681 124.709C228.607 124.703 228.535 124.683 228.469 124.65L228.452 124.641L228.503 124.598ZM172.734 93.9229C172.597 93.8532 172.49 93.7353 172.434 93.5918C172.411 93.5227 172.402 93.4496 172.407 93.377C172.412 93.3043 172.432 93.2334 172.465 93.1683C172.498 93.1033 172.543 93.0453 172.599 92.9978C172.654 92.9504 172.718 92.9144 172.787 92.8918H172.798C173.465 92.6765 174.138 92.4951 174.817 92.3478C174.962 92.3074 175.117 92.3256 175.249 92.3983C175.381 92.4711 175.479 92.5926 175.522 92.7368C175.543 92.8062 175.55 92.8791 175.543 92.9513C175.536 93.0235 175.515 93.0936 175.481 93.1576C175.447 93.2216 175.4 93.2782 175.344 93.3242C175.288 93.3702 175.224 93.4047 175.154 93.4258L175.136 93.4308C174.461 93.6198 173.829 93.8218 173.15 93.9858C173.075 94.0121 172.995 94.0222 172.915 94.0155C172.836 94.0088 172.759 93.9853 172.689 93.9468L172.734 93.9229ZM230.852 119.723C230.727 119.661 230.63 119.556 230.577 119.427C230.523 119.298 230.519 119.155 230.563 119.023L230.863 118.087L231.184 117.076C231.222 116.934 231.316 116.814 231.443 116.741C231.57 116.668 231.721 116.649 231.862 116.687H231.874C232.019 116.723 232.144 116.816 232.221 116.944C232.297 117.072 232.32 117.226 232.284 117.371L231.943 118.447L231.637 119.415C231.612 119.484 231.573 119.549 231.523 119.603C231.473 119.658 231.414 119.702 231.347 119.734C231.28 119.765 231.207 119.783 231.133 119.787C231.059 119.79 230.985 119.779 230.915 119.754L230.852 119.723ZM178.052 92.5078C177.977 92.4721 177.911 92.4206 177.857 92.3567C177.804 92.2928 177.765 92.2182 177.743 92.1378C177.726 92.0672 177.723 91.9939 177.735 91.9221C177.746 91.8504 177.771 91.7815 177.809 91.7196C177.847 91.6577 177.897 91.6037 177.956 91.561C178.015 91.5184 178.082 91.4877 178.152 91.4708H178.169C178.848 91.3078 179.545 91.1609 180.239 91.0259C180.387 90.9955 180.541 91.0244 180.668 91.1066C180.795 91.1887 180.885 91.3174 180.917 91.4648C180.934 91.5357 180.936 91.6091 180.924 91.6808C180.912 91.7525 180.885 91.821 180.847 91.8826C180.808 91.9441 180.757 91.9975 180.698 92.0396C180.639 92.0816 180.572 92.1116 180.501 92.1278H180.481C179.797 92.2668 179.104 92.4028 178.439 92.5588C178.298 92.6037 178.144 92.5933 178.01 92.5298L178.052 92.5078ZM183.473 91.5009C183.391 91.4599 183.32 91.4007 183.266 91.3279C183.211 91.255 183.173 91.1705 183.156 91.0808C183.143 91.0094 183.144 90.9363 183.16 90.8654C183.175 90.7944 183.204 90.7272 183.246 90.6676C183.287 90.608 183.34 90.5571 183.401 90.5178C183.462 90.4786 183.53 90.4517 183.601 90.4388H183.621C184.315 90.3388 185.021 90.2329 185.721 90.1469C185.872 90.1287 186.024 90.1695 186.145 90.2609C186.266 90.3522 186.347 90.487 186.371 90.6368C186.381 90.7087 186.378 90.7819 186.36 90.8523C186.342 90.9227 186.31 90.9887 186.267 91.0469C186.224 91.105 186.169 91.1541 186.107 91.1912C186.044 91.2282 185.975 91.2525 185.903 91.2628H185.888C185.188 91.3488 184.488 91.4479 183.808 91.5519C183.681 91.5848 183.547 91.5753 183.426 91.5248L183.473 91.5009ZM232.09 114.48C231.985 114.429 231.897 114.346 231.841 114.243C231.784 114.14 231.761 114.023 231.774 113.906C231.86 113.223 231.911 112.541 231.933 111.873C231.937 111.726 231.999 111.587 232.105 111.486C232.212 111.386 232.354 111.331 232.5 111.335H232.517C232.667 111.345 232.808 111.412 232.912 111.521C233.015 111.631 233.073 111.775 233.075 111.926C233.043 112.626 232.993 113.344 232.901 114.049C232.882 114.197 232.805 114.331 232.687 114.422C232.57 114.513 232.421 114.555 232.273 114.537C232.206 114.528 232.142 114.508 232.082 114.476L232.09 114.48ZM188.905 90.8658C188.757 90.8377 188.627 90.752 188.542 90.6274C188.457 90.5029 188.425 90.3498 188.453 90.2018C188.467 90.1284 188.495 90.0586 188.536 89.9961C188.577 89.9336 188.63 89.8797 188.691 89.8376C188.753 89.7956 188.822 89.7661 188.895 89.7509C188.968 89.7356 189.044 89.7349 189.117 89.7488L191.238 89.5918C191.39 89.5848 191.538 89.6369 191.652 89.7371C191.766 89.8372 191.836 89.9776 191.849 90.1288C191.856 90.2771 191.805 90.4223 191.705 90.5327C191.606 90.6432 191.467 90.7101 191.319 90.7189L189.234 90.8749C189.124 90.9086 189.005 90.904 188.897 90.8618L188.905 90.8658ZM194.422 90.5658C194.331 90.5189 194.253 90.4489 194.198 90.3628C194.142 90.2766 194.11 90.1773 194.104 90.0748C194.099 89.9283 194.152 89.7857 194.252 89.6785C194.352 89.5712 194.491 89.508 194.637 89.5028H194.652C195.352 89.4888 196.072 89.4668 196.782 89.4668C196.932 89.4687 197.076 89.5279 197.184 89.6324C197.292 89.7369 197.356 89.8788 197.362 90.0288C197.363 90.1783 197.305 90.3222 197.2 90.4288C197.095 90.5355 196.953 90.5962 196.803 90.5978L194.703 90.6299C194.603 90.6249 194.504 90.6011 194.413 90.5598L194.422 90.5658ZM232.096 109.003C232.01 108.959 231.936 108.895 231.88 108.815C231.825 108.736 231.79 108.644 231.779 108.548C231.697 107.871 231.579 107.195 231.441 106.548C231.409 106.405 231.434 106.255 231.512 106.131C231.59 106.007 231.714 105.919 231.857 105.886L231.877 105.881C232.025 105.851 232.179 105.88 232.306 105.962C232.433 106.045 232.522 106.173 232.555 106.321C232.705 107.007 232.823 107.721 232.912 108.446C232.925 108.593 232.88 108.739 232.787 108.853C232.693 108.967 232.559 109.04 232.412 109.057C232.301 109.066 232.189 109.046 232.088 108.997L232.096 109.003ZM199.968 90.5469C199.871 90.4972 199.79 90.4215 199.734 90.3285C199.677 90.2354 199.648 90.1285 199.649 90.0198C199.65 89.8761 199.706 89.7384 199.808 89.6368C199.91 89.5353 200.048 89.478 200.191 89.4778H200.223L202.351 89.5598C202.425 89.5619 202.498 89.5786 202.566 89.6089C202.633 89.6392 202.695 89.6825 202.746 89.7363C202.796 89.7902 202.836 89.8535 202.862 89.9227C202.889 89.992 202.901 90.0658 202.899 90.1399V90.1478C202.897 90.2205 202.881 90.292 202.851 90.3584C202.822 90.4247 202.779 90.4846 202.726 90.5345C202.674 90.5845 202.612 90.6236 202.544 90.6495C202.476 90.6755 202.404 90.6878 202.331 90.6858H202.315L200.215 90.5999C200.13 90.6103 200.044 90.6032 199.961 90.5789L199.968 90.5469ZM230.763 103.717C230.641 103.655 230.544 103.553 230.488 103.428C230.219 102.802 229.914 102.191 229.575 101.6C229.541 101.536 229.52 101.466 229.513 101.394C229.506 101.321 229.513 101.248 229.535 101.179C229.556 101.11 229.59 101.045 229.636 100.989C229.682 100.933 229.739 100.887 229.803 100.853L229.813 100.847C229.95 100.783 230.105 100.773 230.249 100.818C230.392 100.864 230.514 100.962 230.588 101.093C230.95 101.723 231.273 102.374 231.556 103.044C231.583 103.113 231.597 103.186 231.596 103.26C231.594 103.335 231.578 103.408 231.549 103.476C231.519 103.544 231.477 103.605 231.423 103.657C231.37 103.708 231.307 103.749 231.238 103.776C231.166 103.805 231.088 103.818 231.01 103.815C230.932 103.812 230.855 103.793 230.785 103.759L230.763 103.717ZM205.53 90.8868C205.43 90.8383 205.347 90.7613 205.291 90.6655C205.235 90.5698 205.209 90.4596 205.215 90.3489C205.219 90.2763 205.237 90.2052 205.269 90.1398C205.3 90.0743 205.344 90.0157 205.398 89.9673C205.452 89.9189 205.516 89.8817 205.584 89.8578C205.653 89.8339 205.726 89.8237 205.798 89.8279H205.817C206.339 89.8629 206.867 89.9118 207.382 89.9678L207.936 90.0128C208.087 90.0283 208.225 90.1009 208.323 90.2158C208.421 90.3307 208.472 90.479 208.463 90.6299C208.45 90.7757 208.379 90.9102 208.266 91.0039C208.154 91.0976 208.009 91.1429 207.863 91.1299H207.84L207.287 91.0848C206.772 91.0278 206.254 90.9848 205.743 90.9508L205.53 90.8868ZM211.056 91.4529C210.913 91.4076 210.795 91.3076 210.726 91.1749C210.657 91.0422 210.644 90.8876 210.688 90.7449C210.711 90.6742 210.747 90.6086 210.794 90.5519C210.842 90.4951 210.9 90.4482 210.966 90.4141C211.031 90.3799 211.103 90.3591 211.177 90.3527C211.251 90.3463 211.326 90.3545 211.396 90.3768C212.119 90.4868 212.838 90.6088 213.507 90.7378C213.655 90.7642 213.788 90.8478 213.875 90.9705C213.962 91.0931 213.998 91.2451 213.974 91.3938C213.976 91.4679 213.963 91.5416 213.936 91.6107C213.91 91.6799 213.87 91.7431 213.819 91.7968C213.768 91.8504 213.707 91.8935 213.639 91.9236C213.571 91.9536 213.498 91.97 213.424 91.9718C213.344 91.974 213.264 91.9587 213.19 91.9269C212.521 91.7979 211.826 91.6728 211.125 91.5698L211.056 91.4529ZM227.823 99.0219C227.757 98.9889 227.699 98.9422 227.653 98.8849C227.197 98.38 226.712 97.9024 226.2 97.4548C226.143 97.4072 226.095 97.3487 226.06 97.2826C226.026 97.2165 226.004 97.1442 225.997 97.0698C225.991 96.9955 225.999 96.9205 226.021 96.8492C226.044 96.778 226.08 96.7119 226.128 96.6548L226.134 96.6478C226.238 96.539 226.379 96.4741 226.529 96.4664C226.679 96.4588 226.826 96.5091 226.94 96.6068C227.491 97.0875 228.013 97.6004 228.502 98.1428C228.602 98.2533 228.653 98.3986 228.646 98.5471C228.639 98.6956 228.574 98.8353 228.464 98.9358C228.377 99.0297 228.261 99.0924 228.135 99.1143C228.008 99.1361 227.878 99.116 227.764 99.0569L227.823 99.0219ZM216.483 92.5908C216.363 92.5334 216.267 92.4354 216.212 92.3141C216.157 92.1928 216.147 92.056 216.183 91.9279C216.222 91.7865 216.316 91.6664 216.443 91.5936C216.57 91.5209 216.721 91.5015 216.862 91.5398H216.873L218.928 92.1908C218.999 92.2131 219.064 92.2491 219.121 92.2968C219.178 92.3444 219.225 92.4029 219.259 92.4686C219.293 92.5344 219.314 92.6062 219.32 92.6801C219.327 92.7539 219.319 92.8282 219.296 92.8988C219.251 93.0413 219.151 93.1601 219.018 93.2289C218.885 93.2977 218.731 93.3111 218.588 93.2659L216.597 92.6359L216.483 92.5908ZM223.544 95.5248C222.968 95.1768 222.363 94.8428 221.727 94.5348C221.592 94.4714 221.487 94.357 221.436 94.2166C221.385 94.0761 221.392 93.9213 221.455 93.7859C221.529 93.6795 221.636 93.6008 221.76 93.5627C221.883 93.5247 222.016 93.5293 222.137 93.5758C222.802 93.9048 223.45 94.2518 224.055 94.6208C224.182 94.6946 224.274 94.8155 224.311 94.957C224.349 95.0986 224.329 95.2492 224.255 95.3759L224.245 95.3928C224.165 95.5149 224.04 95.6011 223.897 95.6332C223.755 95.6653 223.605 95.6407 223.48 95.5648L223.544 95.5248Z" fill="#80C8EF"/>
<path d="M222.108 154.937C221.671 156.363 221.521 157.863 221.67 159.347C221.818 160.832 222.261 162.272 222.972 163.584C223.683 164.895 224.649 166.052 225.812 166.987C226.975 167.921 228.313 168.614 229.747 169.026C232.646 169.904 235.774 169.612 238.46 168.212C241.146 166.811 243.176 164.414 244.116 161.535C244.547 160.108 244.691 158.61 244.539 157.128C244.388 155.645 243.944 154.207 243.234 152.897C242.523 151.587 241.561 150.431 240.401 149.495C239.241 148.56 237.907 147.863 236.476 147.446H236.416C233.525 146.555 230.4 146.842 227.72 148.245C225.04 149.648 223.023 152.053 222.108 154.937ZM239.933 156.244C240.179 157.12 240.248 158.037 240.137 158.941C240.026 159.844 239.736 160.717 239.285 161.508C238.834 162.298 238.23 162.992 237.509 163.547C236.787 164.103 235.963 164.509 235.083 164.744C233.303 165.261 231.39 165.05 229.765 164.159C228.139 163.267 226.934 161.767 226.413 159.988C226.399 159.887 226.378 159.786 226.352 159.688C225.952 157.951 226.233 156.128 227.135 154.592C228.037 153.055 229.492 151.922 231.203 151.425C232.976 150.909 234.881 151.113 236.504 151.993C238.127 152.873 239.337 154.358 239.873 156.125C239.909 156.155 239.932 156.198 239.937 156.245L239.933 156.244Z" fill="#36DC62"/>
<path d="M253.453 164.568C253.635 163.973 253.817 163.319 253.999 162.668C254.08 162.302 254.041 161.92 253.889 161.578C253.736 161.235 253.477 160.951 253.15 160.768L251.937 160.114C251.661 159.961 251.432 159.736 251.272 159.465C251.113 159.193 251.028 158.883 251.028 158.568V157.795C251.015 157.477 251.094 157.162 251.255 156.888C251.416 156.614 251.653 156.392 251.937 156.249L253.15 155.595C253.481 155.416 253.743 155.133 253.897 154.789C254.05 154.446 254.086 154.061 253.999 153.695C253.947 153.371 253.866 153.053 253.756 152.744C253.634 152.444 253.574 152.09 253.456 151.793C253.335 151.44 253.105 151.136 252.799 150.922C252.494 150.708 252.129 150.597 251.756 150.604H250.423C250.105 150.606 249.792 150.525 249.516 150.369C249.239 150.212 249.008 149.986 248.846 149.712C248.741 149.472 248.598 149.251 248.422 149.058C248.245 148.794 248.15 148.484 248.15 148.166C248.15 147.848 248.245 147.538 248.422 147.274L249.089 146.145C249.289 145.821 249.373 145.44 249.329 145.062C249.285 144.685 249.115 144.333 248.846 144.064C248.412 143.578 247.946 143.122 247.452 142.697C247.178 142.44 246.826 142.282 246.452 142.25C246.078 142.217 245.704 142.312 245.39 142.519L244.239 143.232C243.968 143.407 243.652 143.5 243.329 143.5C243.007 143.5 242.691 143.407 242.42 143.232C242.189 143.107 241.967 142.968 241.753 142.816C241.469 142.673 241.232 142.451 241.071 142.177C240.91 141.903 240.831 141.588 240.844 141.27V139.962C240.846 139.591 240.73 139.23 240.512 138.93C240.294 138.631 239.985 138.409 239.632 138.297C239.026 138.119 238.359 137.94 237.692 137.762C237.322 137.68 236.936 137.716 236.588 137.865C236.24 138.015 235.947 138.27 235.752 138.595L235.085 139.784C234.923 140.057 234.693 140.284 234.416 140.44C234.14 140.596 233.827 140.677 233.509 140.675H232.66C232.34 140.69 232.022 140.614 231.744 140.457C231.465 140.299 231.236 140.066 231.084 139.784L230.417 138.595C230.235 138.272 229.954 138.017 229.616 137.867C229.277 137.717 228.899 137.68 228.538 137.762C228.188 137.813 227.844 137.893 227.507 138C227.144 138.119 226.84 138.178 226.538 138.3C226.185 138.412 225.876 138.633 225.658 138.933C225.44 139.233 225.324 139.594 225.326 139.965V141.273C225.326 141.588 225.242 141.898 225.082 142.17C224.922 142.442 224.692 142.666 224.417 142.819C224.174 142.921 223.949 143.062 223.75 143.235C223.479 143.41 223.163 143.503 222.841 143.503C222.518 143.503 222.202 143.41 221.931 143.235L220.779 142.522C220.461 142.329 220.09 142.243 219.72 142.275C219.349 142.307 218.998 142.456 218.718 142.7C218.224 143.125 217.758 143.581 217.323 144.067C217.065 144.342 216.901 144.693 216.858 145.067C216.814 145.442 216.892 145.821 217.081 146.148L217.748 147.277C217.926 147.54 218.021 147.851 218.021 148.169C218.021 148.487 217.926 148.798 217.748 149.061C217.626 149.298 217.448 149.536 217.324 149.774C217.162 150.047 216.932 150.273 216.655 150.43C216.379 150.586 216.066 150.667 215.748 150.665H214.415C214.042 150.658 213.677 150.769 213.371 150.983C213.066 151.197 212.837 151.501 212.715 151.854C212.532 152.448 212.35 153.102 212.169 153.754C212.087 154.12 212.126 154.502 212.279 154.845C212.432 155.187 212.691 155.471 213.018 155.654L214.23 156.308C214.506 156.461 214.736 156.685 214.896 156.957C215.056 157.229 215.14 157.538 215.14 157.854V158.627C215.153 158.945 215.074 159.26 214.912 159.534C214.751 159.808 214.514 160.03 214.23 160.173L213.079 160.827C212.748 161.006 212.485 161.289 212.332 161.633C212.178 161.976 212.142 162.361 212.23 162.727C212.282 163.051 212.364 163.369 212.473 163.678C212.546 164.003 212.646 164.321 212.773 164.629C212.894 164.981 213.124 165.286 213.43 165.5C213.735 165.713 214.1 165.825 214.473 165.818H215.807C216.127 165.803 216.445 165.879 216.724 166.037C217.002 166.194 217.231 166.428 217.383 166.71C217.505 166.948 217.683 167.186 217.808 167.423C217.985 167.687 218.08 167.997 218.08 168.315C218.08 168.633 217.985 168.943 217.808 169.207L217.141 170.336C216.941 170.649 216.855 171.021 216.899 171.39C216.943 171.759 217.115 172.101 217.383 172.357C217.818 172.842 218.284 173.299 218.778 173.724C219.053 173.976 219.4 174.135 219.77 174.178C220.141 174.221 220.515 174.145 220.84 173.962L221.991 173.248C222.262 173.073 222.578 172.98 222.9 172.98C223.223 172.98 223.538 173.073 223.809 173.248C224.038 173.408 224.282 173.548 224.537 173.664C224.795 173.801 225.011 174.007 225.161 174.258C225.311 174.51 225.389 174.797 225.386 175.09V176.517C225.384 176.887 225.5 177.249 225.719 177.548C225.937 177.848 226.246 178.07 226.599 178.181C227.204 178.359 227.872 178.538 228.538 178.716C228.908 178.798 229.294 178.762 229.642 178.613C229.991 178.464 230.283 178.209 230.478 177.884L231.145 176.695C231.301 176.42 231.532 176.196 231.811 176.048C232.091 175.901 232.406 175.836 232.721 175.863H233.57C233.888 175.861 234.201 175.942 234.477 176.098C234.754 176.255 234.984 176.481 235.146 176.755L235.813 177.944C236.004 178.273 236.296 178.532 236.645 178.681C236.995 178.831 237.383 178.864 237.753 178.776C238.082 178.725 238.407 178.645 238.723 178.538C239.023 178.419 239.39 178.36 239.692 178.238C240.046 178.126 240.354 177.905 240.572 177.605C240.79 177.306 240.906 176.944 240.904 176.574V175.266C240.891 174.948 240.97 174.633 241.132 174.359C241.293 174.085 241.53 173.863 241.814 173.72C242.056 173.601 242.299 173.42 242.541 173.304C242.812 173.129 243.128 173.036 243.451 173.036C243.773 173.036 244.089 173.129 244.36 173.304L245.452 173.958C245.781 174.149 246.161 174.235 246.541 174.203C246.92 174.171 247.281 174.024 247.574 173.78C248.068 173.355 248.534 172.898 248.969 172.413C249.225 172.149 249.388 171.808 249.432 171.443C249.475 171.078 249.398 170.709 249.211 170.392L248.544 169.262C248.366 168.999 248.271 168.688 248.271 168.37C248.271 168.053 248.366 167.742 248.544 167.479C248.665 167.241 248.844 167.003 248.968 166.765C249.13 166.491 249.361 166.265 249.638 166.108C249.914 165.952 250.227 165.871 250.545 165.873H251.879C252.233 165.812 252.564 165.659 252.84 165.43C253.116 165.201 253.327 164.904 253.453 164.568ZM229.08 171.168C227.356 170.68 225.748 169.854 224.348 168.736C222.947 167.619 221.784 166.234 220.926 164.662C220.067 163.089 219.532 161.362 219.35 159.58C219.167 157.798 219.342 155.997 219.864 154.284C220.978 150.822 223.406 147.935 226.626 146.245C229.846 144.555 233.601 144.197 237.083 145.248C238.806 145.736 240.416 146.562 241.816 147.68C243.216 148.797 244.379 150.182 245.237 151.754C246.095 153.327 246.632 155.054 246.814 156.836C246.996 158.618 246.821 160.419 246.299 162.132C245.186 165.595 242.758 168.482 239.537 170.171C236.317 171.861 232.561 172.218 229.08 171.166V171.168Z" fill="#36DC62"/>
<path d="M243.113 188.888C242.917 189.525 242.851 190.195 242.917 190.858C242.983 191.521 243.181 192.164 243.499 192.75C243.816 193.336 244.248 193.853 244.767 194.271C245.287 194.688 245.884 194.998 246.525 195.182C247.82 195.574 249.217 195.444 250.417 194.818C251.616 194.193 252.523 193.122 252.943 191.836C253.136 191.198 253.2 190.529 253.133 189.867C253.065 189.205 252.867 188.562 252.549 187.977C252.232 187.392 251.802 186.875 251.284 186.457C250.766 186.039 250.17 185.728 249.531 185.542H249.504C248.213 185.144 246.817 185.272 245.62 185.899C244.423 186.525 243.522 187.6 243.113 188.888ZM251.075 189.472C251.185 189.863 251.217 190.273 251.168 190.677C251.118 191.082 250.989 191.472 250.787 191.825C250.586 192.179 250.315 192.489 249.993 192.737C249.67 192.986 249.301 193.167 248.908 193.272C248.113 193.503 247.258 193.408 246.532 193.01C245.806 192.612 245.267 191.942 245.035 191.147C245.028 191.102 245.02 191.058 245.008 191.015C244.83 190.239 244.955 189.425 245.358 188.738C245.761 188.052 246.411 187.546 247.175 187.324C247.967 187.093 248.818 187.185 249.543 187.578C250.268 187.971 250.809 188.634 251.048 189.424C251.063 189.437 251.073 189.456 251.075 189.476V189.472Z" fill="#36DC62"/>
<path d="M257.115 193.195C257.196 192.929 257.278 192.637 257.359 192.345C257.396 192.181 257.379 192.01 257.311 191.857C257.242 191.704 257.126 191.577 256.98 191.495L256.438 191.203C256.315 191.134 256.213 191.035 256.141 190.913C256.07 190.792 256.032 190.654 256.032 190.513V190.168C256.027 190.026 256.062 189.886 256.134 189.763C256.206 189.641 256.311 189.542 256.438 189.478L256.98 189.186C257.128 189.106 257.246 188.979 257.314 188.825C257.383 188.672 257.398 188.5 257.359 188.336C257.336 188.191 257.3 188.049 257.251 187.911C257.196 187.779 257.169 187.619 257.116 187.486C257.062 187.329 256.959 187.193 256.823 187.097C256.687 187.002 256.523 186.952 256.357 186.955H255.757C255.616 186.955 255.477 186.918 255.354 186.848C255.231 186.778 255.129 186.677 255.057 186.555C255.01 186.448 254.946 186.35 254.868 186.263C254.788 186.145 254.745 186.006 254.745 185.863C254.745 185.72 254.788 185.581 254.868 185.463L255.168 184.963C255.257 184.818 255.295 184.648 255.276 184.48C255.256 184.311 255.18 184.154 255.06 184.034C254.866 183.817 254.658 183.613 254.437 183.423C254.315 183.308 254.157 183.238 253.99 183.223C253.823 183.209 253.656 183.251 253.516 183.343L253.002 183.662C252.881 183.74 252.74 183.782 252.596 183.782C252.452 183.782 252.311 183.74 252.19 183.662C252.086 183.606 251.986 183.544 251.89 183.476C251.763 183.412 251.658 183.313 251.586 183.191C251.514 183.068 251.478 182.928 251.484 182.786V182.202C251.485 182.036 251.433 181.875 251.335 181.741C251.238 181.608 251.1 181.509 250.942 181.459C250.672 181.379 250.374 181.299 250.076 181.22C249.911 181.183 249.738 181.199 249.583 181.266C249.427 181.333 249.296 181.447 249.209 181.592L248.909 182.123C248.838 182.245 248.735 182.346 248.612 182.416C248.49 182.486 248.351 182.523 248.209 182.523H247.83C247.688 182.529 247.546 182.494 247.423 182.424C247.299 182.353 247.197 182.249 247.13 182.123L246.83 181.592C246.749 181.448 246.623 181.334 246.472 181.267C246.321 181.2 246.153 181.183 245.991 181.22C245.835 181.243 245.682 181.278 245.531 181.326C245.368 181.379 245.231 181.406 245.097 181.459C244.939 181.509 244.802 181.608 244.704 181.741C244.607 181.875 244.554 182.036 244.555 182.202V182.786C244.555 182.927 244.517 183.065 244.446 183.186C244.375 183.307 244.272 183.408 244.149 183.476C244.04 183.522 243.939 183.585 243.849 183.662C243.728 183.74 243.587 183.782 243.443 183.782C243.299 183.782 243.158 183.74 243.037 183.662L242.522 183.343C242.38 183.257 242.214 183.218 242.048 183.233C241.883 183.247 241.726 183.314 241.601 183.423C241.381 183.613 241.172 183.817 240.978 184.034C240.863 184.157 240.79 184.313 240.77 184.48C240.751 184.648 240.785 184.817 240.869 184.963L241.169 185.463C241.249 185.581 241.292 185.72 241.292 185.863C241.292 186.006 241.249 186.145 241.169 186.263C241.115 186.369 241.033 186.476 240.98 186.581C240.908 186.703 240.806 186.804 240.683 186.874C240.56 186.944 240.422 186.981 240.28 186.981H239.68C239.514 186.978 239.351 187.028 239.214 187.123C239.078 187.219 238.975 187.355 238.921 187.512C238.84 187.778 238.759 188.07 238.678 188.362C238.641 188.526 238.658 188.697 238.727 188.85C238.795 189.003 238.911 189.13 239.057 189.212L239.599 189.504C239.722 189.572 239.825 189.673 239.896 189.794C239.968 189.916 240.005 190.054 240.005 190.195V190.54C240.011 190.682 239.976 190.822 239.904 190.945C239.832 191.067 239.726 191.166 239.599 191.23L239.084 191.522C238.936 191.602 238.819 191.729 238.75 191.882C238.682 192.036 238.666 192.208 238.705 192.372C238.728 192.517 238.765 192.659 238.814 192.797C238.847 192.942 238.892 193.084 238.949 193.222C239.004 193.379 239.106 193.515 239.242 193.61C239.378 193.706 239.541 193.756 239.707 193.753H240.307C240.45 193.747 240.591 193.782 240.714 193.852C240.838 193.923 240.94 194.027 241.007 194.153C241.061 194.259 241.143 194.366 241.196 194.472C241.276 194.59 241.319 194.729 241.319 194.872C241.319 195.015 241.276 195.154 241.196 195.272L240.896 195.772C240.807 195.911 240.769 196.077 240.789 196.241C240.808 196.406 240.884 196.558 241.004 196.672C241.198 196.889 241.406 197.093 241.627 197.283C241.75 197.395 241.905 197.466 242.07 197.485C242.235 197.504 242.402 197.471 242.547 197.389L243.062 197.07C243.183 196.992 243.325 196.95 243.469 196.95C243.613 196.95 243.754 196.992 243.875 197.07C243.978 197.142 244.087 197.204 244.2 197.256C244.316 197.317 244.412 197.409 244.479 197.521C244.546 197.634 244.581 197.762 244.579 197.893V198.531C244.578 198.696 244.63 198.858 244.728 198.991C244.825 199.125 244.963 199.224 245.12 199.274C245.391 199.354 245.689 199.433 245.987 199.513C246.152 199.55 246.325 199.533 246.48 199.467C246.636 199.4 246.766 199.286 246.853 199.141L247.153 198.61C247.222 198.488 247.325 198.388 247.449 198.322C247.573 198.256 247.713 198.227 247.853 198.238H248.232C248.373 198.238 248.513 198.275 248.635 198.345C248.758 198.415 248.861 198.516 248.932 198.638L249.232 199.169C249.317 199.316 249.448 199.431 249.604 199.498C249.76 199.565 249.933 199.58 250.098 199.541C250.246 199.518 250.391 199.483 250.532 199.435C250.668 199.382 250.832 199.355 250.965 199.302C251.123 199.252 251.261 199.153 251.359 199.019C251.456 198.885 251.508 198.724 251.507 198.558V197.974C251.501 197.832 251.537 197.692 251.609 197.569C251.681 197.447 251.786 197.348 251.913 197.284C252.021 197.231 252.13 197.151 252.238 197.098C252.36 197.02 252.501 196.978 252.645 196.978C252.789 196.978 252.93 197.02 253.051 197.098L253.538 197.39C253.685 197.475 253.855 197.513 254.025 197.499C254.194 197.485 254.355 197.419 254.486 197.31C254.707 197.12 254.915 196.916 255.109 196.699C255.223 196.581 255.295 196.43 255.315 196.267C255.334 196.105 255.3 195.94 255.217 195.799L254.917 195.299C254.837 195.181 254.794 195.042 254.794 194.899C254.794 194.756 254.837 194.617 254.917 194.499C254.971 194.393 255.052 194.287 255.106 194.181C255.178 194.059 255.28 193.958 255.403 193.888C255.526 193.818 255.665 193.781 255.806 193.781H256.406C256.566 193.754 256.715 193.686 256.839 193.583C256.964 193.48 257.059 193.346 257.115 193.195ZM246.228 196.143C245.458 195.925 244.739 195.556 244.114 195.057C243.488 194.558 242.969 193.939 242.586 193.237C242.202 192.534 241.963 191.763 241.881 190.967C241.8 190.171 241.878 189.366 242.111 188.601C242.609 187.055 243.693 185.765 245.131 185.011C246.57 184.256 248.247 184.095 249.802 184.564C250.572 184.782 251.291 185.151 251.916 185.65C252.542 186.149 253.062 186.768 253.445 187.47C253.828 188.173 254.068 188.944 254.149 189.74C254.231 190.536 254.152 191.341 253.919 192.106C253.421 193.652 252.337 194.941 250.898 195.696C249.46 196.451 247.782 196.611 246.227 196.142L246.228 196.143Z" fill="#36DC62"/>
</g>
<defs>
<clipPath id="clip0_1481_46798">
<rect width="312" height="280" fill="white" transform="translate(0.5)"/>
</clipPath>
</defs>
</svg>
