<svg width="179" height="160" viewBox="0 0 179 160" fill="none" xmlns="http://www.w3.org/2000/svg">
<mask id="mask0_2126_51864" style="mask-type:luminance" maskUnits="userSpaceOnUse" x="0" y="-1" width="179" height="161">
<path d="M178.643 -0.000976562H0.357422V159.999H178.643V-0.000976562Z" fill="white"/>
</mask>
<g mask="url(#mask0_2126_51864)">
<mask id="mask1_2126_51864" style="mask-type:luminance" maskUnits="userSpaceOnUse" x="17" y="22" width="145" height="116">
<path d="M161.989 22.8584H17.501V137.388H161.989V22.8584Z" fill="white"/>
</mask>
<g mask="url(#mask1_2126_51864)">
<mask id="mask2_2126_51864" style="mask-type:luminance" maskUnits="userSpaceOnUse" x="17" y="22" width="145" height="116">
<path d="M161.989 22.8594H17.501V137.389H161.989V22.8594Z" fill="white"/>
</mask>
<g mask="url(#mask2_2126_51864)">
<g opacity="0.12">
<mask id="mask3_2126_51864" style="mask-type:luminance" maskUnits="userSpaceOnUse" x="21" y="34" width="131" height="104">
<path d="M151.035 34.5312H21.3574V137.388H151.035V34.5312Z" fill="white"/>
</mask>
<g mask="url(#mask3_2126_51864)">
<path d="M73.5728 35.3626C69.1042 33.0198 63.3848 35.9341 60.7311 40.2935C58.0773 44.6529 57.7545 49.9941 57.4139 55.0906C57.0733 60.1872 56.5773 65.5541 53.7225 69.7649C47.0145 79.6723 30.7505 78.7089 24.2002 88.7443C21.7893 92.4158 21.1882 97.0592 21.3939 101.476C21.7625 108.282 24.8796 115.772 31.2522 117.861C36.3436 119.521 41.7905 117.267 46.7448 115.207C51.6991 113.146 57.3985 111.243 62.2499 113.549C69.3276 116.884 70.3493 126.819 75.8968 132.396C81.9608 138.492 91.8031 137.973 100.174 136.209C106.122 134.96 112.117 133.237 117.115 129.734C122.113 126.231 126.029 120.657 126.271 114.501C126.406 110.897 125.314 107.344 125.373 103.736C125.456 98.7198 127.782 93.9775 130.788 89.9975C133.794 86.0175 137.492 82.6261 140.867 78.9615C144.88 74.5883 148.524 69.6541 150.177 63.9278C151.83 58.2015 151.194 51.5198 147.39 46.9746C143.165 41.9295 135.956 40.4603 129.459 41.1878C122.962 41.9152 116.825 44.4735 110.513 46.2026C104.201 47.9318 97.2848 48.7701 91.2899 46.1501C84.7311 43.2889 80.0448 36.6243 73.0859 34.9969" fill="#352F6A"/>
</g>
</g>
<g opacity="0.32">
<mask id="mask4_2126_51864" style="mask-type:luminance" maskUnits="userSpaceOnUse" x="31" y="22" width="131" height="105">
<path d="M161.99 22.8604H31.2891V126.289H161.99V22.8604Z" fill="white"/>
</mask>
<g mask="url(#mask4_2126_51864)">
<path d="M83.9029 23.6035C77.7886 22.1287 74.2829 24.3132 71.6052 28.6481C68.9274 32.983 68.5194 38.3161 68.1377 43.4104C67.756 48.5047 67.1943 53.8601 64.2909 58.043C57.4686 67.8807 41.2172 66.7464 34.544 76.6932C32.0869 80.3612 31.4132 84.9755 31.6063 89.391C31.9046 96.199 34.9417 103.728 41.312 105.88C46.3869 107.594 51.856 105.394 56.832 103.386C61.808 101.378 67.5223 99.5521 72.3532 101.87C79.4012 105.28 80.3137 115.233 85.8006 120.864C91.7966 127.025 101.652 126.602 110.035 124.933C115.999 123.744 122.009 122.086 127.042 118.634C132.074 115.182 136.053 109.626 136.356 103.494C136.527 99.8938 135.494 96.3304 135.566 92.723C135.705 87.7104 138.081 82.9967 141.128 79.0767C144.175 75.1567 147.891 71.775 151.322 68.1435C155.379 63.8172 159.075 58.9247 160.785 53.2087C162.494 47.4927 161.934 40.8212 158.177 36.2372C154.024 31.1452 146.813 29.599 140.309 30.2572C133.804 30.9155 127.645 33.4144 121.318 35.0727C114.991 36.731 108.042 37.5035 102.09 34.791C95.568 31.8538 90.8674 25.271 83.9029 23.6035Z" stroke="#352F6A" stroke-width="0.576923" stroke-linecap="round" stroke-linejoin="round"/>
</g>
</g>
<path d="M31.7242 53.4238L38.1648 97.238C38.3734 98.3284 38.144 99.4569 37.5262 100.379C36.9085 101.302 35.9522 101.943 34.8646 102.166C33.777 102.388 32.6456 102.172 31.7157 101.566C30.7857 100.96 30.132 100.012 29.8962 98.9272C29.8848 98.87 29.8745 98.8089 29.8654 98.75L17.7448 54.8363C17.5089 53.9507 17.4514 53.0271 17.5754 52.1191C17.6994 51.211 18.0025 50.3366 18.4672 49.5467C18.9319 48.7568 19.5489 48.067 20.2823 47.5175C21.0157 46.968 21.851 46.5696 22.7397 46.3455C22.8684 46.3116 22.998 46.2813 23.1282 46.2546C24.8438 45.8091 26.6658 46.0569 28.2 46.9445C29.7341 47.8321 30.8571 49.2881 31.326 50.9975C31.3965 51.2654 31.4497 51.5376 31.4854 51.8123" fill="#D7223B"/>
<path d="M30.1781 116.075C29.8028 114.061 30.2399 111.981 31.3941 110.289C32.5482 108.597 34.3254 107.431 36.337 107.046C38.2523 106.558 40.2826 106.844 41.9886 107.842C43.6946 108.84 44.939 110.47 45.4524 112.378C45.4719 112.451 45.4896 112.524 45.5056 112.596C45.8808 114.61 45.4437 116.69 44.2896 118.382C43.1356 120.073 41.3587 121.24 39.3473 121.625C37.4259 122.114 35.3895 121.826 33.6784 120.825C31.9674 119.823 30.7194 118.189 30.2044 116.274C30.1879 116.211 30.1736 116.148 30.1581 116.086" fill="#D7223B"/>
<path d="M66.5869 127.266L109.277 127.593C110.452 127.607 111.586 127.158 112.433 126.344C113.28 125.529 113.773 124.414 113.805 123.239L114.393 40.1925C114.384 39.0174 113.914 37.8927 113.083 37.0617C112.252 36.2306 111.128 35.7599 109.953 35.7514L67.2629 35.4251C66.0877 35.4112 64.9541 35.8599 64.1068 36.6744C63.2596 37.489 62.7666 38.604 62.7343 39.7788L62.1446 122.826C62.1394 123.998 62.6 125.125 63.4252 125.957C64.2503 126.79 65.3724 127.261 66.5446 127.266H66.5869Z" fill="#CECECC"/>
<path d="M75.2538 53.4429L92.5721 53.5571C92.7732 53.5632 92.9687 53.4902 93.1165 53.3538C93.2644 53.2173 93.3529 53.0284 93.3629 52.8274L93.3481 51.9291C93.3501 51.7285 93.2735 51.5349 93.1347 51.39C92.9959 51.2451 92.8058 51.1603 92.6052 51.1537L75.2864 51.0394C75.0854 51.0332 74.89 51.1061 74.7422 51.2425C74.5944 51.3788 74.506 51.5677 74.4961 51.7686L74.511 52.6669C74.5179 52.8648 74.5975 53.0532 74.7345 53.1962C74.8715 53.3392 75.0564 53.4274 75.2538 53.4429Z" fill="#221F4C"/>
<path d="M86.879 117.927C87.5619 118.063 88.1629 118.464 88.5503 119.042C88.9377 119.621 89.0798 120.329 88.9453 121.013C88.9453 121.022 88.9413 121.033 88.939 121.042C88.7817 121.729 88.3599 122.326 87.7651 122.705C87.1703 123.083 86.4503 123.212 85.7613 123.063C85.0784 122.927 84.4774 122.526 84.09 121.947C83.7026 121.369 83.5605 120.66 83.695 119.977C83.695 119.967 83.699 119.958 83.7013 119.948C83.8584 119.261 84.2802 118.663 84.8751 118.285C85.47 117.907 86.1901 117.779 86.879 117.928" fill="#221F4C"/>
<path d="M68.6154 113.141L98.6434 113.36C99.1224 113.362 99.5825 113.174 99.9233 112.837C100.264 112.5 100.458 112.043 100.462 111.564L100.874 58.4207C100.866 57.9418 100.669 57.4854 100.326 57.1513C99.9828 56.8173 99.5212 56.6327 99.0422 56.6379L69.0645 56.4287C68.5856 56.4275 68.1257 56.6158 67.7851 56.9525C67.4446 57.2892 67.251 57.747 67.2468 58.2259L66.8845 111.379C66.8644 111.826 67.0225 112.262 67.3242 112.592C67.6259 112.923 68.0463 113.119 68.4931 113.14C68.5337 113.141 68.5748 113.142 68.6154 113.141Z" stroke="#221F4C" stroke-width="0.321346" stroke-miterlimit="10"/>
<path d="M58.6656 132.826L101.356 133.153C102.531 133.167 103.665 132.718 104.512 131.903C105.359 131.089 105.852 129.974 105.884 128.799L106.472 45.7521C106.464 44.577 105.994 43.4523 105.163 42.6213C104.332 41.7903 103.208 41.3198 102.032 41.3115L59.3428 40.9847C58.1678 40.9712 57.0346 41.4201 56.1877 42.2346C55.3407 43.049 54.8478 44.1638 54.8153 45.3384L54.2256 128.386C54.2203 129.558 54.6809 130.685 55.506 131.517C56.3312 132.35 57.4533 132.821 58.6256 132.826H58.6656Z" stroke="#221F4C" stroke-width="0.426923" stroke-miterlimit="10"/>
<path d="M132.816 74.1332L130.84 71.2887L117.068 51.4727L79.5762 77.5241L80.2973 77.6092L100.537 79.9795L79.5762 77.5224L93.3476 97.3389L95.3242 100.185L132.816 74.1332Z" fill="#DFDFDF"/>
<path d="M107.299 79.6024L117.071 51.4756L79.5771 77.5242L107.299 79.6024Z" fill="#CC092F"/>
<path d="M95.4477 96.2975C95.4217 96.3032 95.3948 96.3032 95.3688 96.2975C95.3136 96.2874 95.2646 96.256 95.2322 96.2101L93.1705 93.2427C93.1386 93.1966 93.1263 93.1398 93.1361 93.0847C93.146 93.0295 93.1772 92.9805 93.2231 92.9484L132.32 65.7792C132.366 65.7473 132.423 65.7348 132.478 65.7444C132.505 65.7493 132.531 65.7596 132.554 65.7746C132.578 65.7896 132.598 65.809 132.613 65.8318L134.675 68.7992C134.707 68.8452 134.72 68.9021 134.71 68.9573C134.7 69.0124 134.669 69.0615 134.623 69.0935L95.526 96.2632C95.5028 96.2801 95.476 96.2915 95.4477 96.2964M93.6443 93.1798L95.4648 95.8004L134.214 68.8724L132.393 66.2518L93.6443 93.1798Z" fill="#202447"/>
<path d="M110.497 76.3555C110.475 76.3601 110.453 76.3601 110.431 76.3555L78.9603 72.6692C78.9181 72.6636 78.8786 72.6454 78.8469 72.617C78.8152 72.5886 78.7928 72.5513 78.7826 72.51C78.7724 72.4688 78.7748 72.4253 78.7896 72.3854C78.8043 72.3455 78.8308 72.311 78.8654 72.2863L117.963 45.1223C117.998 45.0972 118.04 45.0835 118.084 45.083C118.127 45.0825 118.17 45.0953 118.206 45.1197C118.242 45.144 118.27 45.1787 118.285 45.2192C118.301 45.2597 118.304 45.3041 118.294 45.3463L110.663 76.1972C110.653 76.2361 110.633 76.2714 110.604 76.299C110.575 76.3266 110.538 76.3454 110.499 76.3532M79.5683 72.3149L110.297 75.9149L117.745 45.7903L79.5683 72.3149Z" fill="#202447"/>
<path d="M93.3875 93.3309H93.3687C93.331 93.3352 93.2929 93.3291 93.2585 93.3133C93.224 93.2975 93.1946 93.2726 93.1733 93.2412L78.8127 72.5801C78.7897 72.5467 78.7768 72.5074 78.7755 72.4669C78.7742 72.4264 78.7845 72.3863 78.8053 72.3515C78.8263 72.3167 78.8568 72.2886 78.8932 72.2705C78.9297 72.2523 78.9705 72.245 79.011 72.2492L100.869 74.8104C100.902 74.814 100.933 74.8251 100.961 74.8429C100.988 74.8607 101.011 74.8846 101.028 74.9129C101.044 74.9411 101.054 74.9728 101.056 75.0055C101.059 75.0382 101.053 75.071 101.041 75.1012L93.5395 93.2018C93.5258 93.2332 93.5047 93.2608 93.4779 93.2822C93.4511 93.3037 93.4195 93.3182 93.3858 93.3246M79.4281 72.7206L93.2973 92.6875L100.538 75.2018L79.4281 72.7206Z" fill="#202447"/>
<path d="M132.483 66.1666C132.472 66.1678 132.46 66.1678 132.449 66.1666L112.806 66.8843C112.774 66.8853 112.741 66.8786 112.711 66.865C112.682 66.8513 112.655 66.8309 112.635 66.8055C112.614 66.7802 112.6 66.7504 112.593 66.7186C112.586 66.6867 112.586 66.6537 112.594 66.622L117.879 45.2438C117.888 45.2038 117.909 45.1674 117.939 45.1394C117.969 45.1114 118.006 45.093 118.047 45.0866C118.087 45.0791 118.128 45.0834 118.166 45.0989C118.203 45.1144 118.236 45.1405 118.259 45.174L132.615 65.8346C132.637 65.8658 132.65 65.9023 132.653 65.9402C132.656 65.978 132.648 66.016 132.631 66.05C132.617 66.079 132.596 66.1043 132.57 66.124C132.545 66.1438 132.515 66.1576 132.483 66.1643M113.071 66.45L132.048 65.7569L118.177 45.7992L113.071 66.45Z" fill="#202447"/>
<path d="M139.017 122.704L140.648 120.746L152.005 107.12L126.221 85.627L126.303 86.1538L128.572 100.965L126.221 85.627L114.864 99.2549L113.233 101.212L139.017 122.704Z" fill="#DFDFDF"/>
<path d="M130.16 105.685L152.006 107.12L126.223 85.627L130.16 105.685Z" fill="#CC092F"/>
<path d="M116.011 100.541C115.997 100.514 115.992 100.483 115.995 100.452C115.999 100.422 116.011 100.393 116.031 100.37L117.732 98.3291C117.759 98.2975 117.797 98.2777 117.838 98.274C117.879 98.2704 117.92 98.2832 117.951 98.3096L144.841 120.72C144.857 120.733 144.87 120.749 144.88 120.768C144.89 120.786 144.896 120.806 144.898 120.826C144.9 120.847 144.898 120.867 144.892 120.887C144.886 120.907 144.876 120.925 144.863 120.94L143.161 122.982C143.148 122.997 143.132 123.01 143.114 123.02C143.096 123.029 143.077 123.035 143.056 123.037C143.036 123.039 143.016 123.037 142.996 123.031C142.977 123.024 142.959 123.015 142.943 123.002L116.051 100.59C116.034 100.577 116.021 100.56 116.011 100.541ZM117.871 98.6491L116.369 100.451L143.021 122.663L144.524 120.86L117.871 98.6491Z" fill="#202447"/>
<path d="M133.084 107.317C133.077 107.302 133.072 107.287 133.069 107.271L129.541 84.2424C129.536 84.2114 129.541 84.1797 129.555 84.1515C129.568 84.1233 129.59 84.0999 129.618 84.0845C129.645 84.069 129.676 84.0623 129.708 84.0651C129.739 84.0679 129.769 84.0801 129.793 84.1001L156.681 106.517C156.696 106.53 156.709 106.546 156.719 106.564C156.728 106.582 156.734 106.601 156.736 106.622C156.738 106.642 156.736 106.662 156.73 106.682C156.724 106.701 156.714 106.719 156.701 106.735C156.687 106.752 156.67 106.766 156.65 106.776C156.63 106.786 156.609 106.791 156.587 106.792L133.228 107.408C133.198 107.408 133.169 107.4 133.144 107.385C133.119 107.37 133.098 107.348 133.085 107.322M129.911 84.6116L133.357 107.098L156.165 106.497L129.911 84.6116Z" fill="#202447"/>
<path d="M117.714 98.5011V98.4891C117.703 98.4633 117.7 98.435 117.704 98.4074C117.708 98.3798 117.72 98.3539 117.738 98.3325L129.581 84.1211C129.6 84.0983 129.626 84.0815 129.654 84.0726C129.683 84.0637 129.713 84.0631 129.742 84.0708C129.771 84.0783 129.797 84.0939 129.817 84.1157C129.838 84.1376 129.851 84.1649 129.856 84.1942L132.308 100.187C132.312 100.211 132.31 100.235 132.303 100.258C132.296 100.281 132.283 100.302 132.267 100.319C132.25 100.336 132.23 100.349 132.207 100.357C132.185 100.365 132.161 100.368 132.137 100.366L117.842 98.5822C117.816 98.5797 117.791 98.5706 117.77 98.5558C117.748 98.541 117.731 98.521 117.719 98.4977M129.6 84.5817L118.16 98.3091L131.968 100.033L129.6 84.5817Z" fill="#202447"/>
<path d="M144.601 120.917L144.591 120.894L140.248 107.109C140.24 107.086 140.238 107.062 140.242 107.038C140.246 107.015 140.255 106.992 140.269 106.973C140.283 106.953 140.301 106.937 140.323 106.925C140.344 106.914 140.368 106.908 140.392 106.907L156.577 106.482C156.607 106.48 156.637 106.487 156.663 106.503C156.689 106.518 156.709 106.541 156.721 106.569C156.735 106.595 156.74 106.625 156.737 106.655C156.733 106.685 156.721 106.713 156.701 106.736L144.857 120.947C144.839 120.969 144.816 120.985 144.79 120.994C144.764 121.003 144.736 121.005 144.708 121.001C144.685 120.996 144.663 120.986 144.644 120.971C144.626 120.957 144.611 120.938 144.601 120.917ZM140.606 107.213L144.801 120.527L156.248 106.802L140.606 107.213Z" fill="#202447"/>
<path d="M128.006 136.015C128.004 134.457 127.631 132.922 126.917 131.538C125.599 130.735 124.101 130.278 122.561 130.206C124.115 130.32 125.669 129.984 127.038 129.238C127.893 127.946 128.355 126.433 128.369 124.883C128.339 126.46 128.758 128.012 129.578 129.359C130.305 130.086 132.361 130.57 133.934 130.691C132.38 130.577 130.826 130.913 129.457 131.659C128.635 132.975 128.138 134.468 128.006 136.015Z" fill="#FFD543"/>
<path d="M46.775 90.6243C46.7744 89.8455 46.5877 89.0781 46.2304 88.386C45.572 87.9847 44.823 87.7558 44.0527 87.7203C44.8298 87.7769 45.6068 87.6089 46.291 87.2363C46.7188 86.59 46.9501 85.8336 46.9567 85.0586C46.9419 85.8469 47.1516 86.6232 47.5613 87.2969C47.9247 87.6597 48.9527 87.902 49.7396 87.9626C48.9623 87.9055 48.185 88.0736 47.5007 88.4466C47.09 89.1049 46.8412 89.8512 46.775 90.6243Z" fill="#FFD543"/>
<path d="M135.605 56.6048C135.604 55.826 135.418 55.0586 135.061 54.3665C134.402 53.9652 133.653 53.7363 132.883 53.7008C133.66 53.7574 134.437 53.5894 135.121 53.2168C135.549 52.5705 135.78 51.8141 135.787 51.0391C135.772 51.8274 135.982 52.6037 136.391 53.2773C136.755 53.6402 137.783 53.8825 138.57 53.9431C137.792 53.886 137.015 54.054 136.331 54.4271C135.92 55.0853 135.671 55.8317 135.605 56.6048Z" fill="#FFD543"/>
<path d="M44.8589 45.0816C44.8572 43.0735 44.3761 41.0949 43.4555 39.3102C41.7577 38.277 39.8272 37.6875 37.8418 37.5959C39.8455 37.7432 41.8492 37.3101 43.6132 36.3485C44.7155 34.6826 45.311 32.7328 45.3275 30.7354C45.2886 32.7682 45.8293 34.77 46.8864 36.5068C47.8224 37.4422 50.4732 38.0668 52.5007 38.2211C50.497 38.0738 48.4933 38.5069 46.7292 39.4685C45.6693 41.1651 45.028 43.0895 44.8584 45.0828L44.8589 45.0816Z" fill="#FFD543"/>
</g>
</g>
</g>
</svg>
