<svg xmlns="http://www.w3.org/2000/svg" width="178.55" height="52.32" viewBox="0 0 178.55 52.32">
  <g>
    <clipPath id="clip"><path d="M0,0h178.55v52.32h-178.55z"/></clipPath>
    <g clip-path="url(#clip)">
      <path fill="#ffffff" d="M65.95,27.3c-1.66,0 -2.57,-0.5 -2.57,-1.66s0.9,-1.63 2.57,-1.63c0.55,0 1.2,0.06 1.54,0.09v3.06a9.88,9.88 0,0 1,-1.54 0.15M42.2,27.18a4.48,4.48 0,0 1,-1.37 -0.15L40.83,19.78a4.54,4.54 0,0 1,2.1 -0.41c1.81,0 2.77,1.25 2.77,3.61 0,2.48 -1.14,4.2 -3.5,4.2m39.29,-0.2a5.15,5.15 0,0 1,-1.54 0.2c-2.39,0 -3.32,-1.57 -3.32,-3.85 0,-2.54 0.93,-4.08 3.29,-4.08a5.58,5.58 0,0 1,1.57 0.2ZM128.7,27.22c-2.01,0 -2.62,-1.63 -2.62,-3.96 0,-2.27 0.61,-4.02 2.62,-4.02 2.07,0 2.65,1.69 2.65,4.02 0,2.45 -0.67,3.96 -2.65,3.96M90.7,21.64a2.68,2.68 0,0 1,2.68 -2.57c1.63,0 2.27,1.11 2.33,2.57ZM58.63,16.48a4.19,4.19 0,0 0,-3.64 1.87,9.29 9.29,0 0,0 -0.41,-1.72 5.58,5.58 0,0 0,-1.49 -0.15,6.83 6.83,0 0,0 -1.46,0.15v13.2a8.23,8.23 0,0 0,1.81 0.15,10.21 10.21,0 0,0 1.81,-0.15L55.25,23.39c0,-2.57 1.34,-3.93 3.15,-3.93a8.28,8.28 0,0 1,1.2 0.06,7.55 7.55,0 0,0 0.06,-2.91 5.22,5.22 0,0 0,-1.02 -0.12m70.07,-0.17c-4.05,0 -6.32,2.77 -6.32,6.94 0,4.23 2.39,6.88 6.32,6.88 4.08,0 6.35,-2.71 6.35,-6.88 0,-4.2 -2.27,-6.94 -6.35,-6.94M118.59,27.15c-1.81,0 -3,-1.43 -3,-3.93 0,-2.39 0.96,-3.93 3.03,-3.93a5.72,5.72 0,0 1,2.3 0.47,7.72 7.72,0 0,1 1.28,-2.54 8.1,8.1 0,0 0,-4.05 -0.9c-3.99,0 -6.3,2.83 -6.3,6.91 0,4.23 2.36,6.91 6.44,6.91a8.2,8.2 0,0 0,3.96 -0.88,8.32 8.32,0 0,1 -1.37,-2.54 5.02,5.02 0,0 1,-2.3 0.44m-11.25,-5.16 l-1.46,-0.61c-0.85,-0.35 -1.34,-0.64 -1.34,-1.2 0,-0.85 0.76,-1.02 1.75,-1.02a10.81,10.81 0,0 1,3.41 0.55,7.04 7.04,0 0,0 0,-2.71 9.61,9.61 0,0 0,-3.93 -0.7c-2.8,0 -4.93,1.52 -4.93,3.79 0,2.04 0.88,3.06 3.32,4.05l1.14,0.47c1.08,0.44 1.4,0.7 1.4,1.4 0,1.05 -1.05,1.22 -1.92,1.22a11.04,11.04 0,0 1,-3.96 -0.79,5.8 5.8,0 0,0 0,2.83 9.91,9.91 0,0 0,4.55 0.85c2.77,0 4.99,-1.46 4.99,-4.08 0,-2.16 -0.93,-3.18 -3,-4.05M93.44,16.31c-3.91,0 -6.3,2.62 -6.3,7s2.54,6.82 6.88,6.82a10.24,10.24 0,0 0,4.11 -0.76,6.45 6.45,0 0,0 0,-2.8 13.3,13.3 0,0 1,-3.73 0.61c-2.01,0 -3.41,-0.76 -3.7,-2.89h8.22A9.02,9.02 0,0 0,99.07 22.46c0,-3.93 -2.21,-6.15 -5.63,-6.15m-28.13,0a15.15,15.15 0,0 0,-3.91 0.44,6.31 6.31,0 0,0 0,2.86 12.88,12.88 0,0 1,3.32 -0.38c1.87,0 2.77,0.76 2.77,2.3v0.15c-0.55,-0.06 -1.22,-0.12 -1.69,-0.12 -3.09,0 -5.74,1.11 -5.74,4.08 0,3.35 2.39,4.49 5.86,4.49a17.83,17.83 0,0 0,5.04 -0.79L70.97,21.79c0,-3.62 -1.95,-5.39 -5.66,-5.48M81.49,13.4v3.18a7.27,7.27 0,0 0,-1.89 -0.2c-3.99,0 -6.7,2.68 -6.7,6.97 0,4.37 2.65,6.79 6.79,6.79a17.32,17.32 0,0 0,5.42 -0.82L85.1,10.45a10.81,10.81 0,0 0,-3 1.63A1.5,1.5 0,0 0,81.49 13.4M43.54,16.37a6.48,6.48 0,0 0,-2.71 0.55L40.83,10.45a10.78,10.78 0,0 0,-3 1.63,1.5 1.5,0 0,0 -0.61,1.31L37.21,29.36a14.2,14.2 0,0 0,4.78 0.76c4.72,0 7.43,-2.89 7.43,-7.05 0,-4.14 -1.92,-6.7 -5.89,-6.7"/>
      <path fill="#ffffff" d="M14.89,6.41a35.25,35.25 0,0 0,-5.81 0.5,11.04 11.04,0 0,1 8.72,-4.23 11.26,11.26 0,0 1,6.98 2.45c0.32,0.26 0.56,0.29 0.81,0.05s0.22,-0.48 -0.05,-0.79A12.31,12.31 0,0 0,4.59 7.95,22.16 22.16,0 0,0 0.39,9.7c-0.34,0.19 -0.46,0.43 -0.34,0.72a0.53,0.53 0,0 0,0.71 0.26c1.07,-0.31 2.17,-0.58 3.32,-0.82a9.33,9.33 0,0 0,-0.2 1.87A12.1,12.1 0,0 0,9.49 22.12c0.34,0.22 0.63,0.22 0.83,-0.05s0.17,-0.5 -0.12,-0.77A10.58,10.58 0,0 1,6.78 13.5a10.3,10.3 0,0 1,0.86 -4.16c1.15,-0.1 2.39,-0.17 3.76,-0.17 8.89,0 16.38,2.93 16.38,6.77 0,1.95 -2.47,3.89 -5.4,5.19 -0.71,0.31 -0.78,0.53 -0.68,0.84 0.1,0.29 0.41,0.38 0.78,0.26 5.13,-1.68 9.01,-4.44 9.01,-7.78 0,-4.54 -7.32,-8.05 -16.6,-8.05"/>
      <path fill="#ffffff" d="M37.38,51.44a3.51,3.51 0,0 1,-0.06 -0.65,3.63 3.63,0 0,1 0.06,-0.63 6.47,6.47 0,0 0,2.79 0.61c1.8,0 2.79,-0.8 2.79,-2.75v-0.71a5.73,5.73 0,0 1,-2.27 0.44c-2.33,0 -3.98,-1.68 -3.98,-4.41a4.53,4.53 0,0 1,4.82 -4.87,8.82 8.82,0 0,1 3.02,0.53v8.85c0,2.71 -1.55,4.2 -4.2,4.2a7.01,7.01 0,0 1,-2.96 -0.61m5.58,-5.35L42.96,39.94a4.82,4.82 0,0 0,-1.53 -0.19c-1.97,0 -3.12,1.4 -3.12,3.63 0,1.89 1.03,3.12 2.64,3.12a5.08,5.08 0,0 0,2.01 -0.4"/>
      <path fill="#ffffff" d="M50.2,43.3c0,-3.06 1.59,-4.84 4.13,-4.84 2.62,0 4.13,1.76 4.13,4.84 0,3 -1.57,4.82 -4.15,4.82 -2.54,0 -4.11,-1.8 -4.11,-4.82m6.65,0c0,-2.35 -0.86,-3.56 -2.52,-3.56 -1.62,0 -2.52,1.24 -2.52,3.56 0,2.27 0.86,3.54 2.5,3.54 1.66,0 2.54,-1.22 2.54,-3.54"/>
      <path fill="#ffffff" d="M60.31,47.68L60.31,35.65a0.79,0.79 0,0 1,0.31 -0.69,4.95 4.95,0 0,1 1.28,-0.73v4.64a6.03,6.03 0,0 1,2.27 -0.42c2.33,0 4.03,1.59 4.03,4.59 0,3.08 -1.8,5.05 -4.86,5.05a10.52,10.52 0,0 1,-3.04 -0.42m6.29,-4.64c0,-2.16 -1.13,-3.29 -2.69,-3.29a4.71,4.71 0,0 0,-2.01 0.4v6.52a5.93,5.93 0,0 0,1.51 0.15c1.95,0 3.19,-1.3 3.19,-3.78"/>
      <path fill="#ffffff" d="M76.58,42.25L76.58,47.64a12.17,12.17 0,0 1,-3.33 0.48c-2.16,0 -3.73,-0.92 -3.73,-2.98 0,-1.8 1.45,-2.85 3.84,-2.85a10.83,10.83 0,0 1,1.72 0.11v-0.36c0,-1.59 -0.86,-2.29 -2.39,-2.29a8.68,8.68 0,0 0,-2.41 0.32,3.38 3.38,0 0,1 -0.06,-0.65A2.79,2.79 0,0 1,70.29 38.83a8.55,8.55 0,0 1,2.46 -0.36c2.31,0 3.82,1.13 3.82,3.79m-1.49,4.43L75.08,43.53a9.73,9.73 0,0 0,-1.61 -0.1c-1.64,0 -2.48,0.48 -2.48,1.66 0,1.15 0.8,1.78 2.29,1.78a9.41,9.41 0,0 0,1.8 -0.19"/>
      <path fill="#ffffff" d="M86.32,39.04a11.31,11.31 0,0 1,3.36 -0.57c2.71,0 4.53,1.61 4.53,4.66 0,3.04 -1.87,4.95 -4.63,4.95a7.85,7.85 0,0 1,-1.68 -0.17v3a0.87,0.87 0,0 1,-0.31 0.69,4.04 4.04,0 0,1 -1.28,0.73ZM92.61,43.13c0,-2.14 -1.07,-3.38 -2.98,-3.38a6.66,6.66 0,0 0,-1.72 0.25v6.61a6.2,6.2 0,0 0,1.62 0.19c1.82,0 3.08,-1.22 3.08,-3.67"/>
      <path fill="#ffffff" d="M108.91,47.96l-3.75,-9.35a4.54,4.54 0,0 1,0.86 -0.08,4.75 4.75,0 0,1 0.88,0.08l2.69,7.26 2.69,-7.26a4.16,4.16 0,0 1,0.82 -0.08,4.35 4.35,0 0,1 0.84,0.08l-3.75,9.35a3.74,3.74 0,0 1,-0.63 0.06,4 4,0 0,1 -0.67,-0.06"/>
      <path fill="#ffffff" d="M121.41,42.25L121.41,47.64a12.17,12.17 0,0 1,-3.33 0.48c-2.16,0 -3.73,-0.92 -3.73,-2.98 0,-1.8 1.45,-2.85 3.84,-2.85a10.83,10.83 0,0 1,1.72 0.11v-0.36c0,-1.59 -0.86,-2.29 -2.39,-2.29a8.68,8.68 0,0 0,-2.41 0.32,3.38 3.38,0 0,1 -0.06,-0.65A2.79,2.79 0,0 1,115.12 38.83a8.55,8.55 0,0 1,2.46 -0.36c2.31,0 3.82,1.13 3.82,3.79m-1.49,4.43L119.92,43.53a9.73,9.73 0,0 0,-1.61 -0.1c-1.64,0 -2.48,0.48 -2.48,1.66 0,1.15 0.8,1.78 2.29,1.78a9.41,9.41 0,0 0,1.8 -0.19"/>
      <path fill="#ffffff" d="M136.87,43.63h-6.17c0.1,1.99 1.15,3.21 3.06,3.21a8.26,8.26 0,0 0,2.62 -0.46,3.27 3.27,0 0,1 0,1.22 7.35,7.35 0,0 1,-2.73 0.5c-2.83,0 -4.47,-1.83 -4.47,-4.78 0,-2.9 1.59,-4.85 4.09,-4.85 2.18,0 3.67,1.59 3.67,4.13a8.71,8.71 0,0 1,-0.06 1.03M135.43,42.44c0,-1.61 -0.78,-2.75 -2.2,-2.75 -1.34,0 -2.39,1.03 -2.52,2.75Z"/>
      <path fill="#ffffff" d="M142.53,47.68L142.53,35.65a0.79,0.79 0,0 1,0.31 -0.69,4.95 4.95,0 0,1 1.28,-0.73v4.64a6.03,6.03 0,0 1,2.27 -0.42c2.33,0 4.03,1.59 4.03,4.59 0,3.08 -1.8,5.05 -4.86,5.05a10.52,10.52 0,0 1,-3.04 -0.42m6.29,-4.64c0,-2.16 -1.13,-3.29 -2.69,-3.29a4.71,4.71 0,0 0,-2.01 0.4v6.52a5.93,5.93 0,0 0,1.51 0.15c1.95,0 3.19,-1.3 3.19,-3.78"/>
      <path fill="#ffffff" d="M158.79,42.25L158.79,47.64a12.17,12.17 0,0 1,-3.33 0.48c-2.16,0 -3.73,-0.92 -3.73,-2.98 0,-1.8 1.45,-2.85 3.84,-2.85a10.83,10.83 0,0 1,1.72 0.11v-0.36c0,-1.59 -0.86,-2.29 -2.39,-2.29a8.68,8.68 0,0 0,-2.41 0.32,3.38 3.38,0 0,1 -0.06,-0.65A2.79,2.79 0,0 1,152.51 38.83a8.55,8.55 0,0 1,2.46 -0.36c2.31,0 3.82,1.13 3.82,3.79m-1.49,4.43L157.3,43.53a9.73,9.73 0,0 0,-1.61 -0.1c-1.64,0 -2.48,0.48 -2.48,1.66 0,1.15 0.8,1.78 2.29,1.78a9.41,9.41 0,0 0,1.8 -0.19"/>
      <path fill="#ffffff" d="M160.94,47.96L160.94,39a14.06,14.06 0,0 1,3.67 -0.53c2.71,0 4.24,1.45 4.24,4.28v5.22a5.05,5.05 0,0 1,-0.82 0.08,4.34 4.34,0 0,1 -0.76,-0.08v-5.16c0,-2.08 -0.95,-3.06 -2.75,-3.06a8.09,8.09 0,0 0,-1.99 0.23v7.99a5.04,5.04 0,0 1,-0.82 0.08,4.33 4.33,0 0,1 -0.76,-0.08"/>
      <path fill="#ffffff" d="M178.55,47.96a5.14,5.14 0,0 1,-0.97 0.08,4.47 4.47,0 0,1 -0.9,-0.08l-4.13,-4.87v4.87a4.8,4.8 0,0 1,-0.8 0.08,4.34 4.34,0 0,1 -0.76,-0.08L170.98,35.65a0.79,0.79 0,0 1,0.31 -0.69,5.11 5.11,0 0,1 1.26,-0.73v8.31l3.78,-3.94a4.95,4.95 0,0 1,0.9 -0.08,4.82 4.82,0 0,1 0.9,0.08L174.12,42.76Z"/>
      <path fill="#ffffff" d="M15.1,21.38l-1.8,1.04a0.57,0.57 0,0 0,-0.31 0.53v6.72a0.3,0.3 0,0 0,0.31 0.3h1.8Z"/>
      <path fill="#ffffff" d="M18.47,19.44l-2.63,1.51v9.02h2.82a0.47,0.47 0,0 0,0.47 -0.47L19.13,19.78a0.41,0.41 0,0 0,-0.66 -0.34"/>
      <path fill="#ffffff" d="M46.76,47.96L46.76,35.65a0.79,0.79 0,0 1,0.31 -0.69,4.92 4.92,0 0,1 1.28,-0.73L48.35,47.96a5.06,5.06 0,0 1,-0.82 0.08,4.33 4.33,0 0,1 -0.76,-0.08"/>
      <path fill="#ffffff" d="M78.73,47.96L78.73,35.65a0.79,0.79 0,0 1,0.31 -0.69,4.92 4.92,0 0,1 1.28,-0.73L80.32,47.96a5.06,5.06 0,0 1,-0.82 0.08,4.33 4.33,0 0,1 -0.76,-0.08"/>
      <path fill="#ffffff" d="M96.06,47.96L96.06,38.62a3.64,3.64 0,0 1,0.69 -0.08,2.59 2.59,0 0,1 0.67,0.08 9.27,9.27 0,0 1,0.15 1.3,3.04 3.04,0 0,1 2.52,-1.38 4.5,4.5 0,0 1,0.73 0.08,3.15 3.15,0 0,1 0.06,0.59 2.95,2.95 0,0 1,-0.08 0.69,2.86 2.86,0 0,0 -0.73,-0.06 2.58,2.58 0,0 0,-2.43 2.85v5.27a5.06,5.06 0,0 1,-0.82 0.08,4.33 4.33,0 0,1 -0.76,-0.08"/>
      <path fill="#ffffff" d="M102.26,36.98c-0.02,-0.25 -0.04,-0.55 -0.04,-0.8s0.02,-0.55 0.04,-0.78a3.94,3.94 0,0 1,0.86 -0.06,3.51 3.51,0 0,1 0.82,0.06c0.02,0.23 0.04,0.54 0.04,0.78s-0.02,0.55 -0.04,0.8a5.61,5.61 0,0 1,-0.86 0.06,5.07 5.07,0 0,1 -0.82,-0.06m0.04,10.99L102.3,38.62a5.07,5.07 0,0 1,0.82 -0.08,4.34 4.34,0 0,1 0.76,0.08v9.35a5.06,5.06 0,0 1,-0.82 0.08,4.33 4.33,0 0,1 -0.76,-0.08"/>
      <path fill="#ffffff" d="M128.35,46.68a3.51,3.51 0,0 1,0.06 0.61,3.19 3.19,0 0,1 -0.06,0.61 5.15,5.15 0,0 1,-1.49 0.19c-1.8,0 -3.29,-1.09 -3.29,-3.69L123.57,37.37a0.83,0.83 0,0 1,0.31 -0.67,4.2 4.2,0 0,1 1.28,-0.73v2.64h3.19a3.25,3.25 0,0 1,0.06 0.63,3.78 3.78,0 0,1 -0.06,0.65h-3.19v4.55c0,1.55 0.78,2.37 1.85,2.37a5.55,5.55 0,0 0,1.34 -0.13"/>
    </g>
  </g>
</svg>