<svg xmlns="http://www.w3.org/2000/svg" width="135" height="30.12" viewBox="0 0 135 30.12">
  <path fill="#ffffff" d="M18.47,19.43l-2.27,1.3a0.22,0.22 0,0 0,-0.11 0.19v8.97a0.07,0.07 0,0 0,0.07 0.07h2.49a0.47,0.47 0,0 0,0.47 -0.47L19.12,19.77A0.41,0.41 0,0 0,18.47 19.43ZM58.61,16.48a4.19,4.19 0,0 0,-3.64 1.87,9.2 9.2,0 0,0 -0.41,-1.72 5.59,5.59 0,0 0,-1.49 -0.15,6.82 6.82,0 0,0 -1.46,0.15v13.2a8.26,8.26 0,0 0,1.81 0.15,10.27 10.27,0 0,0 1.81,-0.15v-6.44c0,-2.56 1.34,-3.93 3.15,-3.93a8.2,8.2 0,0 1,1.19 0.06,7.55 7.55,0 0,0 0.06,-2.91A5.17,5.17 0,0 0,58.61 16.48ZM14.88,6.41a35.2,35.2 0,0 0,-5.81 0.5,11.03 11.03,0 0,1 8.71,-4.23 11.27,11.27 0,0 1,6.98 2.45c0.32,0.26 0.56,0.29 0.81,0.05s0.22,-0.48 -0.05,-0.79a12.31,12.31 0,0 0,-20.94 3.55,22.12 22.12,0 0,0 -4.2,1.75c-0.34,0.19 -0.46,0.43 -0.34,0.72a0.53,0.53 0,0 0,0.71 0.26c1.07,-0.31 2.17,-0.58 3.32,-0.82a9.38,9.38 0,0 0,-0.2 1.87,12.1 12.1,0 0,0 5.61,10.37c0.34,0.22 0.63,0.22 0.83,-0.05s0.17,-0.5 -0.12,-0.77a10.58,10.58 0,0 1,-3.42 -7.8,10.3 10.3,0 0,1 0.85,-4.15c1.15,-0.1 2.39,-0.17 3.76,-0.17 8.88,0 16.37,2.93 16.37,6.77 0,1.94 -2.46,3.89 -5.39,5.18 -0.71,0.31 -0.78,0.53 -0.68,0.84 0.1,0.29 0.41,0.38 0.78,0.26 5.13,-1.67 9.01,-4.44 9.01,-7.77C31.48,9.92 24.15,6.41 14.88,6.41ZM43.52,16.35a6.48,6.48 0,0 0,-2.71 0.55L40.81,10.44a10.75,10.75 0,0 0,-3 1.63,1.5 1.5,0 0,0 -0.61,1.31v15.97a14.19,14.19 0,0 0,4.78 0.76c4.72,0 7.43,-2.88 7.43,-7.05C49.4,18.92 47.48,16.35 43.52,16.35ZM42.18,27.16a4.47,4.47 0,0 1,-1.37 -0.15L40.81,19.77a4.55,4.55 0,0 1,2.1 -0.41c1.81,0 2.77,1.25 2.77,3.61 0,2.48 -1.14,4.2 -3.5,4.2ZM15.08,21.38 L13.3,22.41a0.57,0.57 0,0 0,-0.31 0.53v6.72a0.31,0.31 0,0 0,0.31 0.31h1.8a0.07,0.07 0,0 0,0.07 -0.07L15.16,21.42a0.06,0.06 0,0 0,-0.08 -0.04ZM118.54,27.14c-1.81,0 -3,-1.43 -3,-3.93 0,-2.39 0.96,-3.93 3.03,-3.93a5.71,5.71 0,0 1,2.3 0.47,7.71 7.71,0 0,1 1.28,-2.54 8.09,8.09 0,0 0,-4.05 -0.9c-3.99,0 -6.29,2.83 -6.29,6.91 0,4.22 2.36,6.91 6.44,6.91a8.18,8.18 0,0 0,3.96 -0.87,8.32 8.32,0 0,1 -1.37,-2.54 5.14,5.14 0,0 1,-2.3 0.43ZM128.65,16.3c-4.05,0 -6.32,2.77 -6.32,6.93 0,4.22 2.39,6.88 6.32,6.88 4.08,0 6.35,-2.71 6.35,-6.88 0,-4.2 -2.27,-6.93 -6.35,-6.93ZM128.65,27.2c-2.01,0 -2.62,-1.63 -2.62,-3.96 0,-2.27 0.61,-4.02 2.62,-4.02 2.07,0 2.65,1.7 2.65,4.02 0,2.45 -0.67,3.96 -2.65,3.96ZM65.28,16.3a15.12,15.12 0,0 0,-3.9 0.44,6.3 6.3,0 0,0 0,2.86 12.91,12.91 0,0 1,3.32 -0.38c1.87,0 2.77,0.76 2.77,2.3v0.15c-0.55,-0.06 -1.22,-0.12 -1.7,-0.12 -3.09,0 -5.74,1.11 -5.74,4.08 0,3.35 2.39,4.49 5.86,4.49a17.81,17.81 0,0 0,5.04 -0.78L70.93,21.78c0,-3.61 -1.95,-5.39 -5.65,-5.48ZM67.47,27.14a9.93,9.93 0,0 1,-1.54 0.15c-1.66,0 -2.56,-0.5 -2.56,-1.66s0.9,-1.63 2.56,-1.63c0.55,0 1.19,0.06 1.54,0.09ZM107.29,21.98 L105.84,21.37c-0.85,-0.35 -1.34,-0.64 -1.34,-1.19 0,-0.85 0.76,-1.02 1.75,-1.02a10.82,10.82 0,0 1,3.41 0.55,7.06 7.06,0 0,0 0,-2.71 9.59,9.59 0,0 0,-3.93 -0.7c-2.8,0 -4.92,1.51 -4.92,3.78 0,2.04 0.87,3.06 3.32,4.05l1.14,0.47c1.08,0.44 1.4,0.7 1.4,1.4 0,1.04 -1.04,1.22 -1.92,1.22a11.11,11.11 0,0 1,-3.96 -0.78,5.8 5.8,0 0,0 0,2.83 9.9,9.9 0,0 0,4.55 0.85c2.77,0 4.98,-1.46 4.98,-4.08 0,-2.15 -0.93,-3.17 -3,-4.05ZM93.4,16.3c-3.9,0 -6.29,2.62 -6.29,6.99s2.54,6.82 6.88,6.82a10.21,10.21 0,0 0,4.11 -0.76,6.47 6.47,0 0,0 0,-2.8 13.32,13.32 0,0 1,-3.73 0.61c-2.01,0 -3.41,-0.76 -3.7,-2.88h8.21a9.06,9.06 0,0 0,0.15 -1.84C99.02,18.52 96.8,16.3 93.4,16.3ZM90.66,21.63a2.68,2.68 0,0 1,2.68 -2.56c1.63,0 2.27,1.11 2.33,2.56ZM81.45,13.39v3.18a7.24,7.24 0,0 0,-1.89 -0.21c-3.99,0 -6.7,2.68 -6.7,6.96 0,4.37 2.65,6.79 6.79,6.79a17.3,17.3 0,0 0,5.42 -0.81L85.07,10.44a10.75,10.75 0,0 0,-3 1.63,1.49 1.49,0 0,0 -0.62,1.31ZM81.45,26.96a5.12,5.12 0,0 1,-1.54 0.2c-2.39,0 -3.32,-1.57 -3.32,-3.85 0,-2.54 0.93,-4.08 3.29,-4.08a5.57,5.57 0,0 1,1.57 0.2Z"/>
</svg>