<svg xmlns="http://www.w3.org/2000/svg" width="135" height="52.26" viewBox="0 0 135 52.26">
  <path fill="#ffffff" d="M37.2,39.26a11.22,11.22 0,0 1,3.3 -0.56c2.66,0 4.44,1.57 4.44,4.56s-1.84,4.85 -4.53,4.85a7.63,7.63 0,0 1,-1.64 -0.17v2.93a0.81,0.81 0,0 1,-0.31 0.67,3.86 3.86,0 0,1 -1.25,0.71ZM38.76,40.2v6.48a6.14,6.14 0,0 0,1.59 0.18c1.78,0 3.02,-1.2 3.02,-3.6 0,-2.1 -1.04,-3.31 -2.92,-3.31A6.02,6.02 0,0 0,38.76 40.2ZM71.49,43.44c0,-2.85 1.56,-4.76 4.01,-4.76 2.13,0 3.59,1.56 3.59,4.05a7.79,7.79 0,0 1,-0.04 1.01h-6.05c0.1,1.95 1.13,3.14 2.99,3.14a7.94,7.94 0,0 0,2.56 -0.45,3.22 3.22,0 0,1 0,1.2 7.26,7.26 0,0 1,-2.67 0.49C73.1,48.13 71.49,46.34 71.49,43.44ZM73.01,42.6h4.63c0,-1.57 -0.76,-2.7 -2.15,-2.7C74.18,39.9 73.14,40.91 73.01,42.6ZM46.75,48.01v-9.15a3.18,3.18 0,0 1,0.67 -0.07,2.46 2.46,0 0,1 0.65,0.07 11.96,11.96 0,0 1,0.15 1.28,2.99 2.99,0 0,1 2.47,-1.35 5.56,5.56 0,0 1,0.71 0.07,2.69 2.69,0 0,1 0.05,0.58 2.78,2.78 0,0 1,-0.07 0.67,2.8 2.8,0 0,0 -0.71,-0.06 2.52,2.52 0,0 0,-2.38 2.8v5.17a4.51,4.51 0,0 1,-0.81 0.07A4.97,4.97 0,0 1,46.75 48.01ZM52.84,48.01v-9.15a4.51,4.51 0,0 1,0.81 -0.07,5.52 5.52,0 0,1 0.75,0.07v9.15a4.6,4.6 0,0 1,-0.81 0.07A3.95,3.95 0,0 1,52.84 48.01ZM68.21,47.99v-5.05c0,-2.1 -0.88,-2.99 -2.6,-2.99a5.72,5.72 0,0 0,-2.17 0.44,4.92 4.92,0 0,1 0.56,2.49v5.1a4.61,4.61 0,0 1,-0.81 0.07,5.67 5.67,0 0,1 -0.75,-0.07L62.44,42.9c0,-2.04 -0.76,-2.96 -2.47,-2.96a6.12,6.12 0,0 0,-1.85 0.25v7.8a4.61,4.61 0,0 1,-0.81 0.07,5.66 5.66,0 0,1 -0.75,-0.07v-8.76a12.41,12.41 0,0 1,3.5 -0.54,4.23 4.23,0 0,1 2.53,0.72 7.41,7.41 0,0 1,3.1 -0.72c2.5,0.01 4.07,1.43 4.07,4.2v5.1a4.61,4.61 0,0 1,-0.81 0.07A5.67,5.67 0,0 1,68.21 47.99ZM52.82,37.24c-0.01,-0.25 -0.04,-0.54 -0.04,-0.79a6.64,6.64 0,0 1,0.04 -0.76,3.97 3.97,0 0,1 0.85,-0.05 3.52,3.52 0,0 1,0.81 0.05c0.01,0.22 0.04,0.53 0.04,0.76a7.72,7.72 0,0 1,-0.04 0.79,5.01 5.01,0 0,1 -0.85,0.05A4.4,4.4 0,0 1,52.82 37.24ZM100.78,29.29a5.7,5.7 0,0 1,0 -2.82,10.94 10.94,0 0,0 3.96,0.79c0.88,0 1.92,-0.18 1.92,-1.22 0,-0.71 -0.32,-0.97 -1.4,-1.4l-1.14,-0.47c-2.45,-0.99 -3.32,-2 -3.32,-4.05 0,-2.27 2.13,-3.78 4.92,-3.78a9.5,9.5 0,0 1,3.93 0.69,6.81 6.81,0 0,1 0,2.71 10.56,10.56 0,0 0,-3.41 -0.56c-1,0 -1.75,0.17 -1.75,1.02 0,0.56 0.49,0.85 1.34,1.2l1.46,0.61c2.07,0.88 3,1.89 3.02,4.06 0,2.61 -2.21,4.07 -4.98,4.07A9.93,9.93 0,0 1,100.78 29.29ZM122.32,23.25c0,-4.17 2.28,-6.94 6.33,-6.94 4.07,0 6.36,2.74 6.36,6.94 0,4.16 -2.28,6.87 -6.36,6.87C124.71,30.12 122.32,27.48 122.32,23.25ZM126.02,23.25c0,2.34 0.61,3.96 2.63,3.96 1.98,0 2.66,-1.52 2.66,-3.96 0,-2.32 -0.58,-4.02 -2.66,-4.02C126.63,19.23 126.02,20.99 126.02,23.25ZM111.81,23.22c0,-4.07 2.29,-6.9 6.28,-6.9a8.08,8.08 0,0 1,4.05 0.9,7.64 7.64,0 0,0 -1.28,2.53 5.42,5.42 0,0 0,-2.29 -0.47c-2.07,0 -3.03,1.54 -3.03,3.94 0,2.5 1.2,3.94 3,3.94a4.95,4.95 0,0 0,2.31 -0.44,8.19 8.19,0 0,0 1.36,2.53 8.2,8.2 0,0 1,-3.96 0.88C114.17,30.12 111.8,27.45 111.8,23.22ZM87.11,23.31c0,-4.37 2.38,-7 6.29,-7 3.41,0 5.62,2.22 5.62,6.16a9.49,9.49 0,0 1,-0.14 1.84h-8.22c0.29,2.13 1.68,2.88 3.7,2.88a13.39,13.39 0,0 0,3.73 -0.61,6.32 6.32,0 0,1 0,2.8 10.33,10.33 0,0 1,-4.1 0.75C89.64,30.12 87.11,27.68 87.11,23.31ZM90.65,21.65h5.02c-0.07,-1.45 -0.71,-2.56 -2.34,-2.56A2.68,2.68 0,0 0,90.65 21.65ZM72.85,23.33c0,-4.28 2.71,-6.97 6.7,-6.97a6.98,6.98 0,0 1,1.89 0.21v-3.17a1.54,1.54 0,0 1,0.61 -1.32,10.9 10.9,0 0,1 3,-1.63L85.05,29.3a17.28,17.28 0,0 1,-5.42 0.82C75.51,30.12 72.85,27.7 72.85,23.34ZM76.58,23.33c0,2.28 0.93,3.85 3.32,3.85a4.94,4.94 0,0 0,1.54 -0.21v-7.51a5.25,5.25 0,0 0,-1.57 -0.21C77.51,19.26 76.58,20.81 76.58,23.34ZM37.2,29.37v-15.96a1.47,1.47 0,0 1,0.61 -1.31,10.89 10.89,0 0,1 3,-1.63v6.47a6.5,6.5 0,0 1,2.71 -0.56c3.96,0 5.88,2.56 5.88,6.69 0,4.17 -2.71,7.05 -7.43,7.05A14.32,14.32 0,0 1,37.2 29.37ZM40.82,19.79v7.26a4.63,4.63 0,0 0,1.36 0.14c2.36,0 3.5,-1.72 3.5,-4.19 0,-2.36 -0.96,-3.62 -2.77,-3.62A4.54,4.54 0,0 0,40.81 19.79ZM60.03,25.62c0,-2.96 2.66,-4.07 5.74,-4.07 0.47,0 1.14,0.06 1.7,0.11v-0.14c0,-1.54 -0.9,-2.3 -2.77,-2.3a12.99,12.99 0,0 0,-3.32 0.38,6.16 6.16,0 0,1 0,-2.85 15.19,15.19 0,0 1,3.91 -0.43c3.7,0.1 5.65,1.88 5.63,5.45v7.55a17.6,17.6 0,0 1,-5.03 0.79C62.42,30.11 60.03,28.97 60.03,25.62ZM63.37,25.64c0,1.15 0.9,1.65 2.56,1.65a10.47,10.47 0,0 0,1.54 -0.14L67.47,24.1c-0.35,-0.03 -0.99,-0.08 -1.54,-0.08C64.27,24.02 63.37,24.48 63.37,25.65ZM15.84,30v-9.02l2.63,-1.52c0.31,-0.18 0.67,-0.04 0.65,0.35v9.72a0.47,0.47 0,0 1,-0.47 0.47ZM13.29,29.99a0.31,0.31 0,0 1,-0.31 -0.31v-6.72a0.57,0.57 0,0 1,0.31 -0.53l1.81,-1.04v8.59ZM51.62,29.83v-13.2a7.14,7.14 0,0 1,1.46 -0.14,5.83 5.83,0 0,1 1.49,0.14 9.68,9.68 0,0 1,0.4 1.72,4.18 4.18,0 0,1 3.64,-1.86 5.23,5.23 0,0 1,1.01 0.11,7.31 7.31,0 0,1 -0.06,2.91 8.54,8.54 0,0 0,-1.2 -0.06c-1.81,0 -3.14,1.38 -3.14,3.94v6.44a10.76,10.76 0,0 1,-1.81 0.14A8.61,8.61 0,0 1,51.62 29.83ZM21.68,22c-0.1,-0.31 -0.03,-0.53 0.68,-0.83 2.93,-1.29 5.39,-3.24 5.39,-5.19 0,-3.84 -7.48,-6.77 -16.37,-6.77 -1.36,0 -2.61,0.07 -3.76,0.17a10.44,10.44 0,0 0,-0.85 4.16,10.58 10.58,0 0,0 3.42,7.8c0.29,0.26 0.32,0.5 0.13,0.76s-0.49,0.26 -0.83,0.04a12.07,12.07 0,0 1,-5.62 -10.37,9.11 9.11,0 0,1 0.19,-1.88c-1.15,0.25 -2.25,0.51 -3.32,0.82a0.54,0.54 0,0 1,-0.71 -0.26c-0.11,-0.29 0,-0.53 0.35,-0.72a24.19,24.19 0,0 1,4.2 -1.78,12.3 12.3,0 0,1 20.93,-3.55c0.28,0.31 0.31,0.56 0.05,0.79s-0.49,0.22 -0.81,-0.04a11.3,11.3 0,0 0,-6.98 -2.45,11.02 11.02,0 0,0 -8.7,4.23 35.6,35.6 0,0 1,5.81 -0.5c9.26,0 16.59,3.5 16.56,8.07 0,3.34 -3.88,6.09 -9,7.77a0.91,0.91 0,0 1,-0.3 0.05A0.47,0.47 0,0 1,21.68 22Z"/>
</svg>