<svg xmlns="http://www.w3.org/2000/svg" width="135" height="48.15" viewBox="0 0 135 48.15">
  <path fill="#ffffff" d="M66.22,43.96v-5.1a4.56,4.56 0,0 1,0.81 -0.07,5.59 5.59,0 0,1 0.75,0.07v5.05c0,2.04 0.92,2.98 2.66,2.98a8.25,8.25 0,0 0,1.9 -0.22v-7.8a4.29,4.29 0,0 1,0.79 -0.07,5.67 5.67,0 0,1 0.76,0.07v8.76a13.4,13.4 0,0 1,-3.56 0.53C67.68,48.13 66.22,46.73 66.22,43.96ZM95.66,43.44c0,-2.85 1.56,-4.76 4,-4.76 2.13,0 3.59,1.56 3.59,4.05a6.02,6.02 0,0 1,-0.04 1.01h-6.05c0.1,1.95 1.13,3.14 2.99,3.14a7.97,7.97 0,0 0,2.56 -0.44,3.24 3.24,0 0,1 0,1.2 7.26,7.26 0,0 1,-2.67 0.49C97.27,48.13 95.66,46.34 95.66,43.44ZM97.18,42.6h4.63c0,-1.57 -0.76,-2.7 -2.16,-2.7C98.34,39.9 97.31,40.91 97.18,42.6ZM75.59,47.59a2.37,2.37 0,0 1,-0.07 -0.61,2.12 2.12,0 0,1 0.07,-0.61 7,7 0,0 0,2.64 0.53c0.9,0 1.84,-0.33 1.84,-1.34 0,-0.72 -0.42,-1.13 -1.47,-1.59l-0.7,-0.31c-1.64,-0.71 -2.16,-1.4 -2.16,-2.6 0,-1.4 1.42,-2.36 3.1,-2.36a5.91,5.91 0,0 1,2.39 0.44,2.43 2.43,0 0,1 0.06,0.56 3.3,3.3 0,0 1,-0.06 0.64,6.35 6.35,0 0,0 -2.2,-0.39c-0.93,0 -1.78,0.28 -1.78,1.14 0,0.7 0.49,0.96 1.39,1.36l0.9,0.42c1.4,0.64 2.06,1.4 2.06,2.7 0,1.57 -1.42,2.56 -3.18,2.56A6.29,6.29 0,0 1,75.59 47.59ZM36.98,43.44c0,-2.85 1.56,-4.76 4,-4.76 2.13,0 3.59,1.56 3.59,4.05a6.11,6.11 0,0 1,-0.04 1.01L38.48,43.75c0.1,1.95 1.13,3.14 2.99,3.14a7.97,7.97 0,0 0,2.56 -0.44,3.24 3.24,0 0,1 0,1.2 7.26,7.26 0,0 1,-2.67 0.49C38.59,48.13 36.98,46.34 36.98,43.44ZM38.49,42.6h4.63c0,-1.57 -0.76,-2.7 -2.16,-2.7C39.66,39.9 38.63,40.91 38.49,42.6ZM54.43,43.42c0,-2.81 1.56,-4.72 4.12,-4.72a5.32,5.32 0,0 1,2.22 0.44,2.72 2.72,0 0,1 0.06,0.6 3.49,3.49 0,0 1,-0.06 0.64,4.94 4.94,0 0,0 -1.95,-0.42c-1.95,0 -2.82,1.28 -2.82,3.42s0.86,3.46 2.85,3.46a6.25,6.25 0,0 0,2.07 -0.38,2.77 2.77,0 0,1 0.05,0.6 2.9,2.9 0,0 1,-0.05 0.61,5.62 5.62,0 0,1 -2.32,0.43h-0.03C55.89,48.12 54.43,46.31 54.43,43.42ZM62.55,48.01v-12.06a0.76,0.76 0,0 1,0.31 -0.67,5.06 5.06,0 0,1 1.25,-0.71v13.45a4.55,4.55 0,0 1,-0.81 0.07A5.42,5.42 0,0 1,62.55 48.01ZM83.35,48.01v-9.15a4.56,4.56 0,0 1,0.81 -0.07,5.45 5.45,0 0,1 0.75,0.07v9.15a4.56,4.56 0,0 1,-0.81 0.07A3.71,3.71 0,0 1,83.35 48.01ZM51.77,48.01 L49.46,43.67 47.14,48.01a3.83,3.83 0,0 1,-0.82 0.07,4.32 4.32,0 0,1 -0.86,-0.07l2.7,-4.77 -2.49,-4.38a4.26,4.26 0,0 1,0.85 -0.07,7.94 7.94,0 0,1 0.82,0.07l2.13,3.94 2.16,-3.94a4.64,4.64 0,0 1,0.79 -0.07,4.09 4.09,0 0,1 0.82,0.07l-2.47,4.31 2.75,4.84a5.71,5.71 0,0 1,-0.88 0.07C52.36,48.07 52.05,48.03 51.77,48.01ZM89.82,48.01 L86.14,38.86a4.45,4.45 0,0 1,0.85 -0.07,4.69 4.69,0 0,1 0.86,0.07l2.64,7.12 2.64,-7.12a4.13,4.13 0,0 1,0.81 -0.07,4.18 4.18,0 0,1 0.82,0.07l-3.67,9.15a3.21,3.21 0,0 1,-0.61 0.06A3.59,3.59 0,0 1,89.82 48.01ZM83.31,37.24c-0.01,-0.25 -0.04,-0.54 -0.04,-0.79a6.78,6.78 0,0 1,0.04 -0.76,3.94 3.94,0 0,1 0.85,-0.06 3.49,3.49 0,0 1,0.81 0.06c0.01,0.22 0.04,0.53 0.04,0.76a7.66,7.66 0,0 1,-0.04 0.79,5.05 5.05,0 0,1 -0.85,0.06A4.54,4.54 0,0 1,83.31 37.24ZM100.77,29.29a5.71,5.71 0,0 1,0 -2.82,10.94 10.94,0 0,0 3.96,0.79c0.88,0 1.92,-0.18 1.92,-1.22 0,-0.71 -0.32,-0.97 -1.4,-1.4l-1.14,-0.47c-2.45,-0.99 -3.32,-2 -3.32,-4.05 0,-2.27 2.13,-3.78 4.92,-3.78a9.51,9.51 0,0 1,3.94 0.7,6.84 6.84,0 0,1 0,2.71 10.59,10.59 0,0 0,-3.41 -0.56c-1,0 -1.75,0.17 -1.75,1.01 0,0.56 0.49,0.85 1.34,1.2l1.46,0.61c2.07,0.88 3,1.89 3.02,4.06 0,2.62 -2.21,4.07 -4.98,4.07A9.93,9.93 0,0 1,100.78 29.29ZM122.31,23.26c0,-4.17 2.28,-6.94 6.33,-6.94 4.07,0 6.36,2.74 6.36,6.94 0,4.16 -2.28,6.87 -6.36,6.87C124.71,30.12 122.32,27.48 122.32,23.25ZM126.01,23.26c0,2.34 0.61,3.96 2.63,3.96 1.97,0 2.66,-1.51 2.66,-3.96 0,-2.32 -0.58,-4.02 -2.66,-4.02C126.63,19.23 126.02,20.99 126.02,23.25ZM111.8,23.23c0,-4.07 2.29,-6.9 6.29,-6.9a8.07,8.07 0,0 1,4.05 0.9,7.64 7.64,0 0,0 -1.28,2.53 5.43,5.43 0,0 0,-2.29 -0.47c-2.07,0 -3.03,1.54 -3.03,3.94 0,2.5 1.2,3.93 3,3.93a4.95,4.95 0,0 0,2.31 -0.44,8.2 8.2,0 0,0 1.36,2.53 8.2,8.2 0,0 1,-3.96 0.88C114.17,30.12 111.8,27.45 111.8,23.23ZM87.1,23.31c0,-4.37 2.38,-7 6.29,-7 3.41,0 5.62,2.22 5.62,6.16a9.47,9.47 0,0 1,-0.14 1.84h-8.22c0.29,2.13 1.68,2.88 3.7,2.88a13.37,13.37 0,0 0,3.73 -0.61,6.34 6.34,0 0,1 0,2.8 10.34,10.34 0,0 1,-4.1 0.75C89.64,30.12 87.11,27.68 87.11,23.31ZM90.65,21.66h5.02c-0.07,-1.45 -0.71,-2.56 -2.34,-2.56A2.68,2.68 0,0 0,90.65 21.65ZM72.85,23.34c0,-4.28 2.71,-6.97 6.7,-6.97a6.98,6.98 0,0 1,1.89 0.21v-3.17a1.54,1.54 0,0 1,0.61 -1.32,10.94 10.94,0 0,1 3,-1.63L85.05,29.3a17.29,17.29 0,0 1,-5.42 0.82C75.51,30.12 72.85,27.7 72.85,23.34ZM76.57,23.34c0,2.28 0.93,3.85 3.32,3.85a4.94,4.94 0,0 0,1.54 -0.21v-7.51a5.24,5.24 0,0 0,-1.57 -0.21C77.51,19.26 76.58,20.81 76.58,23.34ZM37.2,29.37v-15.96a1.47,1.47 0,0 1,0.61 -1.31,10.93 10.93,0 0,1 3,-1.63v6.47a6.52,6.52 0,0 1,2.71 -0.56c3.96,0 5.88,2.56 5.88,6.69 0,4.17 -2.71,7.05 -7.43,7.05A14.31,14.31 0,0 1,37.2 29.37ZM40.81,19.79v7.26a4.63,4.63 0,0 0,1.36 0.14c2.37,0 3.5,-1.72 3.5,-4.18 0,-2.37 -0.96,-3.62 -2.77,-3.62A4.55,4.55 0,0 0,40.81 19.79ZM60.03,25.62c0,-2.96 2.66,-4.07 5.74,-4.07 0.47,0 1.14,0.06 1.7,0.11v-0.14c0,-1.54 -0.9,-2.29 -2.77,-2.29a13.01,13.01 0,0 0,-3.32 0.38,6.18 6.18,0 0,1 0,-2.85 15.19,15.19 0,0 1,3.91 -0.43c3.7,0.1 5.65,1.88 5.63,5.45v7.55a17.58,17.58 0,0 1,-5.03 0.79C62.42,30.11 60.03,28.97 60.03,25.62ZM63.37,25.64c0,1.15 0.9,1.65 2.56,1.65a10.5,10.5 0,0 0,1.54 -0.14L67.47,24.1c-0.35,-0.03 -0.99,-0.08 -1.54,-0.08C64.27,24.02 63.37,24.48 63.37,25.65ZM15.84,30v-9.02l2.63,-1.51c0.31,-0.18 0.67,-0.04 0.65,0.35v9.72a0.47,0.47 0,0 1,-0.47 0.47ZM13.29,29.99a0.31,0.31 0,0 1,-0.31 -0.31v-6.72a0.56,0.56 0,0 1,0.31 -0.53l1.81,-1.04v8.59ZM51.62,29.83v-13.2a7.14,7.14 0,0 1,1.46 -0.14,5.82 5.82,0 0,1 1.49,0.14 9.6,9.6 0,0 1,0.4 1.72,4.18 4.18,0 0,1 3.64,-1.86 5.28,5.28 0,0 1,1.01 0.11,7.32 7.32,0 0,1 -0.06,2.91 8.76,8.76 0,0 0,-1.2 -0.05c-1.81,0 -3.14,1.38 -3.14,3.93v6.44a10.69,10.69 0,0 1,-1.81 0.14A8.59,8.59 0,0 1,51.62 29.83ZM21.68,22c-0.1,-0.31 -0.03,-0.53 0.68,-0.83 2.93,-1.29 5.4,-3.24 5.4,-5.19 0,-3.84 -7.48,-6.77 -16.37,-6.77 -1.36,0 -2.62,0.07 -3.76,0.17a10.43,10.43 0,0 0,-0.85 4.16,10.58 10.58,0 0,0 3.42,7.8c0.29,0.26 0.32,0.5 0.13,0.76s-0.49,0.26 -0.83,0.04a12.08,12.08 0,0 1,-5.62 -10.37,9.1 9.1,0 0,1 0.2,-1.88c-1.15,0.25 -2.25,0.51 -3.32,0.82a0.53,0.53 0,0 1,-0.71 -0.26c-0.11,-0.29 0,-0.53 0.35,-0.72a24.2,24.2 0,0 1,4.2 -1.78,12.3 12.3,0 0,1 20.93,-3.55c0.28,0.31 0.31,0.56 0.06,0.79s-0.49,0.22 -0.81,-0.04a11.3,11.3 0,0 0,-6.98 -2.45,11.02 11.02,0 0,0 -8.7,4.23 35.56,35.56 0,0 1,5.81 -0.5c9.26,0 16.59,3.5 16.56,8.07 0,3.34 -3.88,6.09 -9,7.77a0.91,0.91 0,0 1,-0.3 0.05A0.47,0.47 0,0 1,21.68 22Z"/>
</svg>